<?xml version="1.0" encoding="utf-8"?>
<!-- Generator: Adobe Illustrator 25.0.0, SVG Export Plug-In . SVG Version: 6.00 Build 0)  -->
<svg version="1.1" id="Layer_1" xmlns="http://www.w3.org/2000/svg" xmlns:xlink="http://www.w3.org/1999/xlink" x="0px" y="0px"
	 viewBox="0 0 54 53" style="enable-background:new 0 0 54 53;" xml:space="preserve">
<style type="text/css">
	.st0{clip-path:url(#SVGID_2_);}
	.st1{clip-path:url(#SVGID_4_);enable-background:new    ;}
	.st2{clip-path:url(#SVGID_6_);}
	.st3{clip-path:url(#SVGID_8_);fill:none;stroke:#EEEDEE;stroke-width:2.0114;stroke-miterlimit:10.0569;}
	.st4{clip-path:url(#SVGID_10_);}
	.st5{clip-path:url(#SVGID_12_);enable-background:new    ;}
	.st6{clip-path:url(#SVGID_14_);}
	.st7{clip-path:url(#SVGID_16_);fill:#010101;}
	.st8{clip-path:url(#SVGID_18_);fill:#010101;}
	.st9{clip-path:url(#SVGID_20_);fill:#010101;}
	.st10{clip-path:url(#SVGID_22_);fill:#010101;}
	.st11{clip-path:url(#SVGID_24_);}
	.st12{clip-path:url(#SVGID_26_);fill:#154272;}
	.st13{clip-path:url(#SVGID_28_);}
	.st14{clip-path:url(#SVGID_30_);enable-background:new    ;}
	.st15{clip-path:url(#SVGID_32_);}
	.st16{clip-path:url(#SVGID_34_);fill:none;stroke:#EEEDEE;stroke-width:2.0114;stroke-miterlimit:10.0569;}
	.st17{clip-path:url(#SVGID_36_);}
	.st18{clip-path:url(#SVGID_38_);enable-background:new    ;}
	.st19{clip-path:url(#SVGID_40_);}
	.st20{clip-path:url(#SVGID_42_);fill:#010101;}
	.st21{clip-path:url(#SVGID_44_);fill:#010101;}
	.st22{clip-path:url(#SVGID_46_);fill:#010101;}
	.st23{clip-path:url(#SVGID_48_);fill:#010101;}
	.st24{clip-path:url(#SVGID_50_);}
	.st25{clip-path:url(#SVGID_52_);fill:#154272;}
	.st26{clip-path:url(#SVGID_54_);}
	.st27{clip-path:url(#SVGID_56_);enable-background:new    ;}
	.st28{clip-path:url(#SVGID_58_);}
	.st29{clip-path:url(#SVGID_60_);fill:none;stroke:#EEEDEE;stroke-width:2.0114;stroke-miterlimit:10.0569;}
	.st30{clip-path:url(#SVGID_62_);}
	.st31{clip-path:url(#SVGID_64_);enable-background:new    ;}
	.st32{clip-path:url(#SVGID_66_);}
	.st33{clip-path:url(#SVGID_68_);fill:#010101;}
	.st34{clip-path:url(#SVGID_70_);fill:#010101;}
	.st35{clip-path:url(#SVGID_72_);fill:#010101;}
	.st36{clip-path:url(#SVGID_74_);fill:#010101;}
	.st37{clip-path:url(#SVGID_76_);}
	.st38{clip-path:url(#SVGID_78_);fill:#154272;}
	.st39{clip-path:url(#SVGID_80_);}
	.st40{clip-path:url(#SVGID_82_);enable-background:new    ;}
	.st41{clip-path:url(#SVGID_84_);}
	.st42{clip-path:url(#SVGID_86_);fill:none;stroke:#EEEDEE;stroke-width:2.0114;stroke-miterlimit:10.0569;}
	.st43{fill:none;stroke:#F8F8F8;stroke-width:1.0057;stroke-miterlimit:10.0569;}
	.st44{fill-rule:evenodd;clip-rule:evenodd;fill:#164271;}
</style>
<g>
	<g>
		<defs>
			<circle id="SVGID_1_" cx="-463.8" cy="-795.9" r="25.1"/>
		</defs>
		<clipPath id="SVGID_2_">
			<use xlink:href="#SVGID_1_"  style="overflow:visible;"/>
		</clipPath>
		<g class="st0">
			<g>
				<defs>
					<rect id="SVGID_3_" x="-616.6" y="-1580.3" width="1287.3" height="3214.2"/>
				</defs>
				<clipPath id="SVGID_4_">
					<use xlink:href="#SVGID_3_"  style="overflow:visible;"/>
				</clipPath>
				<g class="st1">
					<g>
						<g>
							<defs>
								<rect id="SVGID_5_" x="-499" y="-831.1" width="70.4" height="70.4"/>
							</defs>
							<clipPath id="SVGID_6_">
								<use xlink:href="#SVGID_5_"  style="overflow:visible;"/>
							</clipPath>
							<g class="st2">
								<g>
									<defs>
										<rect id="SVGID_7_" x="-488.9" y="-821" width="50.3" height="50.3"/>
									</defs>
									<clipPath id="SVGID_8_">
										<use xlink:href="#SVGID_7_"  style="overflow:visible;"/>
									</clipPath>
									<circle class="st3" cx="-463.8" cy="-795.9" r="25.1"/>
								</g>
							</g>
						</g>
					</g>
				</g>
			</g>
		</g>
	</g>
</g>
<g>
	<g>
		<defs>
			<path id="SVGID_9_" d="M-468.2-803.4c0.3,0,0.6,0.3,0.6,0.6s-0.3,0.6-0.6,0.6h-5.7c-0.3,0-0.6-0.3-0.6-0.6s0.3-0.6,0.6-0.6
				H-468.2z M-469.8-799.4c0.3,0,0.6,0.3,0.6,0.6s-0.3,0.6-0.6,0.6h-5.7c-0.3,0-0.6-0.3-0.6-0.6s0.3-0.6,0.6-0.6H-469.8z
				 M-456-802.5h-4v4.7h8.2l-3.5-4.4C-455.5-802.4-455.7-802.5-456-802.5z M-471.4-795.4c0.3,0,0.6,0.3,0.6,0.6
				c0,0.3-0.3,0.6-0.6,0.6h-5.7c-0.3,0-0.6-0.3-0.6-0.6c0-0.3,0.3-0.6,0.6-0.6H-471.4z M-469.8-792c-1.2,0-2.2,0.8-2.5,2
				c0,0.2-0.1,0.4-0.1,0.6c0,0.2,0,0.4,0.1,0.6c0.3,1.1,1.3,2,2.5,2c1.2,0,2.2-0.8,2.5-2c0-0.2,0.1-0.4,0.1-0.6s0-0.4-0.1-0.6
				C-467.6-791.2-468.6-792-469.8-792z M-455.6-792c-1.2,0-2.2,0.8-2.5,2c-0.1,0.2-0.1,0.4-0.1,0.6c0,0.2,0,0.4,0.1,0.6
				c0.3,1.1,1.3,2,2.5,2s2.2-0.8,2.5-2c0.1-0.2,0.1-0.4,0.1-0.6s0-0.4-0.1-0.6C-453.4-791.2-454.4-792-455.6-792z M-460.1-807v3.1h4
				c0.6,0,1.2,0.3,1.6,0.8l4.1,5.2h2.2v6.5c0,1.4-1.1,2.5-2.5,2.5h-1.3c-0.3,1.8-1.9,3.2-3.8,3.2c-1.9,0-3.5-1.4-3.8-3.2h-6.5
				c-0.3,1.8-1.9,3.2-3.8,3.2s-3.5-1.4-3.8-3.2h-5.6c-0.3,0-0.6-0.3-0.6-0.6s0.3-0.6,0.6-0.6h5.6c0.3-1.8,1.9-3.2,3.8-3.2
				s3.5,1.4,3.8,3.2h6.5c0.3-1.8,1.9-3.2,3.8-3.2c1.9,0,3.5,1.4,3.8,3.2h1.3c0.7,0,1.3-0.6,1.3-1.3v-5.2h-12.1v-9.2h-11.3
				c-0.3,0-0.6-0.3-0.6-0.6s0.3-0.6,0.6-0.6h12.6V-807z"/>
		</defs>
		<clipPath id="SVGID_10_">
			<use xlink:href="#SVGID_9_"  style="overflow:visible;"/>
		</clipPath>
		<g class="st4">
			<g>
				<defs>
					<rect id="SVGID_11_" x="-616.6" y="-1580.3" width="1287.3" height="3214.2"/>
				</defs>
				<clipPath id="SVGID_12_">
					<use xlink:href="#SVGID_11_"  style="overflow:visible;"/>
				</clipPath>
				<g class="st5">
					<g>
						<g>
							<defs>
								<rect id="SVGID_13_" x="-485.9" y="-812" width="43.2" height="32.2"/>
							</defs>
							<clipPath id="SVGID_14_">
								<use xlink:href="#SVGID_13_"  style="overflow:visible;"/>
							</clipPath>
							<g class="st6">
								<g>
									<defs>
										<rect id="SVGID_15_" x="-480.9" y="-807" width="33.2" height="22.1"/>
									</defs>
									<clipPath id="SVGID_16_">
										<use xlink:href="#SVGID_15_"  style="overflow:visible;"/>
									</clipPath>
									<rect x="-479.6" y="-808.5" class="st7" width="17.1" height="11.3"/>
								</g>
								<g>
									<defs>
										<rect id="SVGID_17_" x="-480.9" y="-807" width="33.2" height="22.1"/>
									</defs>
									<clipPath id="SVGID_18_">
										<use xlink:href="#SVGID_17_"  style="overflow:visible;"/>
									</clipPath>
									<rect x="-481.2" y="-804.5" class="st8" width="17.1" height="11.3"/>
								</g>
								<g>
									<defs>
										<rect id="SVGID_19_" x="-480.9" y="-807" width="33.2" height="22.1"/>
									</defs>
									<clipPath id="SVGID_20_">
										<use xlink:href="#SVGID_19_"  style="overflow:visible;"/>
									</clipPath>
									<rect x="-482.8" y="-800.4" class="st9" width="17.1" height="11.3"/>
								</g>
								<g>
									<defs>
										<rect id="SVGID_21_" x="-480.9" y="-807" width="33.2" height="22.1"/>
									</defs>
									<clipPath id="SVGID_22_">
										<use xlink:href="#SVGID_21_"  style="overflow:visible;"/>
									</clipPath>
									<rect x="-484.9" y="-812" class="st10" width="41.9" height="31.4"/>
								</g>
							</g>
						</g>
						<g>
							<defs>
								<rect id="SVGID_23_" x="-485.9" y="-812" width="43.2" height="32.2"/>
							</defs>
							<clipPath id="SVGID_24_">
								<use xlink:href="#SVGID_23_"  style="overflow:visible;"/>
							</clipPath>
							<g class="st11">
								<g>
									<defs>
										<rect id="SVGID_25_" x="-479.9" y="-807" width="32.2" height="22.1"/>
									</defs>
									<clipPath id="SVGID_26_">
										<use xlink:href="#SVGID_25_"  style="overflow:visible;"/>
									</clipPath>
									<rect x="-484.9" y="-817" class="st12" width="42.2" height="42.2"/>
								</g>
							</g>
						</g>
					</g>
				</g>
			</g>
		</g>
	</g>
</g>
<g>
	<g>
		<defs>
			<circle id="SVGID_27_" cx="-463.8" cy="-795.9" r="25.1"/>
		</defs>
		<clipPath id="SVGID_28_">
			<use xlink:href="#SVGID_27_"  style="overflow:visible;"/>
		</clipPath>
		<g class="st13">
			<g>
				<defs>
					<rect id="SVGID_29_" x="-616.6" y="-1580.3" width="1287.3" height="3214.2"/>
				</defs>
				<clipPath id="SVGID_30_">
					<use xlink:href="#SVGID_29_"  style="overflow:visible;"/>
				</clipPath>
				<g class="st14">
					<g>
						<g>
							<defs>
								<rect id="SVGID_31_" x="-499" y="-831.1" width="70.4" height="70.4"/>
							</defs>
							<clipPath id="SVGID_32_">
								<use xlink:href="#SVGID_31_"  style="overflow:visible;"/>
							</clipPath>
							<g class="st15">
								<g>
									<defs>
										<rect id="SVGID_33_" x="-488.9" y="-821" width="50.3" height="50.3"/>
									</defs>
									<clipPath id="SVGID_34_">
										<use xlink:href="#SVGID_33_"  style="overflow:visible;"/>
									</clipPath>
									<circle class="st16" cx="-463.8" cy="-795.9" r="25.1"/>
								</g>
							</g>
						</g>
					</g>
				</g>
			</g>
		</g>
	</g>
</g>
<g>
	<g>
		<defs>
			<path id="SVGID_35_" d="M-468.2-803.4c0.3,0,0.6,0.3,0.6,0.6s-0.3,0.6-0.6,0.6h-5.7c-0.3,0-0.6-0.3-0.6-0.6s0.3-0.6,0.6-0.6
				H-468.2z M-469.8-799.4c0.3,0,0.6,0.3,0.6,0.6s-0.3,0.6-0.6,0.6h-5.7c-0.3,0-0.6-0.3-0.6-0.6s0.3-0.6,0.6-0.6H-469.8z
				 M-456-802.5h-4v4.7h8.2l-3.5-4.4C-455.5-802.4-455.7-802.5-456-802.5z M-471.4-795.4c0.3,0,0.6,0.3,0.6,0.6
				c0,0.3-0.3,0.6-0.6,0.6h-5.7c-0.3,0-0.6-0.3-0.6-0.6c0-0.3,0.3-0.6,0.6-0.6H-471.4z M-469.8-792c-1.2,0-2.2,0.8-2.5,2
				c0,0.2-0.1,0.4-0.1,0.6c0,0.2,0,0.4,0.1,0.6c0.3,1.1,1.3,2,2.5,2c1.2,0,2.2-0.8,2.5-2c0-0.2,0.1-0.4,0.1-0.6s0-0.4-0.1-0.6
				C-467.6-791.2-468.6-792-469.8-792z M-455.6-792c-1.2,0-2.2,0.8-2.5,2c-0.1,0.2-0.1,0.4-0.1,0.6c0,0.2,0,0.4,0.1,0.6
				c0.3,1.1,1.3,2,2.5,2s2.2-0.8,2.5-2c0.1-0.2,0.1-0.4,0.1-0.6s0-0.4-0.1-0.6C-453.4-791.2-454.4-792-455.6-792z M-460.1-807v3.1h4
				c0.6,0,1.2,0.3,1.6,0.8l4.1,5.2h2.2v6.5c0,1.4-1.1,2.5-2.5,2.5h-1.3c-0.3,1.8-1.9,3.2-3.8,3.2c-1.9,0-3.5-1.4-3.8-3.2h-6.5
				c-0.3,1.8-1.9,3.2-3.8,3.2s-3.5-1.4-3.8-3.2h-5.6c-0.3,0-0.6-0.3-0.6-0.6s0.3-0.6,0.6-0.6h5.6c0.3-1.8,1.9-3.2,3.8-3.2
				s3.5,1.4,3.8,3.2h6.5c0.3-1.8,1.9-3.2,3.8-3.2c1.9,0,3.5,1.4,3.8,3.2h1.3c0.7,0,1.3-0.6,1.3-1.3v-5.2h-12.1v-9.2h-11.3
				c-0.3,0-0.6-0.3-0.6-0.6s0.3-0.6,0.6-0.6h12.6V-807z"/>
		</defs>
		<clipPath id="SVGID_36_">
			<use xlink:href="#SVGID_35_"  style="overflow:visible;"/>
		</clipPath>
		<g class="st17">
			<g>
				<defs>
					<rect id="SVGID_37_" x="-616.6" y="-1580.3" width="1287.3" height="3214.2"/>
				</defs>
				<clipPath id="SVGID_38_">
					<use xlink:href="#SVGID_37_"  style="overflow:visible;"/>
				</clipPath>
				<g class="st18">
					<g>
						<g>
							<defs>
								<rect id="SVGID_39_" x="-485.9" y="-812" width="43.2" height="32.2"/>
							</defs>
							<clipPath id="SVGID_40_">
								<use xlink:href="#SVGID_39_"  style="overflow:visible;"/>
							</clipPath>
							<g class="st19">
								<g>
									<defs>
										<rect id="SVGID_41_" x="-480.9" y="-807" width="33.2" height="22.1"/>
									</defs>
									<clipPath id="SVGID_42_">
										<use xlink:href="#SVGID_41_"  style="overflow:visible;"/>
									</clipPath>
									<rect x="-479.6" y="-808.5" class="st20" width="17.1" height="11.3"/>
								</g>
								<g>
									<defs>
										<rect id="SVGID_43_" x="-480.9" y="-807" width="33.2" height="22.1"/>
									</defs>
									<clipPath id="SVGID_44_">
										<use xlink:href="#SVGID_43_"  style="overflow:visible;"/>
									</clipPath>
									<rect x="-481.2" y="-804.5" class="st21" width="17.1" height="11.3"/>
								</g>
								<g>
									<defs>
										<rect id="SVGID_45_" x="-480.9" y="-807" width="33.2" height="22.1"/>
									</defs>
									<clipPath id="SVGID_46_">
										<use xlink:href="#SVGID_45_"  style="overflow:visible;"/>
									</clipPath>
									<rect x="-482.8" y="-800.4" class="st22" width="17.1" height="11.3"/>
								</g>
								<g>
									<defs>
										<rect id="SVGID_47_" x="-480.9" y="-807" width="33.2" height="22.1"/>
									</defs>
									<clipPath id="SVGID_48_">
										<use xlink:href="#SVGID_47_"  style="overflow:visible;"/>
									</clipPath>
									<rect x="-484.9" y="-812" class="st23" width="41.9" height="31.4"/>
								</g>
							</g>
						</g>
						<g>
							<defs>
								<rect id="SVGID_49_" x="-485.9" y="-812" width="43.2" height="32.2"/>
							</defs>
							<clipPath id="SVGID_50_">
								<use xlink:href="#SVGID_49_"  style="overflow:visible;"/>
							</clipPath>
							<g class="st24">
								<g>
									<defs>
										<rect id="SVGID_51_" x="-479.9" y="-807" width="32.2" height="22.1"/>
									</defs>
									<clipPath id="SVGID_52_">
										<use xlink:href="#SVGID_51_"  style="overflow:visible;"/>
									</clipPath>
									<rect x="-484.9" y="-817" class="st25" width="42.2" height="42.2"/>
								</g>
							</g>
						</g>
					</g>
				</g>
			</g>
		</g>
	</g>
</g>
<g>
	<g>
		<defs>
			<circle id="SVGID_53_" cx="-463.8" cy="-795.9" r="25.1"/>
		</defs>
		<clipPath id="SVGID_54_">
			<use xlink:href="#SVGID_53_"  style="overflow:visible;"/>
		</clipPath>
		<g class="st26">
			<g>
				<defs>
					<rect id="SVGID_55_" x="-616.6" y="-1580.3" width="1287.3" height="3214.2"/>
				</defs>
				<clipPath id="SVGID_56_">
					<use xlink:href="#SVGID_55_"  style="overflow:visible;"/>
				</clipPath>
				<g class="st27">
					<g>
						<g>
							<defs>
								<rect id="SVGID_57_" x="-499" y="-831.1" width="70.4" height="70.4"/>
							</defs>
							<clipPath id="SVGID_58_">
								<use xlink:href="#SVGID_57_"  style="overflow:visible;"/>
							</clipPath>
							<g class="st28">
								<g>
									<defs>
										<rect id="SVGID_59_" x="-488.9" y="-821" width="50.3" height="50.3"/>
									</defs>
									<clipPath id="SVGID_60_">
										<use xlink:href="#SVGID_59_"  style="overflow:visible;"/>
									</clipPath>
									<circle class="st29" cx="-463.8" cy="-795.9" r="25.1"/>
								</g>
							</g>
						</g>
					</g>
				</g>
			</g>
		</g>
	</g>
</g>
<g>
	<g>
		<defs>
			<path id="SVGID_61_" d="M-468.2-803.4c0.3,0,0.6,0.3,0.6,0.6s-0.3,0.6-0.6,0.6h-5.7c-0.3,0-0.6-0.3-0.6-0.6s0.3-0.6,0.6-0.6
				H-468.2z M-469.8-799.4c0.3,0,0.6,0.3,0.6,0.6s-0.3,0.6-0.6,0.6h-5.7c-0.3,0-0.6-0.3-0.6-0.6s0.3-0.6,0.6-0.6H-469.8z
				 M-456-802.5h-4v4.7h8.2l-3.5-4.4C-455.5-802.4-455.7-802.5-456-802.5z M-471.4-795.4c0.3,0,0.6,0.3,0.6,0.6
				c0,0.3-0.3,0.6-0.6,0.6h-5.7c-0.3,0-0.6-0.3-0.6-0.6c0-0.3,0.3-0.6,0.6-0.6H-471.4z M-469.8-792c-1.2,0-2.2,0.8-2.5,2
				c0,0.2-0.1,0.4-0.1,0.6c0,0.2,0,0.4,0.1,0.6c0.3,1.1,1.3,2,2.5,2c1.2,0,2.2-0.8,2.5-2c0-0.2,0.1-0.4,0.1-0.6s0-0.4-0.1-0.6
				C-467.6-791.2-468.6-792-469.8-792z M-455.6-792c-1.2,0-2.2,0.8-2.5,2c-0.1,0.2-0.1,0.4-0.1,0.6c0,0.2,0,0.4,0.1,0.6
				c0.3,1.1,1.3,2,2.5,2s2.2-0.8,2.5-2c0.1-0.2,0.1-0.4,0.1-0.6s0-0.4-0.1-0.6C-453.4-791.2-454.4-792-455.6-792z M-460.1-807v3.1h4
				c0.6,0,1.2,0.3,1.6,0.8l4.1,5.2h2.2v6.5c0,1.4-1.1,2.5-2.5,2.5h-1.3c-0.3,1.8-1.9,3.2-3.8,3.2c-1.9,0-3.5-1.4-3.8-3.2h-6.5
				c-0.3,1.8-1.9,3.2-3.8,3.2s-3.5-1.4-3.8-3.2h-5.6c-0.3,0-0.6-0.3-0.6-0.6s0.3-0.6,0.6-0.6h5.6c0.3-1.8,1.9-3.2,3.8-3.2
				s3.5,1.4,3.8,3.2h6.5c0.3-1.8,1.9-3.2,3.8-3.2c1.9,0,3.5,1.4,3.8,3.2h1.3c0.7,0,1.3-0.6,1.3-1.3v-5.2h-12.1v-9.2h-11.3
				c-0.3,0-0.6-0.3-0.6-0.6s0.3-0.6,0.6-0.6h12.6V-807z"/>
		</defs>
		<clipPath id="SVGID_62_">
			<use xlink:href="#SVGID_61_"  style="overflow:visible;"/>
		</clipPath>
		<g class="st30">
			<g>
				<defs>
					<rect id="SVGID_63_" x="-616.6" y="-1580.3" width="1287.3" height="3214.2"/>
				</defs>
				<clipPath id="SVGID_64_">
					<use xlink:href="#SVGID_63_"  style="overflow:visible;"/>
				</clipPath>
				<g class="st31">
					<g>
						<g>
							<defs>
								<rect id="SVGID_65_" x="-485.9" y="-812" width="43.2" height="32.2"/>
							</defs>
							<clipPath id="SVGID_66_">
								<use xlink:href="#SVGID_65_"  style="overflow:visible;"/>
							</clipPath>
							<g class="st32">
								<g>
									<defs>
										<rect id="SVGID_67_" x="-480.9" y="-807" width="33.2" height="22.1"/>
									</defs>
									<clipPath id="SVGID_68_">
										<use xlink:href="#SVGID_67_"  style="overflow:visible;"/>
									</clipPath>
									<rect x="-479.6" y="-808.5" class="st33" width="17.1" height="11.3"/>
								</g>
								<g>
									<defs>
										<rect id="SVGID_69_" x="-480.9" y="-807" width="33.2" height="22.1"/>
									</defs>
									<clipPath id="SVGID_70_">
										<use xlink:href="#SVGID_69_"  style="overflow:visible;"/>
									</clipPath>
									<rect x="-481.2" y="-804.5" class="st34" width="17.1" height="11.3"/>
								</g>
								<g>
									<defs>
										<rect id="SVGID_71_" x="-480.9" y="-807" width="33.2" height="22.1"/>
									</defs>
									<clipPath id="SVGID_72_">
										<use xlink:href="#SVGID_71_"  style="overflow:visible;"/>
									</clipPath>
									<rect x="-482.8" y="-800.4" class="st35" width="17.1" height="11.3"/>
								</g>
								<g>
									<defs>
										<rect id="SVGID_73_" x="-480.9" y="-807" width="33.2" height="22.1"/>
									</defs>
									<clipPath id="SVGID_74_">
										<use xlink:href="#SVGID_73_"  style="overflow:visible;"/>
									</clipPath>
									<rect x="-484.9" y="-812" class="st36" width="41.9" height="31.4"/>
								</g>
							</g>
						</g>
						<g>
							<defs>
								<rect id="SVGID_75_" x="-485.9" y="-812" width="43.2" height="32.2"/>
							</defs>
							<clipPath id="SVGID_76_">
								<use xlink:href="#SVGID_75_"  style="overflow:visible;"/>
							</clipPath>
							<g class="st37">
								<g>
									<defs>
										<rect id="SVGID_77_" x="-479.9" y="-807" width="32.2" height="22.1"/>
									</defs>
									<clipPath id="SVGID_78_">
										<use xlink:href="#SVGID_77_"  style="overflow:visible;"/>
									</clipPath>
									<rect x="-484.9" y="-817" class="st38" width="42.2" height="42.2"/>
								</g>
							</g>
						</g>
					</g>
				</g>
			</g>
		</g>
	</g>
</g>
<g>
	<g>
		<defs>
			<circle id="SVGID_79_" cx="-452.7" cy="-787.9" r="25.1"/>
		</defs>
		<clipPath id="SVGID_80_">
			<use xlink:href="#SVGID_79_"  style="overflow:visible;"/>
		</clipPath>
		<g class="st39">
			<g>
				<defs>
					<rect id="SVGID_81_" x="-605.6" y="-1572.3" width="1287.3" height="3214.2"/>
				</defs>
				<clipPath id="SVGID_82_">
					<use xlink:href="#SVGID_81_"  style="overflow:visible;"/>
				</clipPath>
				<g class="st40">
					<g>
						<g>
							<defs>
								<rect id="SVGID_83_" x="-487.9" y="-823.1" width="70.4" height="70.4"/>
							</defs>
							<clipPath id="SVGID_84_">
								<use xlink:href="#SVGID_83_"  style="overflow:visible;"/>
							</clipPath>
							<g class="st41">
								<g>
									<defs>
										<rect id="SVGID_85_" x="-477.9" y="-813" width="50.3" height="50.3"/>
									</defs>
									<clipPath id="SVGID_86_">
										<use xlink:href="#SVGID_85_"  style="overflow:visible;"/>
									</clipPath>
									<circle class="st42" cx="-452.7" cy="-787.9" r="25.1"/>
								</g>
							</g>
						</g>
					</g>
				</g>
			</g>
		</g>
	</g>
</g>
<circle class="st43" cx="26.8" cy="26.1" r="25.1"/>
<path class="st44" d="M40,32.7c0,1.3-1.1,2.4-2.4,2.4h-2.4V24.3h2.4c1.3,0,2.4,1.1,2.4,2.4V32.7z M26.9,41h-1.2
	c-0.3,0-0.6-0.3-0.6-0.6s0.3-0.6,0.6-0.6h1.2c0.3,0,0.6,0.3,0.6,0.6S27.2,41,26.9,41z M17.9,24.3V35h-2.4c-1.3,0-2.4-1.1-2.4-2.4
	v-5.9c0-1.3,1.1-2.4,2.4-2.4h2.4V24.3z M37.7,23.1v-5.9c0-3.9-3.2-7.1-7.1-7.1h-7.7c-3.9,0-7.1,3.2-7.1,7.1v5.9
	c-2,0-3.5,1.6-3.5,3.5v5.9c0,2,1.6,3.5,3.5,3.5h3c0.3,0,0.6-0.3,0.6-0.6V23.7c0-0.3-0.3-0.6-0.6-0.6h-1.8v-5.9
	c0-3.3,2.7-5.9,5.9-5.9h7.7c3.3,0,5.9,2.7,5.9,5.9v5.9h-1.8c-0.3,0-0.6,0.3-0.6,0.6v11.9c0,0.3,0.3,0.6,0.6,0.6h1.2
	c0,0.4-0.2,1.1-0.7,1.8c-1.1,1.3-3.3,2-6.4,2c-0.1-0.8-0.9-1.5-1.7-1.5h-1.2c-1,0-1.8,0.8-1.8,1.8c0,1,0.8,1.8,1.8,1.8H27
	c0.7,0,1.2-0.4,1.5-0.9c3.6,0,6.2-0.8,7.5-2.5c0.8-0.9,1-1.9,1-2.6h0.6c2,0,3.5-1.6,3.5-3.5v-5.9C41.2,24.7,39.6,23.1,37.7,23.1z"/>
</svg>
