<?xml version="1.0" encoding="utf-8"?>
<!-- Generator: Adobe Illustrator 25.0.0, SVG Export Plug-In . SVG Version: 6.00 Build 0)  -->
<svg version="1.1" id="Layer_1" xmlns="http://www.w3.org/2000/svg" xmlns:xlink="http://www.w3.org/1999/xlink" x="0px" y="0px"
	 viewBox="0 0 54 53" style="enable-background:new 0 0 54 53;" xml:space="preserve">
<style type="text/css">
	.st0{fill-rule:evenodd;clip-rule:evenodd;fill:#164271;}
	.st1{fill:none;stroke:#F8F8F8;stroke-width:1.0055;stroke-miterlimit:10.055;}
</style>
<path class="st0" d="M22.6,19.2c0.3,0,0.6,0.3,0.6,0.6c0,0.3-0.3,0.6-0.6,0.6l0,0h-5.7c-0.3,0-0.6-0.3-0.6-0.6
	c0-0.3,0.3-0.6,0.6-0.6H22.6z M21,23.2c0.3,0,0.6,0.3,0.6,0.6c0,0.3-0.3,0.6-0.6,0.6c0,0,0,0,0,0h-5.7c-0.3,0-0.6-0.3-0.6-0.6
	c0-0.3,0.3-0.6,0.6-0.6c0,0,0,0,0,0H21z M34.8,20.1h-4v4.7H39l-3.5-4.5C35.3,20.2,35,20.1,34.8,20.1z M19.4,27.3
	c0.3,0,0.6,0.3,0.6,0.6c0,0.3-0.3,0.6-0.6,0.6c0,0,0,0,0,0h-5.7c-0.3,0-0.6-0.3-0.6-0.6s0.3-0.6,0.6-0.6c0,0,0,0,0,0H19.4z M21,30.6
	c-1.5,0-2.7,1.1-2.7,2.6c0,1.5,1.1,2.7,2.6,2.7s2.7-1.1,2.7-2.6c0-0.2,0-0.5-0.1-0.7C23.2,31.5,22.2,30.6,21,30.6z M35.1,30.6
	c-1.2,0-2.2,0.8-2.5,2c-0.1,0.4-0.1,0.8,0,1.2c0.4,1.4,1.8,2.2,3.2,1.9c0.9-0.2,1.6-1,1.9-1.9c0.1-0.4,0.1-0.8,0-1.2
	C37.4,31.5,36.3,30.6,35.1,30.6L35.1,30.6z M30.7,15.7v3.1h4c0.6,0,1.2,0.3,1.6,0.8l4.1,5.2h2.3v6.5c0,1.4-1.1,2.5-2.5,2.5h-1.3
	c-0.3,2.1-2.3,3.5-4.4,3.2c-1.6-0.3-2.9-1.5-3.2-3.2h-6.5c-0.3,2.1-2.3,3.5-4.4,3.2c-1.6-0.3-2.9-1.5-3.2-3.2h-5.7
	c-0.3,0-0.6-0.3-0.6-0.6c0-0.3,0.3-0.6,0.6-0.6h5.7c0.3-2.1,2.3-3.5,4.4-3.2c1.6,0.3,2.9,1.5,3.2,3.2h6.6c0.3-2.1,2.3-3.5,4.4-3.2
	c1.6,0.3,2.9,1.5,3.2,3.2h1.3c0.7,0,1.3-0.6,1.3-1.3v-5.2H29.4V17H18.2c-0.3,0-0.6-0.3-0.6-0.6c0-0.3,0.3-0.6,0.6-0.6c0,0,0,0,0,0
	L30.7,15.7z"/>
<circle class="st1" cx="26.8" cy="26.2" r="25.1"/>
</svg>
