<?xml version="1.0" encoding="utf-8"?>
<!-- Generator: Adobe Illustrator 25.0.0, SVG Export Plug-In . SVG Version: 6.00 Build 0)  -->
<svg version="1.1" id="Capa_1" xmlns="http://www.w3.org/2000/svg" xmlns:xlink="http://www.w3.org/1999/xlink" x="0px" y="0px"
	 viewBox="0 0 56 83" style="enable-background:new 0 0 56 83;" xml:space="preserve">
<style type="text/css">
	.st0{fill-rule:evenodd;clip-rule:evenodd;fill:#FFFFFF;}
</style>
<path class="st0" d="M44.2,41.4l-1.4,6.7h0v0c-0.1,0.2-0.2,0.3-0.4,0.3c-0.2,0-0.3-0.1-0.4-0.2l0,0c-0.4-0.4-0.8-0.8-1.2-1.1
	c-0.7-0.5-1.4-0.8-2.2-1c-1.3-0.3-2.4-0.1-3.3,0.5c-0.9,0.6-1.5,1.6-1.8,2.9c-0.3,1.3-0.1,2.4,0.5,3.3c0.6,0.9,1.5,1.5,2.7,1.7
	c0.7,0.2,1.5,0.1,2.4,0c0.6-0.1,1.3-0.3,2-0.6l0,0c0.1,0,0.1-0.1,0.2-0.1c0.2,0,0.4,0.2,0.4,0.4c0,0,0,0,0,0.1l0,0c0,0,0,0,0,0
	c0,0,0,0,0,0h0l-1.6,6.8c0,0.2-0.2,0.3-0.3,0.3c-0.8,0.1-1.6,0.2-2.4,0.2c-0.9,0-1.7-0.1-2.6-0.2c-1-0.2-2-0.5-2.9-1
	c-0.9-0.4-1.7-0.9-2.4-1.5c-1.7-1.5-2.8-3.2-3.5-5c-0.6-1.9-0.7-3.9-0.3-6.1c0.3-1.6,0.9-3,1.7-4.3c0.8-1.3,1.9-2.3,3.2-3.1
	c1.3-0.8,2.7-1.4,4.2-1.6c1.5-0.3,3.1-0.2,4.7,0.1c0.9,0.2,1.7,0.4,2.5,0.8c0.7,0.3,1.4,0.7,2.1,1.2C44.2,41,44.2,41.1,44.2,41.4
	C44.2,41.3,44.2,41.3,44.2,41.4z M21.1,50.2h-8.2l0.2-1h0.5c0.3,0,0.5,0,0.6-0.1c0.1,0,0.1-0.1,0.1-0.3c0.2-1.6,0.4-3.5,0.8-5.8
	l0.3-1.8c0.2-1.6,0.4-3.1,0.7-4.6c0.3-2,0.4-3.3,0.4-3.9c0-0.2,0-0.4-0.1-0.5c-0.1-0.1-0.2-0.2-0.3-0.2h-0.6
	c-1.3,0.6-2.6,1.1-3.8,1.5c-1.3,0.4-2.4,0.6-3.4,0.6c-0.5,0-0.8-0.3-0.9-0.9c-0.1-0.6-0.2-1.3-0.2-2c0-0.4,0.2-2.3,0.7-5.4
	c0.5-3.2,0.7-5.1,0.7-5.8c0-0.3,0-0.5-0.1-0.7c-0.1-0.2-0.2-0.2-0.4-0.2H7H5.8l-0.3-1.1c1.4-0.5,2.8-0.8,4.3-1.1
	c1.5-0.3,2.7-0.4,3.8-0.4c0.3,0,0.5,0.2,0.5,0.6c0,1.2-0.3,3.6-0.8,7c-0.5,3.5-0.8,5.6-0.8,6.5c0,0.2,0,0.4,0,0.7
	c0,0.3,0.2,0.4,0.4,0.4c0.1,0,0.5-0.1,1.1-0.3l0.1,0l0.1,0c0.3-0.1,0.5-0.2,0.8-0.3l0.2-0.1v0c0.7-0.2,1.4-0.4,2.1-0.5
	c1.1-0.2,2.1-0.3,2.9-0.3c0.3,0,0.4,0.1,0.4,0.4v0.3c0,0.6,0,1.1-0.1,1.6c0,0.5-0.2,1.3-0.4,2.5c0.7-1.4,1.5-2.5,2.5-3.5
	c0.9-0.9,2-1.4,3.3-1.4c1,0,1.7,0.4,2.1,1.2c0.5,0.8,0.7,1.7,0.7,2.7c0,2.8-0.9,5.1-2.6,6.8c-1.7,1.8-3.6,2.6-5.8,2.6H19
	c-0.1,0.7-0.2,1.4-0.3,2c0,0.3-0.1,0.6-0.1,0.8c-0.1,0.8-0.2,1.5-0.2,1.9c0,0.5,0,0.8,0.2,0.9c0.1,0.1,0.4,0.2,0.7,0.2h1.9
	L21.1,50.2z M56,0.5C56,0.2,55.8,0,55.5,0c0,0-0.1,0-0.1,0L15.2,10.2c0,0.2,0,0.3,0,0.5c0,0.8-0.4,1.6-1.1,2.3
	c-0.7,0.7-1.6,1.1-2.4,1.1c-0.7,0-1.3-0.2-1.7-0.7c-0.4-0.4-0.7-1-0.7-1.7l-9,2.3C0.1,14,0,14.1,0,14.4c0,0,0,0.1,0,0.1l0,0
	l10.7,53.4h31.1L56,0.6C56,0.6,56,0.5,56,0.5z M23.5,39.9c0.7-1.6,1.1-3.2,1.1-4.7c0-0.7-0.1-1.3-0.2-1.8c-0.1-0.5-0.4-0.8-0.8-0.8
	c-0.9,0-1.8,0.9-2.7,2.8c-0.8,1.9-1.4,4.2-1.7,6.8h0.5C21.5,42.3,22.8,41.5,23.5,39.9z M45.4,74.3c0,0.1-0.1,0.1-0.1,0.1
	c0,0-0.1,0-0.2,0c-0.1,0-0.2,0-0.2-0.1c-0.1-0.1-0.2-0.1-0.4-0.2C44.3,74.1,44.2,74,44,74c-0.2-0.1-0.4-0.1-0.7-0.1
	c-0.3,0-0.5,0-0.7,0.1c-0.2,0.1-0.4,0.2-0.5,0.3c-0.1,0.1-0.2,0.3-0.3,0.4c-0.1,0.2-0.1,0.4-0.1,0.5c0,0.2,0.1,0.5,0.2,0.6
	c0.1,0.2,0.3,0.3,0.5,0.4c0.2,0.1,0.4,0.2,0.7,0.3l0.2,0.1c0.2,0.1,0.4,0.1,0.6,0.2c0.3,0.1,0.5,0.2,0.8,0.3
	c0.3,0.1,0.5,0.3,0.7,0.4c0.2,0.2,0.4,0.4,0.5,0.6c0.1,0.3,0.2,0.6,0.2,0.9c0,0.4-0.1,0.8-0.2,1.1c-0.1,0.3-0.3,0.6-0.6,0.9
	c-0.3,0.3-0.6,0.5-0.9,0.6c-0.4,0.1-0.8,0.2-1.3,0.2c-0.6,0-1.1-0.1-1.6-0.3c-0.5-0.2-0.9-0.5-1.2-0.9l0.3-0.6c0,0,0.1-0.1,0.1-0.1
	c0,0,0.1,0,0.2,0c0.1,0,0.1,0,0.2,0.1c0.1,0,0.1,0.1,0.2,0.2c0.1,0.1,0.2,0.1,0.3,0.2c0.1,0.1,0.2,0.2,0.4,0.2
	c0.1,0.1,0.3,0.1,0.5,0.2c0.2,0,0.4,0.1,0.6,0.1c0.3,0,0.5,0,0.8-0.1c0.2-0.1,0.4-0.2,0.6-0.3c0.2-0.1,0.3-0.3,0.4-0.5
	c0.1-0.2,0.1-0.4,0.1-0.7c0-0.3-0.1-0.5-0.2-0.7c-0.1-0.2-0.3-0.3-0.5-0.4c-0.2-0.1-0.4-0.2-0.7-0.3l-0.1,0
	c-0.2-0.1-0.5-0.1-0.7-0.2c-0.3-0.1-0.5-0.2-0.8-0.3c-0.3-0.1-0.5-0.3-0.7-0.4c-0.2-0.2-0.4-0.4-0.5-0.7c-0.1-0.3-0.2-0.6-0.2-1
	c0-0.3,0.1-0.6,0.2-0.9c0.1-0.3,0.3-0.6,0.5-0.8c0.2-0.2,0.5-0.4,0.9-0.5c0.3-0.1,0.7-0.2,1.2-0.2c0.5,0,1,0.1,1.4,0.2
	c0.4,0.2,0.8,0.4,1.1,0.7L45.4,74.3z M39,82v-1h-3.9v-7.9H34V82H39z M20.6,80.2c0.3-0.3,0.5-0.7,0.6-1.1c0.1-0.4,0.2-0.9,0.2-1.4
	c0-0.5-0.1-1-0.2-1.4c-0.1-0.4-0.4-0.8-0.6-1.1c-0.3-0.3-0.6-0.5-1-0.7c-0.4-0.2-0.8-0.2-1.3-0.2c-0.5,0-0.9,0.1-1.3,0.2
	c-0.4,0.2-0.7,0.4-1,0.7c-0.3,0.3-0.5,0.7-0.6,1.1c-0.1,0.4-0.2,0.9-0.2,1.4c0,0.5,0.1,1,0.2,1.4c0.1,0.4,0.4,0.8,0.6,1.1
	c0.3,0.3,0.6,0.5,1,0.7c0.4,0.2,0.8,0.2,1.3,0.2c0.5,0,0.9-0.1,1.3-0.2C20,80.7,20.4,80.4,20.6,80.2z M20.1,73.5
	c0.5,0.2,1,0.5,1.4,0.9c0.4,0.4,0.7,0.9,0.9,1.4c0.2,0.5,0.3,1.1,0.3,1.8c0,0.7-0.1,1.2-0.3,1.8c-0.2,0.5-0.5,1-0.9,1.4
	c-0.4,0.4-0.8,0.7-1.4,0.9c-0.5,0.2-1.1,0.3-1.7,0.3c-0.6,0-1.2-0.1-1.7-0.3c-0.5-0.2-1-0.5-1.4-0.9c-0.4-0.4-0.7-0.9-0.9-1.4
	c-0.2-0.5-0.3-1.1-0.3-1.8c0-0.7,0.1-1.3,0.3-1.8c0.2-0.5,0.5-1,0.9-1.4c0.4-0.4,0.8-0.7,1.4-0.9c0.5-0.2,1.1-0.3,1.7-0.3
	C19,73.2,19.6,73.3,20.1,73.5z M10.6,77.7c-0.3,0.1-0.6,0.1-0.9,0.1H8.3v-3.6h1.4c0.7,0,1.2,0.2,1.6,0.5c0.3,0.3,0.5,0.7,0.5,1.3
	c0,0.3,0,0.5-0.1,0.7c-0.1,0.2-0.2,0.4-0.4,0.6C11.1,77.5,10.8,77.6,10.6,77.7z M11.1,73.5c-0.4-0.1-0.9-0.2-1.4-0.2H7.1V82h1.2
	v-3.2h1.4c0.5,0,1-0.1,1.4-0.2c0.4-0.1,0.7-0.3,1-0.6c0.3-0.2,0.5-0.5,0.6-0.9c0.1-0.3,0.2-0.7,0.2-1.1c0-0.4-0.1-0.8-0.2-1.1
	c-0.1-0.3-0.3-0.6-0.6-0.8C11.9,73.8,11.5,73.6,11.1,73.5z M30.9,79.1c-0.1,0.4-0.4,0.8-0.6,1.1c-0.3,0.3-0.6,0.5-1,0.7
	c-0.4,0.2-0.8,0.2-1.3,0.2c-0.5,0-0.9-0.1-1.3-0.2c-0.4-0.2-0.7-0.4-1-0.7c-0.3-0.3-0.5-0.7-0.6-1.1C25,78.7,25,78.2,25,77.6
	c0-0.5,0.1-1,0.2-1.4c0.1-0.4,0.4-0.8,0.6-1.1c0.3-0.3,0.6-0.5,1-0.7c0.4-0.2,0.8-0.2,1.3-0.2c0.5,0,0.9,0.1,1.3,0.2
	c0.4,0.2,0.7,0.4,1,0.7c0.3,0.3,0.5,0.7,0.6,1.1c0.1,0.4,0.2,0.9,0.2,1.4C31.1,78.2,31.1,78.7,30.9,79.1z M31.2,74.4
	c-0.4-0.4-0.8-0.7-1.4-0.9c-0.5-0.2-1.1-0.3-1.7-0.3c-0.6,0-1.2,0.1-1.7,0.3c-0.5,0.2-1,0.5-1.4,0.9c-0.4,0.4-0.7,0.9-0.9,1.4
	c-0.2,0.5-0.3,1.1-0.3,1.8c0,0.7,0.1,1.2,0.3,1.8c0.2,0.5,0.5,1,0.9,1.4c0.4,0.4,0.8,0.7,1.4,0.9c0.5,0.2,1.1,0.3,1.7,0.3
	c0.6,0,1.2-0.1,1.7-0.3c0.5-0.2,1-0.5,1.4-0.9c0.4-0.4,0.7-0.9,0.9-1.4c0.2-0.5,0.3-1.1,0.3-1.8c0-0.7-0.1-1.3-0.3-1.8
	C31.8,75.3,31.5,74.8,31.2,74.4z"/>
</svg>
