<svg width="93" height="137" viewBox="0 0 93 137" fill="none" xmlns="http://www.w3.org/2000/svg">
<path fill-rule="evenodd" clip-rule="evenodd" d="M73.4278 69.1393L71.1642 80.3309H71.1578V80.3231C71.0717 80.6386 70.7882 80.8695 70.4472 80.8695C70.1609 80.8695 69.9116 80.7019 69.7889 80.46L69.7644 80.4803C69.1391 79.7542 68.4716 79.1413 67.7895 78.6419C66.6852 77.8539 65.4302 77.3093 64.0916 77.034C61.9876 76.6032 60.1817 76.9138 58.6339 77.945C57.0865 78.9752 56.0993 80.5767 55.6814 82.6972C55.2347 84.8116 55.5182 86.597 56.4745 88.1007C57.4343 89.6019 58.9327 90.5545 61.0025 90.9764C62.2461 91.2411 63.5346 91.2133 64.9223 90.9561C65.922 90.7512 67.0234 90.4115 68.2294 89.905L68.2348 89.9146C68.3372 89.8605 68.4446 89.8285 68.5648 89.8285C68.9766 89.8285 69.3059 90.1643 69.3059 90.5734C69.3059 90.61 69.3024 90.6545 69.2971 90.6929L69.2782 90.7672C69.2751 90.7765 69.2724 90.7863 69.2696 90.7963C69.2642 90.8154 69.2586 90.8351 69.2505 90.8533H69.2565L66.5803 102.156C66.5184 102.443 66.2908 102.66 66.0081 102.715C64.6638 102.943 63.338 103.052 62.0271 103.052C60.5601 103.052 59.1418 102.915 57.7388 102.638C56.0097 102.285 54.367 101.746 52.8416 101.018C51.3156 100.314 49.9528 99.4723 48.8055 98.4855C46.0087 96.0178 44.0861 93.2289 43.0434 90.1127C42.0039 87.0175 41.8314 83.6651 42.5601 80.057C43.0992 77.383 44.0648 75.017 45.4489 72.9043C46.8302 70.8137 48.5686 69.1123 50.6815 67.6922C52.8139 66.3148 55.1394 65.3963 57.6435 64.9744C60.1817 64.5298 62.7871 64.5992 65.5066 65.1619C66.9584 65.4408 68.3432 65.8929 69.7089 66.476C70.9209 67.0121 72.0781 67.6581 73.1881 68.4215C73.3446 68.5549 73.4466 68.7551 73.4466 68.9796C73.4466 69.0337 73.441 69.0874 73.4278 69.1393ZM35.0698 83.8707H21.3713L21.6231 82.1927H22.5246C23.0442 82.1927 23.3767 82.1461 23.5275 82.0665C23.6598 81.9928 23.7366 81.8384 23.7366 81.5759C24.0563 78.9766 24.481 75.8017 25.056 72.02C25.2036 70.9834 25.3493 69.9609 25.4929 68.9532L25.4934 68.9497C25.8705 66.3029 26.2332 63.758 26.5764 61.3282C27.0558 57.9897 27.3208 55.7938 27.3208 54.791C27.3208 54.4029 27.2713 54.1233 27.2222 53.9401C27.139 53.7615 26.9605 53.6573 26.681 53.6573H25.7392C23.5979 54.6573 21.5 55.4555 19.4113 56.0802C17.2736 56.7233 15.3659 57.0296 13.7172 57.0296C12.9234 57.0296 12.4067 56.5174 12.1759 55.5099C11.9326 54.5125 11.8128 53.377 11.8128 52.1647C11.8128 51.4216 12.2161 48.4032 13.0216 43.1288C13.8186 37.8409 14.2368 34.6223 14.2368 33.4466C14.2368 32.9543 14.1785 32.5655 14.1077 32.3296C13.9939 32.0764 13.7663 31.9497 13.4064 31.9497H11.6776H9.67181L9.10563 30.1682C11.4219 29.3988 13.7908 28.7823 16.2184 28.3124C18.6641 27.8791 20.7806 27.6422 22.5794 27.6422C23.1214 27.6422 23.3981 27.9588 23.3981 28.6052C23.3981 30.6591 22.9645 34.5469 22.0353 40.272C21.1373 46.0106 20.6724 49.5924 20.6724 51.0833C20.6724 51.4216 20.6938 51.8093 20.7528 52.2646C20.7806 52.7584 21.0295 52.9629 21.4908 52.9629C21.7308 52.9629 22.2906 52.811 23.2601 52.4987L23.3981 52.4429L23.6179 52.3674C24.0632 52.2143 24.5057 52.0622 24.955 51.9235L25.3644 51.7752V51.7894C26.5053 51.4415 27.6586 51.1555 28.8184 50.925C30.6737 50.5724 32.2919 50.3892 33.6789 50.3892C34.1003 50.3892 34.3037 50.6155 34.3037 51.0833V51.651C34.3037 52.631 34.255 53.5325 34.1775 54.3805C34.1003 55.2282 33.8883 56.5711 33.5284 58.47C34.691 56.1848 36.0574 54.2788 37.6048 52.7047C39.1458 51.1633 41.0004 50.3892 43.1325 50.3892C44.7417 50.3892 45.9043 51.0324 46.6953 52.3155C47.4706 53.6374 47.8518 55.1293 47.8518 56.8233C47.8518 61.467 46.4367 65.2238 43.6037 68.1091C40.7639 71.0179 37.5461 72.4597 33.9097 72.4597H31.597C31.4236 73.6988 31.2747 74.8332 31.1411 75.8505L31.141 75.8508C31.0775 76.3342 31.0175 76.7912 30.96 77.2204C30.7722 78.591 30.6922 79.6479 30.6922 80.4184C30.6922 81.243 30.7722 81.7538 30.96 81.9359C31.1385 82.0914 31.5468 82.1927 32.1873 82.1927H35.3002L35.0698 83.8707ZM93 1.33142C93 0.902059 92.6493 0.552734 92.2187 0.552734C92.1415 0.552734 92.0679 0.569809 91.9999 0.588307L25.3236 17.3908C25.3766 17.6679 25.3976 17.9475 25.3976 18.2431C25.3976 19.6109 24.7674 20.894 23.5152 22.0633C22.2879 23.2062 20.9215 23.8077 19.504 23.8077C18.3346 23.8077 17.378 23.431 16.6428 22.6893C15.9045 21.9569 15.5475 20.9986 15.5475 19.8585L0.590361 23.6263C0.248947 23.716 0 24.0155 0 24.3801C0 24.4559 0.00924662 24.5281 0.0337857 24.5985L0.0245391 24.6021L17.7599 113.124H69.4016L92.9723 1.52672C92.9904 1.46838 93 1.40079 93 1.33142ZM39.0441 66.7355C40.2505 64.0633 40.8465 61.4914 40.8465 59.0173C40.8465 57.9035 40.742 56.9309 40.4838 56.0509C40.2505 55.1982 39.7857 54.7678 39.0747 54.7678C37.5185 54.7678 36.0575 56.3358 34.6698 59.4787C33.2671 62.6482 32.3162 66.4082 31.824 70.7595H32.7042C35.7186 70.7595 37.8353 69.4163 39.0441 66.7355ZM75.3451 123.865C75.2896 123.968 75.2167 124.048 75.1452 124.099C75.0748 124.152 74.9859 124.177 74.8838 124.177C74.7636 124.177 74.6324 124.119 74.472 123.997C74.3151 123.881 74.1149 123.754 73.8781 123.611C73.6412 123.471 73.3521 123.345 73.0231 123.228C72.6849 123.106 72.282 123.05 71.8075 123.05C71.3616 123.05 70.9615 123.109 70.624 123.23C70.2847 123.351 69.9959 123.516 69.7654 123.72C69.5346 123.926 69.3654 124.171 69.2423 124.448C69.1285 124.73 69.0698 125.03 69.0698 125.354C69.0698 125.767 69.1715 126.105 69.3743 126.385C69.5777 126.655 69.8451 126.885 70.1801 127.079C70.5126 127.275 70.8914 127.441 71.3185 127.58L71.6774 127.701C71.9859 127.804 72.3006 127.91 72.6166 128.018C73.0597 128.168 73.4968 128.34 73.9175 128.533C74.3429 128.719 74.7177 128.961 75.0535 129.249C75.3917 129.535 75.6591 129.895 75.8625 130.313C76.0652 130.731 76.1677 131.249 76.1677 131.864C76.1677 132.51 76.0564 133.118 75.8348 133.685C75.6132 134.253 75.2932 134.747 74.8685 135.17C74.4503 135.59 73.9268 135.921 73.309 136.16C72.6909 136.403 71.9893 136.524 71.2051 136.524C70.2452 136.524 69.3678 136.347 68.5837 136.001C67.7995 135.655 67.1259 135.182 66.5686 134.588L67.1472 133.641C67.2027 133.562 67.2674 133.501 67.3503 133.45C67.4264 133.396 67.516 133.371 67.6121 133.371C67.7038 133.371 67.8052 133.407 67.919 133.477C68.0303 133.553 68.1594 133.642 68.3038 133.753C68.4489 133.864 68.6142 133.985 68.8027 134.113C68.9866 134.245 69.1993 134.368 69.4361 134.476C69.673 134.588 69.9404 134.678 70.248 134.748C70.5496 134.821 70.8914 134.861 71.2663 134.861C71.7428 134.861 72.1678 134.795 72.5369 134.664C72.9118 134.531 73.2287 134.348 73.4869 134.11C73.7426 133.873 73.9428 133.59 74.0815 133.257C74.2163 132.929 74.2846 132.558 74.2846 132.15C74.2846 131.704 74.1821 131.339 73.9823 131.054C73.7795 130.764 73.5093 130.526 73.1828 130.331C72.8474 130.141 72.4722 129.976 72.0451 129.845L71.895 129.797C71.516 129.675 71.1323 129.552 70.7435 129.431C70.3035 129.287 69.8668 129.122 69.439 128.94C69.0143 128.754 68.6331 128.511 68.3038 128.216C67.972 127.921 67.707 127.551 67.5036 127.105C67.3009 126.662 67.2027 126.11 67.2027 125.457C67.2027 124.934 67.3009 124.427 67.5036 123.938C67.707 123.448 68.005 123.014 68.3934 122.638C68.7839 122.259 69.2612 121.956 69.8291 121.726C70.396 121.503 71.0475 121.386 71.7865 121.386C72.6138 121.386 73.3674 121.515 74.0441 121.78C74.7177 122.04 75.3209 122.42 75.8348 122.916L75.3451 123.865ZM64.7967 136.524V134.838H58.3916V121.717H56.4011V136.524H64.7967ZM34.2461 133.489C34.6888 133.005 35.0303 132.41 35.2732 131.708C35.5132 131.01 35.6334 130.216 35.6334 129.331C35.6334 128.445 35.5132 127.646 35.2732 126.946C35.0303 126.241 34.6888 125.643 34.2461 125.162C33.8029 124.673 33.2677 124.3 32.6372 124.038C32.0059 123.78 31.3021 123.646 30.524 123.646C29.7515 123.646 29.0534 123.78 28.4228 124.038C27.7916 124.3 27.2535 124.673 26.8047 125.162C26.364 125.643 26.0194 126.241 25.7733 126.946C25.5336 127.646 25.417 128.445 25.417 129.331C25.417 130.216 25.5336 131.01 25.7733 131.708C26.0194 132.41 26.364 133.005 26.8047 133.489C27.2535 133.979 27.7916 134.348 28.4228 134.606C29.0534 134.866 29.7515 134.995 30.524 134.995C31.3021 134.995 32.0059 134.866 32.6372 134.606C33.2677 134.348 33.8029 133.979 34.2461 133.489ZM33.428 122.496C34.3011 122.858 35.049 123.37 35.6731 124.023C36.298 124.677 36.7774 125.456 37.122 126.355C37.4634 127.257 37.6391 128.251 37.6391 129.331C37.6391 130.41 37.4634 131.401 37.122 132.303C36.7774 133.204 36.298 133.985 35.6731 134.634C35.049 135.285 34.3011 135.788 33.428 136.147C32.551 136.507 31.5819 136.685 30.5238 136.685C29.4619 136.685 28.4988 136.507 27.6286 136.147C26.7519 135.788 26.0104 135.285 25.3823 134.634C24.7586 133.985 24.2788 133.204 23.9306 132.303C23.5928 131.401 23.4235 130.41 23.4235 129.331C23.4235 128.251 23.5928 127.257 23.9306 126.355C24.2788 125.456 24.7586 124.677 25.3823 124.023C26.0104 123.37 26.7519 122.858 27.6286 122.496C28.4988 122.139 29.4619 121.956 30.5238 121.956C31.5819 121.956 32.551 122.139 33.428 122.496ZM17.5907 129.365C17.1632 129.512 16.6767 129.584 16.1201 129.584H13.8067V123.654H16.1201C17.2677 123.654 18.1284 123.914 18.6981 124.427C19.2607 124.946 19.5499 125.662 19.5499 126.581C19.5499 127.022 19.4702 127.427 19.3258 127.798C19.1811 128.165 18.9592 128.482 18.6643 128.748C18.372 129.012 18.0149 129.216 17.5907 129.365ZM18.4952 122.432C17.8241 122.22 17.0311 122.112 16.1203 122.112H11.869V136.524H13.8068V131.136H16.1203C16.9877 131.136 17.7569 131.026 18.4277 130.799C19.0916 130.572 19.6518 130.258 20.1038 129.854C20.5565 129.456 20.9004 128.977 21.1376 128.419C21.3684 127.864 21.4886 127.25 21.4886 126.58C21.4886 125.905 21.3745 125.29 21.1625 124.738C20.9406 124.19 20.6116 123.72 20.1721 123.333C19.7286 122.943 19.1685 122.643 18.4952 122.432ZM51.3407 131.708C51.0982 132.41 50.7564 133.005 50.3133 133.489C49.8673 133.979 49.3292 134.348 48.7047 134.606C48.0706 134.866 47.3632 134.995 46.5883 134.995C45.8194 134.995 45.1174 134.866 44.4872 134.606C43.8563 134.348 43.3146 133.979 42.8747 133.489C42.4259 133.005 42.0845 132.41 41.8416 131.708C41.6008 131.01 41.4842 130.216 41.4842 129.331C41.4842 128.445 41.6008 127.646 41.8416 126.946C42.0845 126.241 42.4259 125.643 42.8747 125.162C43.3146 124.673 43.8563 124.3 44.4872 124.038C45.1174 123.78 45.8194 123.646 46.5883 123.646C47.3632 123.646 48.0706 123.78 48.7047 124.038C49.3292 124.3 49.8673 124.673 50.3133 125.162C50.7564 125.643 51.0982 126.241 51.3407 126.946C51.5811 127.646 51.7006 128.445 51.7006 129.331C51.7006 130.216 51.5811 131.01 51.3407 131.708ZM51.7407 124.023C51.1162 123.37 50.3654 122.858 49.4916 122.496C48.6185 122.139 47.6494 121.956 46.5882 121.956C45.5262 121.956 44.5607 122.139 43.6929 122.496C42.8226 122.858 42.0719 123.37 41.4506 124.023C40.8232 124.677 40.3463 125.456 40.001 126.355C39.6564 127.257 39.491 128.251 39.491 129.331C39.491 130.41 39.6564 131.401 40.001 132.303C40.3463 133.204 40.8232 133.985 41.4506 134.634C42.0719 135.285 42.8226 135.788 43.6929 136.147C44.5607 136.507 45.5262 136.685 46.5882 136.685C47.6494 136.685 48.6185 136.507 49.4916 136.147C50.3654 135.788 51.1162 135.285 51.7407 134.634C52.3623 133.985 52.8449 133.204 53.1867 132.303C53.5306 131.401 53.7002 130.41 53.7002 129.331C53.7002 128.251 53.5306 127.257 53.1867 126.355C52.8449 125.456 52.3623 124.677 51.7407 124.023Z" fill="#054172"/>
</svg>
