<svg width="56" height="83" viewBox="0 0 56 83" fill="none" xmlns="http://www.w3.org/2000/svg">
<path fill-rule="evenodd" clip-rule="evenodd" d="M44.2148 41.3539L42.8517 48.1017H42.8479V48.097C42.796 48.2872 42.6254 48.4264 42.42 48.4264C42.2476 48.4264 42.0975 48.3254 42.0236 48.1796L42.0088 48.1918C41.6324 47.754 41.2304 47.3845 40.8197 47.0833C40.1547 46.6083 39.399 46.2799 38.5929 46.1139C37.326 45.8541 36.2386 46.0414 35.3066 46.6632C34.3749 47.2843 33.7804 48.2499 33.5288 49.5285C33.2598 50.8033 33.4305 51.8798 34.0063 52.7865C34.5843 53.6916 35.4865 54.266 36.7328 54.5203C37.4817 54.6799 38.2576 54.6632 39.0932 54.5081C39.6952 54.3846 40.3584 54.1797 41.0846 53.8743L41.0878 53.8801C41.1494 53.8475 41.2141 53.8282 41.2865 53.8282C41.5345 53.8282 41.7328 54.0307 41.7328 54.2773C41.7328 54.2994 41.7306 54.3262 41.7274 54.3494L41.7161 54.3942C41.7142 54.3998 41.7126 54.4057 41.7109 54.4117C41.7077 54.4232 41.7043 54.4351 41.6994 54.4461H41.703L40.0916 61.2607C40.0543 61.434 39.9172 61.5646 39.747 61.5983C38.9375 61.7355 38.1392 61.8014 37.3498 61.8014C36.4664 61.8014 35.6124 61.7188 34.7676 61.5517C33.7264 61.3385 32.7373 61.0138 31.8188 60.5748C30.8999 60.1501 30.0793 59.6428 29.3884 59.0479C27.7044 57.56 26.5467 55.8784 25.9188 53.9996C25.2928 52.1334 25.189 50.1121 25.6278 47.9366C25.9524 46.3243 26.5338 44.8978 27.3673 43.6239C28.199 42.3634 29.2458 41.3376 30.518 40.4813C31.8021 39.6509 33.2024 39.0971 34.7102 38.8427C36.2386 38.5746 37.8074 38.6164 39.445 38.9557C40.3192 39.1239 41.1531 39.3965 41.9754 39.748C42.7052 40.0712 43.4021 40.4607 44.0704 40.921C44.1647 41.0015 44.2261 41.1222 44.2261 41.2576C44.2261 41.2902 44.2227 41.3225 44.2148 41.3539ZM21.1174 50.2359H12.8689L13.0205 49.2241H13.5633C13.8762 49.2241 14.0764 49.196 14.1672 49.148C14.2469 49.1036 14.2932 49.0105 14.2932 48.8522C14.4857 47.285 14.7414 45.3707 15.0876 43.0906L15.3507 41.2411C15.5779 39.6446 15.7964 38.1096 16.0031 36.6441C16.2918 34.6311 16.4513 33.3071 16.4513 32.7025C16.4513 32.4685 16.4216 32.2999 16.392 32.1895C16.3419 32.0818 16.2344 32.0189 16.0661 32.0189H15.499C14.2096 32.6219 12.9464 33.1032 11.6887 33.4798C10.4014 33.8676 9.25275 34.0522 8.25995 34.0522C7.78197 34.0522 7.47082 33.7434 7.33184 33.136C7.18536 32.5346 7.11319 31.8499 7.11319 31.119C7.11319 30.6709 7.35603 28.851 7.84108 25.6709C8.32099 22.4826 8.57282 20.542 8.57282 19.8331C8.57282 19.5362 8.5377 19.3018 8.49509 19.1596C8.42656 19.0069 8.28951 18.9305 8.07279 18.9305H7.03181H5.82402L5.48309 17.8564C6.87784 17.3925 8.30428 17.0208 9.76606 16.7375C11.2388 16.4762 12.5132 16.3334 13.5963 16.3334C13.9227 16.3334 14.0893 16.5243 14.0893 16.914C14.0893 18.1524 13.8282 20.4965 13.2687 23.9484C12.7279 27.4084 12.4481 29.5681 12.4481 30.4669C12.4481 30.6709 12.4609 30.9047 12.4965 31.1792C12.5132 31.477 12.6631 31.6003 12.9408 31.6003C13.0854 31.6003 13.4224 31.5087 14.0062 31.3204L14.0893 31.2867L14.2216 31.2412C14.4898 31.1489 14.7562 31.0572 15.0268 30.9736L15.2733 30.8841V30.8927C15.9603 30.6829 16.6548 30.5105 17.3531 30.3715C18.4703 30.159 19.4447 30.0485 20.2799 30.0485C20.5336 30.0485 20.6561 30.1849 20.6561 30.4669V30.8093C20.6561 31.4002 20.6268 31.9437 20.5801 32.455C20.5336 32.9661 20.406 33.7758 20.1893 34.9207C20.8894 33.5429 21.7121 32.3937 22.6439 31.4446C23.5718 30.5152 24.6886 30.0485 25.9724 30.0485C26.9414 30.0485 27.6414 30.4363 28.1177 31.2099C28.5846 32.0069 28.8141 32.9065 28.8141 33.9278C28.8141 36.7277 27.962 38.9929 26.2561 40.7325C24.5461 42.4864 22.6085 43.3557 20.4189 43.3557H19.0263C18.9219 44.1029 18.8322 44.787 18.7517 45.4005C18.7135 45.6919 18.6773 45.9673 18.6427 46.2261C18.5296 47.0525 18.4815 47.6897 18.4815 48.1543C18.4815 48.6515 18.5296 48.9595 18.6427 49.0693C18.7502 49.163 18.9961 49.2241 19.3817 49.2241H21.2562L21.1174 50.2359ZM56 0.469504C56 0.210622 55.7889 0 55.5295 0C55.483 0 55.4387 0.0102952 55.3978 0.0214483L15.2486 10.1523C15.2806 10.3194 15.2932 10.488 15.2932 10.6662C15.2932 11.4909 14.9137 12.2646 14.1597 12.9696C13.4207 13.6587 12.5979 14.0214 11.7443 14.0214C11.0402 14.0214 10.4641 13.7943 10.0215 13.3471C9.57693 12.9054 9.36192 12.3276 9.36192 11.6402L0.355486 13.912C0.149904 13.9661 0 14.1467 0 14.3665C0 14.4122 0.00556786 14.4557 0.0203441 14.4982L0.0147762 14.5003L10.6941 67.8736H41.7902L55.9833 0.587255C55.9942 0.55208 56 0.511328 56 0.469504ZM23.5103 39.9043C24.2367 38.2931 24.5956 36.7424 24.5956 35.2506C24.5956 34.5791 24.5326 33.9927 24.3771 33.4621C24.2367 32.948 23.9568 32.6884 23.5287 32.6884C22.5916 32.6884 21.7119 33.6339 20.8762 35.5288C20.0316 37.4399 19.459 39.707 19.1626 42.3305H19.6927C21.5078 42.3305 22.7824 41.5206 23.5103 39.9043ZM45.369 74.3498C45.3356 74.4122 45.2917 74.4605 45.2487 74.4909C45.2063 74.5229 45.1527 74.5383 45.0913 74.5383C45.0189 74.5383 44.9399 74.5032 44.8433 74.4298C44.7489 74.3595 44.6283 74.2831 44.4857 74.1969C44.343 74.1124 44.1689 74.0364 43.9709 73.9661C43.7672 73.8923 43.5246 73.8584 43.2389 73.8584C42.9704 73.8584 42.7294 73.8944 42.5262 73.9669C42.3219 74.0403 42.148 74.1396 42.0093 74.2627C41.8703 74.3871 41.7683 74.5345 41.6942 74.7018C41.6257 74.8714 41.5904 75.0522 41.5904 75.2478C41.5904 75.4969 41.6516 75.7008 41.7737 75.8696C41.8962 76.0322 42.0572 76.1712 42.259 76.2877C42.4592 76.4058 42.6873 76.506 42.9444 76.5901L43.1604 76.6628C43.3462 76.7253 43.5358 76.789 43.7261 76.8541C43.9929 76.9446 44.2561 77.0484 44.5094 77.1645C44.7656 77.2766 44.9913 77.4225 45.1934 77.596C45.3971 77.7689 45.5581 77.9855 45.6806 78.2377C45.8027 78.49 45.8644 78.802 45.8644 79.1727C45.8644 79.5624 45.7973 79.9289 45.6639 80.271C45.5305 80.6133 45.3378 80.9113 45.0821 81.1663C44.8302 81.4198 44.515 81.6189 44.143 81.763C43.7708 81.9095 43.3483 81.9828 42.8761 81.9828C42.2981 81.9828 41.7698 81.876 41.2976 81.6673C40.8254 81.4588 40.4199 81.1738 40.0843 80.8156L40.4327 80.2442C40.4661 80.197 40.5051 80.1597 40.555 80.129C40.6008 80.0969 40.6548 80.0819 40.7126 80.0819C40.7678 80.0819 40.8289 80.1035 40.8974 80.1458C40.9644 80.191 41.0422 80.2451 41.1291 80.3118C41.2165 80.3787 41.3161 80.4521 41.4296 80.5293C41.5403 80.6088 41.6683 80.6828 41.811 80.7478C41.9536 80.8156 42.1146 80.8697 42.2999 80.9121C42.4815 80.9557 42.6873 80.9799 42.913 80.9799C43.1999 80.9799 43.4558 80.9402 43.6781 80.8613C43.9038 80.7813 44.0946 80.6708 44.2501 80.5271C44.4041 80.3843 44.5246 80.2138 44.6082 80.0126C44.6893 79.8148 44.7304 79.5911 44.7304 79.3453C44.7304 79.0764 44.6688 78.8565 44.5484 78.6843C44.4263 78.5097 44.2636 78.366 44.067 78.2487C43.8651 78.1339 43.6391 78.0346 43.382 77.9557L43.292 77.9268C43.0636 77.8533 42.8325 77.779 42.5982 77.706C42.3333 77.6189 42.0703 77.5196 41.8127 77.41C41.557 77.2981 41.3274 77.1516 41.1291 76.9734C40.9293 76.7953 40.7698 76.5725 40.6473 76.3035C40.5252 76.0363 40.4661 75.7036 40.4661 75.31C40.4661 74.9945 40.5252 74.6887 40.6473 74.3938C40.7698 74.0984 40.9492 73.837 41.1831 73.61C41.4182 73.3816 41.7056 73.1991 42.0476 73.0603C42.3889 72.9258 42.7813 72.8555 43.2263 72.8555C43.7244 72.8555 44.1782 72.9333 44.5857 73.0931C44.9913 73.2497 45.3545 73.4788 45.6639 73.7776L45.369 74.3498ZM39.0173 81.9825V80.9659H35.1605V73.0547H33.9619V81.9825H39.0173ZM20.621 80.1528C20.8876 79.8611 21.0932 79.5023 21.2394 79.0791C21.384 78.6581 21.4564 78.1798 21.4564 77.6459C21.4564 77.1119 21.384 76.6301 21.2394 76.2083C21.0932 75.7832 20.8876 75.4224 20.621 75.1322C20.3541 74.8373 20.0318 74.6127 19.6522 74.4544C19.272 74.2994 18.8482 74.2185 18.3797 74.2185C17.9146 74.2185 17.4942 74.2994 17.1145 74.4544C16.7344 74.6127 16.4104 74.8373 16.1401 75.1322C15.8748 75.4224 15.6673 75.7832 15.5191 76.2083C15.3748 76.6301 15.3045 77.1119 15.3045 77.6459C15.3045 78.1798 15.3748 78.6581 15.5191 79.0791C15.6673 79.5023 15.8748 79.8611 16.1401 80.1528C16.4104 80.4486 16.7344 80.671 17.1145 80.8263C17.4942 80.9831 17.9146 81.0609 18.3797 81.0609C18.8482 81.0609 19.272 80.9831 19.6522 80.8263C20.0318 80.671 20.3541 80.4486 20.621 80.1528ZM20.1285 73.525C20.6542 73.7433 21.1046 74.0517 21.4804 74.4458C21.8567 74.84 22.1453 75.3093 22.3528 75.8517C22.5584 76.3954 22.6642 76.9949 22.6642 77.6458C22.6642 78.2966 22.5584 78.8939 22.3528 79.4381C22.1453 79.9809 21.8567 80.4521 21.4804 80.8436C21.1046 81.2361 20.6542 81.5394 20.1285 81.7556C19.6004 81.9724 19.0168 82.0801 18.3797 82.0801C17.7403 82.0801 17.1604 81.9724 16.6364 81.7556C16.1085 81.5394 15.662 81.2361 15.2838 80.8436C14.9082 80.4521 14.6193 79.9809 14.4096 79.4381C14.2062 78.8939 14.1043 78.2966 14.1043 77.6458C14.1043 76.9949 14.2062 76.3954 14.4096 75.8517C14.6193 75.3093 14.9082 74.84 15.2838 74.4458C15.662 74.0517 16.1085 73.7433 16.6364 73.525C17.1604 73.3094 17.7403 73.1992 18.3797 73.1992C19.0168 73.1992 19.6004 73.3094 20.1285 73.525ZM10.5924 77.6662C10.335 77.7545 10.042 77.7981 9.70686 77.7981H8.31382V74.2226H9.70686C10.3979 74.2226 10.9162 74.3796 11.2592 74.6885C11.598 75.0018 11.7721 75.4334 11.7721 75.9872C11.7721 76.2536 11.7241 76.4974 11.6372 76.7211C11.55 76.9427 11.4164 77.1336 11.2389 77.294C11.0628 77.453 10.8478 77.5761 10.5924 77.6662ZM11.1369 73.4861C10.7328 73.358 10.2553 73.293 9.70685 73.293H7.14692V81.9826H8.31382V78.7338H9.70685C10.2292 78.7338 10.6924 78.6673 11.0962 78.5307C11.4961 78.3941 11.8333 78.2047 12.1055 77.9611C12.3781 77.721 12.5852 77.4324 12.7281 77.0956C12.867 76.7608 12.9394 76.3908 12.9394 75.9872C12.9394 75.5799 12.8707 75.2088 12.743 74.8766C12.6094 74.5456 12.4113 74.2625 12.1466 74.0292C11.8796 73.7941 11.5423 73.6131 11.1369 73.4861ZM30.9149 79.0791C30.7688 79.5023 30.563 79.8611 30.2962 80.1528C30.0276 80.4486 29.7036 80.671 29.3276 80.8263C28.9458 80.9831 28.5198 81.0609 28.0532 81.0609C27.5902 81.0609 27.1675 80.9831 26.788 80.8263C26.4081 80.671 26.082 80.4486 25.8171 80.1528C25.5468 79.8611 25.3412 79.5023 25.195 79.0791C25.05 78.6581 24.9797 78.1798 24.9797 77.6459C24.9797 77.1119 25.05 76.6301 25.195 76.2083C25.3412 75.7832 25.5468 75.4224 25.8171 75.1322C26.082 74.8373 26.4081 74.6127 26.788 74.4544C27.1675 74.2994 27.5902 74.2185 28.0532 74.2185C28.5198 74.2185 28.9458 74.2994 29.3276 74.4544C29.7036 74.6127 30.0276 74.8373 30.2962 75.1322C30.563 75.4224 30.7688 75.7832 30.9149 76.2083C31.0596 76.6301 31.1316 77.1119 31.1316 77.6459C31.1316 78.1798 31.0596 78.6581 30.9149 79.0791ZM31.1555 74.4458C30.7795 74.0517 30.3274 73.7433 29.8013 73.525C29.2755 73.3094 28.692 73.1992 28.053 73.1992C27.4135 73.1992 26.8321 73.3094 26.3096 73.525C25.7855 73.7433 25.3335 74.0517 24.9594 74.4458C24.5816 74.84 24.2944 75.3093 24.0865 75.8517C23.879 76.3954 23.7794 76.9949 23.7794 77.6458C23.7794 78.2966 23.879 78.8939 24.0865 79.4381C24.2944 79.9809 24.5816 80.4521 24.9594 80.8436C25.3335 81.2361 25.7855 81.5394 26.3096 81.7556C26.8321 81.9724 27.4135 82.0801 28.053 82.0801C28.692 82.0801 29.2755 81.9724 29.8013 81.7556C30.3274 81.5394 30.7795 81.2361 31.1555 80.8436C31.5299 80.4521 31.8205 79.9809 32.0263 79.4381C32.2333 78.8939 32.3355 78.2966 32.3355 77.6458C32.3355 76.9949 32.2333 76.3954 32.0263 75.8517C31.8205 75.3093 31.5299 74.84 31.1555 74.4458Z" fill="white"/>
</svg>
