<?xml version="1.0" encoding="utf-8"?>
<!-- Generator: Adobe Illustrator 21.0.2, SVG Export Plug-In . SVG Version: 6.00 Build 0)  -->
<svg version="1.1" id="footer" xmlns="http://www.w3.org/2000/svg" xmlns:xlink="http://www.w3.org/1999/xlink" x="0px" y="0px"
	 viewBox="0 0 55 55" style="enable-background:new 0 0 55 55;" xml:space="preserve">
<style type="text/css">
	.st0{fill:#FFFFFF;}
	.st1{fill:#274370;}
	.st2{fill:#324D77;}
	.st3{fill-rule:evenodd;clip-rule:evenodd;fill:#FFFFFF;}
	.st4{clip-path:url(#SVGID_4_);}
	.st5{clip-path:url(#SVGID_8_);fill:#F9FAFF;}
	.st6{clip-path:url(#SVGID_12_);}
	.st7{clip-path:url(#SVGID_16_);fill:#F9FAFF;}
	.st8{fill-rule:evenodd;clip-rule:evenodd;fill:#F9FAFF;}
	.st9{fill:#F9FAFF;}
	.st10{fill-rule:evenodd;clip-rule:evenodd;fill:#FBFBFD;}
	.st11{fill:#767676;}
	.st12{clip-path:url(#SVGID_18_);}
	.st13{clip-path:url(#SVGID_22_);}
	.st14{clip-path:url(#SVGID_24_);fill:#4070DE;}
	.st15{clip-path:url(#SVGID_26_);}
	.st16{clip-path:url(#SVGID_30_);}
	.st17{clip-path:url(#SVGID_34_);}
	.st18{clip-path:url(#SVGID_36_);fill:#4070DE;}
	.st19{clip-path:url(#SVGID_38_);}
	.st20{clip-path:url(#SVGID_42_);}
	.st21{clip-path:url(#SVGID_45_);}
	.st22{clip-path:url(#SVGID_46_);fill:#4070DE;}
	.st23{clip-path:url(#SVGID_47_);}
	.st24{fill-rule:evenodd;clip-rule:evenodd;fill:#4070DE;}
	.st25{clip-path:url(#SVGID_50_);}
	.st26{clip-path:url(#SVGID_52_);fill:#FDFEFE;}
	.st27{clip-path:url(#SVGID_54_);}
	.st28{clip-path:url(#SVGID_56_);fill:#FDFEFE;}
	.st29{clip-path:url(#SVGID_58_);}
	.st30{clip-path:url(#SVGID_62_);}
	.st31{clip-path:url(#SVGID_64_);fill:#767676;}
	.st32{clip-path:url(#SVGID_66_);}
	.st33{clip-path:url(#SVGID_69_);}
	.st34{clip-path:url(#SVGID_70_);fill:#FDFEFE;}
	.st35{clip-path:url(#SVGID_71_);}
	.st36{clip-path:url(#SVGID_72_);fill:#FDFEFE;}
	.st37{clip-path:url(#SVGID_76_);fill-rule:evenodd;clip-rule:evenodd;fill:#FFFFFF;}
	.st38{clip-path:url(#SVGID_78_);}
	.st39{clip-path:url(#SVGID_80_);fill:#FFFFFF;}
	.st40{clip-path:url(#SVGID_82_);}
	.st41{clip-path:url(#SVGID_84_);enable-background:new    ;}
	.st42{clip-path:url(#SVGID_86_);}
	.st43{clip-path:url(#SVGID_88_);fill:#767676;}
	.st44{clip-path:url(#SVGID_88_);}
	.st45{clip-path:url(#SVGID_92_);}
	.st46{clip-path:url(#SVGID_94_);fill:#4070DE;}
	.st47{clip-path:url(#SVGID_98_);fill-rule:evenodd;clip-rule:evenodd;fill:#FFFFFF;}
	.st48{clip-path:url(#SVGID_100_);}
	.st49{clip-path:url(#SVGID_102_);fill:#FFFFFF;}
	.st50{clip-path:url(#SVGID_104_);}
	.st51{clip-path:url(#SVGID_106_);enable-background:new    ;}
	.st52{clip-path:url(#SVGID_108_);}
	.st53{clip-path:url(#SVGID_110_);fill:#767676;}
	.st54{clip-path:url(#SVGID_110_);}
	.st55{clip-path:url(#SVGID_114_);}
	.st56{clip-path:url(#SVGID_116_);fill:#4070DE;}
</style>
<g id="prefooter">
	<g>
		<g>
			<defs>
				<path id="SVGID_57_" d="M43.5,11.5h-32c-2.9,0-5.3,2.4-5.3,5.3v21.3c0,2.9,2.4,5.3,5.3,5.3h32c2.9,0,5.3-2.4,5.3-5.3V16.8
					C48.8,13.9,46.4,11.5,43.5,11.5z M44.8,14.2L27.5,27.5L10.2,14.2H44.8z M8.8,38.2V16.8l12,9.3L9,38.9
					C8.9,38.7,8.8,38.4,8.8,38.2z M10.9,40.8l12-12.8l4.6,3.4l4.4-3.5l12.2,12.8C43.9,40.8,11.1,40.8,10.9,40.8z M46.2,38.2
					c0,0.3-0.1,0.5-0.1,0.8L34.2,26.2l12-9.3V38.2z"/>
			</defs>
			<clipPath id="SVGID_4_">
				<use xlink:href="#SVGID_57_"  style="overflow:visible;"/>
			</clipPath>
			<g class="st4">
				<defs>
					<rect id="SVGID_59_" x="-1256.5" y="-4876.5" width="1706.7" height="5438.7"/>
				</defs>
				<clipPath id="SVGID_8_">
					<use xlink:href="#SVGID_59_"  style="overflow:visible;"/>
				</clipPath>
			</g>
		</g>
		<g>
			<defs>
				<path id="SVGID_61_" d="M43.5,11.5h-32c-2.9,0-5.3,2.4-5.3,5.3v21.3c0,2.9,2.4,5.3,5.3,5.3h32c2.9,0,5.3-2.4,5.3-5.3V16.8
					C48.8,13.9,46.4,11.5,43.5,11.5z M44.8,14.2L27.5,27.5L10.2,14.2H44.8z M8.8,38.2V16.8l12,9.3L9,38.9
					C8.9,38.7,8.8,38.4,8.8,38.2z M10.9,40.8l12-12.8l4.6,3.4l4.4-3.5l12.2,12.8C43.9,40.8,11.1,40.8,10.9,40.8z M46.2,38.2
					c0,0.3-0.1,0.5-0.1,0.8L34.2,26.2l12-9.3V38.2z"/>
			</defs>
			<use xlink:href="#SVGID_61_"  style="overflow:visible;fill-rule:evenodd;clip-rule:evenodd;fill:#767676;"/>
			<clipPath id="SVGID_12_">
				<use xlink:href="#SVGID_61_"  style="overflow:visible;"/>
			</clipPath>
			<g class="st6">
				<defs>
					<rect id="SVGID_63_" x="-1256.5" y="-4876.5" width="1706.7" height="5438.7"/>
				</defs>
				<use xlink:href="#SVGID_63_"  style="overflow:visible;fill:#767676;"/>
				<clipPath id="SVGID_16_">
					<use xlink:href="#SVGID_63_"  style="overflow:visible;"/>
				</clipPath>
				<rect x="-0.5" y="4.8" style="clip-path:url(#SVGID_16_);fill:#767676;" width="56" height="45.3"/>
			</g>
		</g>
		<g>
			<defs>
				<path id="SVGID_65_" d="M43.5,11.5h-32c-2.9,0-5.3,2.4-5.3,5.3v21.3c0,2.9,2.4,5.3,5.3,5.3h32c2.9,0,5.3-2.4,5.3-5.3V16.8
					C48.8,13.9,46.4,11.5,43.5,11.5z M44.8,14.2L27.5,27.5L10.2,14.2H44.8z M8.8,38.2V16.8l12,9.3L9,38.9
					C8.9,38.7,8.8,38.4,8.8,38.2z M10.9,40.8l12-12.8l4.6,3.4l4.4-3.5l12.2,12.8C43.9,40.8,11.1,40.8,10.9,40.8z M46.2,38.2
					c0,0.3-0.1,0.5-0.1,0.8L34.2,26.2l12-9.3V38.2z"/>
			</defs>
			<clipPath id="SVGID_18_">
				<use xlink:href="#SVGID_65_"  style="overflow:visible;"/>
			</clipPath>
			<g class="st12">
				<defs>
					<rect id="SVGID_67_" x="-1256.5" y="-4876.5" width="1706.7" height="5438.7"/>
				</defs>
				<clipPath id="SVGID_20_">
					<use xlink:href="#SVGID_67_"  style="overflow:visible;"/>
				</clipPath>
			</g>
		</g>
	</g>
	<g>
		<defs>
			<path id="SVGID_5_" d="M1495.5,2585.9h-36c-3.3,0-6,2.7-6,6v24c0,3.3,2.7,6,6,6h36c3.3,0,6-2.7,6-6v-24
				C1501.5,2588.5,1498.8,2585.9,1495.5,2585.9z M1497,2588.9l-19.5,15l-19.5-15H1497z M1456.5,2615.9v-24l13.5,10.5l-13.4,14.4
				C1456.6,2616.4,1456.5,2616.2,1456.5,2615.9z M1458.8,2618.8l13.5-14.4l5.1,3.9l4.9-3.9l13.8,14.4
				C1496,2618.8,1459,2618.8,1458.8,2618.8z M1498.5,2615.9c0,0.3-0.1,0.6-0.1,0.9l-13.4-14.4l13.5-10.5V2615.9z"/>
		</defs>
		<use xlink:href="#SVGID_5_"  style="overflow:visible;fill-rule:evenodd;clip-rule:evenodd;fill:#FDFEFE;"/>
		<clipPath id="SVGID_22_">
			<use xlink:href="#SVGID_5_"  style="overflow:visible;"/>
		</clipPath>
		<g class="st13">
			<defs>
				<rect id="SVGID_7_" x="33" y="-2913.1" width="1920" height="6118.5"/>
			</defs>
			<use xlink:href="#SVGID_7_"  style="overflow:visible;fill:#FDFEFE;"/>
			<clipPath id="SVGID_24_">
				<use xlink:href="#SVGID_7_"  style="overflow:visible;"/>
			</clipPath>
		</g>
	</g>
	<g>
		<defs>
			<path id="SVGID_1_" d="M519.5,2397.9h-36c-3.3,0-6,2.7-6,6v24c0,3.3,2.7,6,6,6h36c3.3,0,6-2.7,6-6v-24
				C525.5,2400.5,522.8,2397.9,519.5,2397.9z M521,2400.9l-19.5,15l-19.5-15H521z M480.5,2427.9v-24l13.5,10.5l-13.4,14.4
				C480.6,2428.4,480.5,2428.2,480.5,2427.9z M482.8,2430.8l13.5-14.4l5.1,3.9l4.9-3.9l13.8,14.4
				C520,2430.8,483,2430.8,482.8,2430.8z M522.5,2427.9c0,0.3-0.1,0.6-0.1,0.9l-13.4-14.4l13.5-10.5V2427.9z"/>
		</defs>
		<use xlink:href="#SVGID_1_"  style="overflow:visible;fill-rule:evenodd;clip-rule:evenodd;fill:#FDFEFE;"/>
		<clipPath id="SVGID_26_">
			<use xlink:href="#SVGID_1_"  style="overflow:visible;"/>
		</clipPath>
		<g class="st15">
			<defs>
				<rect id="SVGID_2_" x="-943" y="-3101.1" width="1920" height="6118.5"/>
			</defs>
			<use xlink:href="#SVGID_2_"  style="overflow:visible;fill:#FDFEFE;"/>
			<clipPath id="SVGID_28_">
				<use xlink:href="#SVGID_2_"  style="overflow:visible;"/>
			</clipPath>
		</g>
	</g>
</g>
<g id="bloque">
</g>
</svg>
