<?xml version="1.0" encoding="UTF-8"?> <!-- Generator: Adobe Illustrator 21.1.0, SVG Export Plug-In . SVG Version: 6.00 Build 0) --> <svg xmlns="http://www.w3.org/2000/svg" xmlns:xlink="http://www.w3.org/1999/xlink" version="1.1" id="Layer_1" x="0px" y="0px" viewBox="0 0 33.6 33.8" style="enable-background:new 0 0 33.6 33.8;" xml:space="preserve"> <style type="text/css"> .st0{fill-rule:evenodd;clip-rule:evenodd;fill:none;} .st1{fill-rule:evenodd;clip-rule:evenodd;fill:#3A6FB7;} </style> <path class="st0" d="M17.4,0.9c-6.6,0-12,5.4-12,12c0,5,10,20,12,20c2,0,12-15,12-20C29.4,6.2,24,0.9,17.4,0.9z M17.4,29.9 c-1.7,0-10-12.8-10-17c0-5.5,4.5-10,10-10s10,4.5,10,10C27.4,17,19,29.9,17.4,29.9z M17.4,7.9c-2.8,0-5,2.2-5,5s2.2,5,5,5s5-2.2,5-5 S20.1,7.9,17.4,7.9z M17.4,15.9c-1.7,0-3-1.3-3-3s1.3-3,3-3s3,1.3,3,3S19,15.9,17.4,15.9z"></path> <path class="st1" d="M17.4,0.9c-6.6,0-12,5.4-12,12c0,5,10,20,12,20c2,0,12-15,12-20C29.4,6.2,24,0.9,17.4,0.9z M17.4,29.9 c-1.7,0-10-12.8-10-17c0-5.5,4.5-10,10-10s10,4.5,10,10C27.4,17,19,29.9,17.4,29.9z M17.4,7.9c-2.8,0-5,2.2-5,5s2.2,5,5,5s5-2.2,5-5 S20.1,7.9,17.4,7.9z M17.4,15.9c-1.7,0-3-1.3-3-3s1.3-3,3-3s3,1.3,3,3S19,15.9,17.4,15.9z"></path> </svg> 