<svg width="56" height="56" viewBox="0 0 56 56" fill="none" xmlns="http://www.w3.org/2000/svg">
<path fill-rule="evenodd" clip-rule="evenodd" d="M8.16663 24.0748C8.16663 13.3418 17.1357 4.66669 27.9847 4.66669C38.8642 4.66669 47.8333 13.3418 47.8333 24.0748C47.8333 29.4833 45.8663 34.5045 42.6288 38.7604C39.0572 43.4549 34.655 47.5451 29.6999 50.7557C28.5658 51.4977 27.5423 51.5537 26.2977 50.7557C21.3143 47.5451 16.9122 43.4549 13.3711 38.7604C10.1313 34.5045 8.16663 29.4833 8.16663 24.0748ZM21.4532 24.6791C21.4532 28.2747 24.3872 31.1026 27.9847 31.1026C31.5845 31.1026 34.5468 28.2747 34.5468 24.6791C34.5468 21.1115 31.5845 18.146 27.9847 18.146C24.3872 18.146 21.4532 21.1115 21.4532 24.6791Z" fill="#054172"/>
</svg>
