<?xml version="1.0" encoding="UTF-8"?> <!-- Generator: Adobe Illustrator 21.1.0, SVG Export Plug-In . SVG Version: 6.00 Build 0) --> <svg xmlns="http://www.w3.org/2000/svg" xmlns:xlink="http://www.w3.org/1999/xlink" version="1.1" id="Layer_1" x="0px" y="0px" viewBox="0 0 33.6 33.8" style="enable-background:new 0 0 33.6 33.8;" xml:space="preserve"> <style type="text/css"> .st0{fill-rule:evenodd;clip-rule:evenodd;fill:#386FB7;} </style> <path class="st0" d="M31.8,4.3l-3-3c-0.8-0.8-2.1-0.8-3,0l-4.4,5.9c-0.7,1-0.8,2.1,0,3l1.8,1.8c-1.3,1.8-3,3.8-4.8,5.6 c-2.1,2-4.3,3.9-6.4,5.4l-1.8-1.7c-0.8-0.8-2-0.7-3,0l-5.9,4.4c-1,0.7-0.8,2.1,0,3l3,3c1.6,1.6,3.8,1.1,5.9,0c0,0,6.5-3.7,12.1-9.2 c5.3-5.3,9.3-12.2,9.3-12.2C32.6,7.9,33.4,5.9,31.8,4.3z M30.3,8.7c-1.7,3.3-5.6,8.4-8.9,11.8c-3.7,4.1-12.6,9.6-12.6,9.6 c-0.7,0.4-2.6,0.4-3.1-0.1l-1.9-1.9c-0.4-0.7-0.6-1.4,0-1.9l3.8-2.8c0.6-0.4,1.4-0.5,1.9,0l2.3,2.3c0.5-0.4,9.3-6.1,14.1-14 l-2.4-2.4c-0.5-0.5-0.4-1.2,0-1.9l2.8-3.8c0.5-0.7,1.4-0.5,1.9,0l1.9,1.9C30.9,6.4,30.7,8,30.3,8.7z"></path> </svg> 