<?xml version="1.0" encoding="utf-8"?>
<!-- Generator: Adobe Illustrator 21.0.2, SVG Export Plug-In . SVG Version: 6.00 Build 0)  -->
<svg version="1.1" id="footer" xmlns="http://www.w3.org/2000/svg" xmlns:xlink="http://www.w3.org/1999/xlink" x="0px" y="0px"
	 viewBox="0 0 55 55" style="enable-background:new 0 0 55 55;" xml:space="preserve">
<style type="text/css">
	.st0{fill:#FFFFFF;}
	.st1{fill:#274370;}
	.st2{fill:#324D77;}
	.st3{fill-rule:evenodd;clip-rule:evenodd;fill:#FFFFFF;}
	.st4{clip-path:url(#SVGID_2_);}
	.st5{clip-path:url(#SVGID_4_);fill:#F9FAFF;}
	.st6{clip-path:url(#SVGID_6_);}
	.st7{clip-path:url(#SVGID_8_);fill:#F9FAFF;}
	.st8{fill-rule:evenodd;clip-rule:evenodd;fill:#F9FAFF;}
	.st9{fill:#F9FAFF;}
	.st10{fill-rule:evenodd;clip-rule:evenodd;fill:#FBFBFD;}
	.st11{fill:#767676;}
	.st12{clip-path:url(#SVGID_10_);}
	.st13{clip-path:url(#SVGID_14_);}
	.st14{clip-path:url(#SVGID_16_);fill:#4070DE;}
	.st15{clip-path:url(#SVGID_18_);}
	.st16{clip-path:url(#SVGID_22_);}
	.st17{clip-path:url(#SVGID_26_);}
	.st18{clip-path:url(#SVGID_28_);fill:#4070DE;}
	.st19{clip-path:url(#SVGID_30_);}
	.st20{clip-path:url(#SVGID_34_);}
	.st21{clip-path:url(#SVGID_38_);}
	.st22{clip-path:url(#SVGID_40_);fill:#4070DE;}
	.st23{clip-path:url(#SVGID_42_);}
	.st24{fill-rule:evenodd;clip-rule:evenodd;fill:#4070DE;}
	.st25{clip-path:url(#SVGID_46_);}
	.st26{clip-path:url(#SVGID_48_);fill:#FDFEFE;}
	.st27{clip-path:url(#SVGID_50_);}
	.st28{clip-path:url(#SVGID_52_);fill:#FDFEFE;}
	.st29{clip-path:url(#SVGID_56_);fill-rule:evenodd;clip-rule:evenodd;fill:#FFFFFF;}
	.st30{clip-path:url(#SVGID_58_);}
	.st31{clip-path:url(#SVGID_60_);fill:#FFFFFF;}
	.st32{clip-path:url(#SVGID_62_);}
	.st33{clip-path:url(#SVGID_64_);enable-background:new    ;}
	.st34{clip-path:url(#SVGID_66_);}
	.st35{clip-path:url(#SVGID_68_);fill:#767676;}
	.st36{clip-path:url(#SVGID_68_);}
	.st37{clip-path:url(#SVGID_72_);}
	.st38{clip-path:url(#SVGID_74_);fill:#4070DE;}
	.st39{clip-path:url(#SVGID_78_);fill-rule:evenodd;clip-rule:evenodd;fill:#FFFFFF;}
	.st40{clip-path:url(#SVGID_80_);}
	.st41{clip-path:url(#SVGID_82_);fill:#FFFFFF;}
	.st42{clip-path:url(#SVGID_84_);}
	.st43{clip-path:url(#SVGID_86_);enable-background:new    ;}
	.st44{clip-path:url(#SVGID_88_);}
	.st45{clip-path:url(#SVGID_90_);fill:#767676;}
	.st46{clip-path:url(#SVGID_90_);}
	.st47{clip-path:url(#SVGID_94_);}
	.st48{clip-path:url(#SVGID_96_);fill:#4070DE;}
</style>
<g id="prefooter">
	<path class="st11" d="M51.9,41.6h-1.3c-2.1,0-3.7-0.7-4.5-1.4c-0.7-0.7-1.6-1.1-2.6-1.1h-1.3c-1,0-1.8,0.5-2.6,1.1
		c-0.8,0.8-2.4,1.4-4.5,1.4c-2.1,0-3.7-0.7-4.5-1.4c-0.7-0.7-1.6-1.1-2.6-1.1h-1.3c-1,0-1.8,0.5-2.6,1.1c-0.8,0.8-2.4,1.4-4.5,1.4
		s-3.7-0.7-4.5-1.4c-0.7-0.7-1.6-1.1-2.6-1.1h-1.3c-1,0-1.8,0.5-2.6,1.1C8,41,6.4,41.6,4.4,41.6H3.1c-0.7,0-1.3,0.6-1.3,1.3v1.3
		c0,0.7,0.6,1.3,1.3,1.3h1.3c3.1,0,5.8-1,7.7-2.6c1.9,1.6,4.6,2.6,7.7,2.6s5.8-1,7.7-2.6c1.9,1.6,4.6,2.6,7.7,2.6
		c3.1,0,5.8-1,7.7-2.6c1.9,1.6,4.6,2.6,7.7,2.6h1.3c0.7,0,1.3-0.6,1.3-1.3v-1.3C53.2,42.2,52.6,41.6,51.9,41.6z M19.1,39v-8.9h16.7
		V39c1.1-0.1,1.9-0.5,2.1-0.7c0.5-0.5,1.1-0.9,1.7-1.2V16.6c0-1.8,1.4-3.2,3.2-3.2s3.2,1.4,3.2,3.2v1.9c0,0.7,0.6,1.3,1.3,1.3h1.3
		c0.7,0,1.3-0.6,1.3-1.3v-1.9c0-3.9-3.2-7.1-7.1-7.1s-7.1,3.2-7.1,7.1v9.6H19.1v-9.6c0-1.8,1.4-3.2,3.2-3.2s3.2,1.4,3.2,3.2v1.9
		c0,0.7,0.6,1.3,1.3,1.3h1.3c0.7,0,1.3-0.6,1.3-1.3v-1.9c0-3.9-3.2-7.1-7.1-7.1s-7.1,3.2-7.1,7.1v20.6c0.6,0.3,1.2,0.7,1.7,1.2
		C17.3,38.5,18,38.9,19.1,39z"/>
</g>
<g id="bloque">
</g>
</svg>
