<?xml version="1.0" encoding="utf-8"?>
<!-- Generator: Adobe Illustrator 21.0.2, SVG Export Plug-In . SVG Version: 6.00 Build 0)  -->
<svg version="1.1" id="footer" xmlns="http://www.w3.org/2000/svg" xmlns:xlink="http://www.w3.org/1999/xlink" x="0px" y="0px"
	 viewBox="0 0 176.3 22.7" style="enable-background:new 0 0 176.3 22.7;" xml:space="preserve">
<style type="text/css">
	.st0{fill:#FFFFFF;}
	.st1{fill:#274370;}
	.st2{fill:#324D77;}
	.st3{fill-rule:evenodd;clip-rule:evenodd;fill:#FFFFFF;}
	.st4{clip-path:url(#SVGID_4_);}
	.st5{clip-path:url(#SVGID_8_);fill:#F9FAFF;}
	.st6{clip-path:url(#SVGID_12_);}
	.st7{clip-path:url(#SVGID_16_);fill:#F9FAFF;}
	.st8{fill-rule:evenodd;clip-rule:evenodd;fill:#F9FAFF;}
	.st9{fill:#F9FAFF;}
	.st10{fill-rule:evenodd;clip-rule:evenodd;fill:#FBFBFD;}
	.st11{fill:#767676;}
	.st12{clip-path:url(#SVGID_18_);}
	.st13{clip-path:url(#SVGID_22_);}
	.st14{clip-path:url(#SVGID_24_);fill:#4070DE;}
	.st15{clip-path:url(#SVGID_26_);}
	.st16{clip-path:url(#SVGID_30_);}
	.st17{clip-path:url(#SVGID_34_);}
	.st18{clip-path:url(#SVGID_36_);fill:#4070DE;}
	.st19{clip-path:url(#SVGID_38_);}
	.st20{clip-path:url(#SVGID_42_);}
	.st21{clip-path:url(#SVGID_45_);}
	.st22{clip-path:url(#SVGID_46_);fill:#4070DE;}
	.st23{clip-path:url(#SVGID_47_);}
	.st24{fill-rule:evenodd;clip-rule:evenodd;fill:#4070DE;}
	.st25{clip-path:url(#SVGID_50_);}
	.st26{clip-path:url(#SVGID_52_);fill:#FDFEFE;}
	.st27{clip-path:url(#SVGID_54_);}
	.st28{clip-path:url(#SVGID_56_);fill:#FDFEFE;}
	.st29{clip-path:url(#SVGID_58_);}
	.st30{clip-path:url(#SVGID_62_);}
	.st31{clip-path:url(#SVGID_64_);fill:#767676;}
	.st32{clip-path:url(#SVGID_66_);}
	.st33{clip-path:url(#SVGID_69_);}
	.st34{clip-path:url(#SVGID_70_);fill:#FDFEFE;}
	.st35{clip-path:url(#SVGID_71_);}
	.st36{clip-path:url(#SVGID_72_);fill:#FDFEFE;}
	.st37{clip-path:url(#SVGID_76_);fill-rule:evenodd;clip-rule:evenodd;fill:#FFFFFF;}
	.st38{clip-path:url(#SVGID_78_);}
	.st39{clip-path:url(#SVGID_80_);fill:#FFFFFF;}
	.st40{clip-path:url(#SVGID_82_);}
	.st41{clip-path:url(#SVGID_84_);enable-background:new    ;}
	.st42{clip-path:url(#SVGID_86_);}
	.st43{clip-path:url(#SVGID_88_);fill:#767676;}
	.st44{clip-path:url(#SVGID_88_);}
	.st45{clip-path:url(#SVGID_92_);}
	.st46{clip-path:url(#SVGID_94_);fill:#4070DE;}
	.st47{clip-path:url(#SVGID_98_);fill-rule:evenodd;clip-rule:evenodd;fill:#FFFFFF;}
	.st48{clip-path:url(#SVGID_100_);}
	.st49{clip-path:url(#SVGID_102_);fill:#FFFFFF;}
	.st50{clip-path:url(#SVGID_104_);}
	.st51{clip-path:url(#SVGID_106_);enable-background:new    ;}
	.st52{clip-path:url(#SVGID_108_);}
	.st53{clip-path:url(#SVGID_110_);fill:#767676;}
	.st54{clip-path:url(#SVGID_110_);}
	.st55{clip-path:url(#SVGID_114_);}
	.st56{clip-path:url(#SVGID_116_);fill:#4070DE;}
</style>
<g>
	<path class="st3" d="M7.8,9.8C7.8,9.8,7.8,9.7,7.8,9.8C7.8,9.6,7.9,9.5,8,9.3c0.8-1.4,2.3-2.2,3.8-2.2c0.2,0,0.4,0,0.5,0
		c0.1,0,0.3,0,0.4,0.1c0,0,0,0,0,0c0.5,0.1,0.8,0.2,1.1,0.3c0,0,0.3,0.1,0.6,0.1c0.5-0.1,0.8-0.2,0.9-0.2c0,0,0,0,0,0
		c-0.1,0.2-0.2,0.5-0.2,0.7c-0.1,1.1,1.3,2.1,0.6,4.6c-0.1,0.2-0.2,0.5-0.3,0.7c-0.1,0.2-0.2,0.3-0.3,0.5c-0.6,0.9-1.6,1.5-2.6,1.7
		c-1,0.2-2,0.1-2.9-0.5C7.6,14.1,6.9,11.7,7.8,9.8C7.8,9.8,7.8,9.8,7.8,9.8C7.8,9.7,7.8,9.8,7.8,9.8L7.8,9.8z M21.3,11.3
		c0,5.2-4.3,9.5-9.5,9.5s-9.5-4.3-9.5-9.5s4.3-9.5,9.5-9.5S21.3,6.1,21.3,11.3z"/>
	<path class="st3" d="M146.3,8.7h-1.9v2.5h1.9c1,0,1.5-0.5,1.5-1.2v0C147.9,9.1,147.3,8.7,146.3,8.7z M30,8.6h-1.4v2.7H30
		c1,0,1.6-0.6,1.6-1.4v0C31.6,9.1,31,8.6,30,8.6z M157.3,8.6c-1.6,0-2.6,1.3-2.6,2.8v0c0,1.5,1.1,2.8,2.7,2.8c1.6,0,2.6-1.3,2.6-2.8
		v0C160,9.9,158.9,8.6,157.3,8.6z M130,8.6c-1.6,0-2.6,1.3-2.6,2.8v0c0,1.5,1.1,2.8,2.7,2.8c1.6,0,2.6-1.3,2.6-2.8v0
		C132.6,9.9,131.5,8.6,130,8.6z M40.8,8.6c-1.6,0-2.6,1.3-2.6,2.8v0c0,1.5,1.1,2.8,2.7,2.8c1.6,0,2.6-1.3,2.6-2.8v0
		C43.5,9.9,42.4,8.6,40.8,8.6z M166.9,6.2l4.3,5.5V6.2h2.9v10.4h-2.5l-4.5-5.7v5.7h-2.9V6.2H166.9z M117.7,6.2v4.2l3.6-4.2h3.4
		l-3.9,4.5l4.1,5.9h-3.4l-2.6-3.9l-1.1,1.2v2.7h-2.9V6.2H117.7z M80.6,6.2l2.5,4l2.5-4h3v10.4h-2.9v-6l-2.7,4.1h-0.1l-2.6-4.1v6
		h-2.8V6.2H80.6z M146.5,6.2c1.6,0,2.7,0.4,3.4,1.1c0.6,0.6,0.9,1.4,0.9,2.4v0c0,1.6-0.8,2.7-2.1,3.2l2.5,3.6h-3.3l-2.1-3.1h-1.3
		v3.1h-2.9V6.2H146.5z M139.8,6.2v10.4h-2.9V6.2H139.8z M30.2,6.2c2.6,0,4.3,1.3,4.3,3.6v0c0,2.5-1.9,3.8-4.5,3.8h-1.4v3h-2.9V6.2
		H30.2z M105.1,6c1.8,0,3.1,0.5,4.3,1.4l-1.4,2c-1-0.7-2-1-2.9-1c-0.7,0-1,0.3-1,0.7v0c0,0.5,0.4,0.7,1.8,1c2.4,0.5,3.9,1.3,3.9,3.2
		v0c0,2.1-1.7,3.4-4.2,3.4c-1.8,0-3.6-0.6-4.9-1.7l1.6-1.9c1,0.8,2.2,1.2,3.4,1.2c0.8,0,1.2-0.3,1.2-0.7v0c0-0.4-0.3-0.7-1.8-1
		c-2.2-0.5-3.9-1.1-3.9-3.3v0C101.1,7.4,102.6,6,105.1,6z M60.7,6c1.8,0,3.1,0.5,4.3,1.4l-1.4,2c-1-0.7-2-1-2.9-1
		c-0.7,0-1,0.3-1,0.7v0c0,0.5,0.4,0.7,1.8,1c2.4,0.5,3.9,1.3,3.9,3.2v0c0,2.1-1.7,3.4-4.2,3.4c-1.8,0-3.6-0.6-4.9-1.7l1.6-1.9
		c1,0.8,2.2,1.2,3.4,1.2c0.8,0,1.2-0.3,1.2-0.7v0c0-0.4-0.3-0.7-1.8-1c-2.2-0.5-3.9-1.1-3.9-3.3v0C56.7,7.4,58.2,6,60.7,6z M51.4,6
		c1.8,0,3.1,0.5,4.3,1.4l-1.4,2c-1-0.7-2-1-2.9-1c-0.7,0-1,0.3-1,0.7v0c0,0.5,0.4,0.7,1.8,1c2.4,0.5,3.9,1.3,3.9,3.2v0
		c0,2.1-1.7,3.4-4.2,3.4c-1.8,0-3.6-0.6-4.9-1.7l1.6-1.9c1,0.8,2.2,1.2,3.4,1.2c0.8,0,1.2-0.3,1.2-0.7v0c0-0.4-0.3-0.7-1.8-1
		c-2.2-0.5-3.9-1.1-3.9-3.3v0C47.4,7.4,48.9,6,51.4,6z M93.1,6.2V12c0,1.5,0.8,2.2,1.9,2.2c1.2,0,1.9-0.7,1.9-2.1V6.2h2.9V12
		c0,3.3-1.9,4.8-4.9,4.8c-2.9,0-4.8-1.5-4.8-4.8V6.2H93.1z M69.3,6.2V12c0,1.5,0.8,2.2,1.9,2.2c1.2,0,1.9-0.7,1.9-2.1V6.2h2.9V12
		c0,3.3-1.9,4.8-4.9,4.8c-2.9,0-4.8-1.5-4.8-4.8V6.2H69.3z M157.3,6c3.2,0,5.6,2.4,5.6,5.4v0c0,3-2.4,5.4-5.6,5.4
		c-3.2,0-5.6-2.4-5.6-5.4v0C151.7,8.4,154.1,6,157.3,6z M130,6c3.2,0,5.6,2.4,5.6,5.4v0c0,3-2.4,5.4-5.6,5.4c-3.2,0-5.6-2.4-5.6-5.4
		v0C124.4,8.4,126.8,6,130,6z M40.8,6c3.2,0,5.6,2.4,5.6,5.4v0c0,3-2.4,5.4-5.6,5.4c-3.2,0-5.6-2.4-5.6-5.4v0
		C35.2,8.4,37.6,6,40.8,6z"/>
</g>
<g id="prefooter">
	<g>
		<g>
			<g>
				<defs>
					<path id="SVGID_9_" d="M-915-495.9l-5-4.5c-0.4-0.4-1-0.4-1.4,0c-0.4,0.4-0.4,1,0,1.4l4.3,3.8l-4.3,3.8c-0.4,0.4-0.4,1,0,1.4
						c0.4,0.4,1,0.4,1.4,0l5-4.5c0.2-0.2,0.3-0.5,0.3-0.7C-914.7-495.4-914.7-495.7-915-495.9"/>
				</defs>
				<clipPath id="SVGID_4_">
					<use xlink:href="#SVGID_9_"  style="overflow:visible;"/>
				</clipPath>
				<g class="st4">
					<defs>
						<rect id="SVGID_11_" x="-1246.7" y="-1778.7" width="1280" height="3196"/>
					</defs>
					<clipPath id="SVGID_8_">
						<use xlink:href="#SVGID_11_"  style="overflow:visible;"/>
					</clipPath>
				</g>
			</g>
		</g>
		<g>
			<g>
				<defs>
					<path id="SVGID_13_" d="M-915-495.9l-5-4.5c-0.4-0.4-1-0.4-1.4,0c-0.4,0.4-0.4,1,0,1.4l4.3,3.8l-4.3,3.8c-0.4,0.4-0.4,1,0,1.4
						c0.4,0.4,1,0.4,1.4,0l5-4.5c0.2-0.2,0.3-0.5,0.3-0.7C-914.7-495.4-914.7-495.7-915-495.9"/>
				</defs>
				<use xlink:href="#SVGID_13_"  style="overflow:visible;fill-rule:evenodd;clip-rule:evenodd;fill:#4070DE;"/>
				<clipPath id="SVGID_12_">
					<use xlink:href="#SVGID_13_"  style="overflow:visible;"/>
				</clipPath>
				<g class="st6">
					<defs>
						<rect id="SVGID_15_" x="-1246.7" y="-1778.7" width="1280" height="3196"/>
					</defs>
					<use xlink:href="#SVGID_15_"  style="overflow:visible;fill:#4070DE;"/>
					<clipPath id="SVGID_16_">
						<use xlink:href="#SVGID_15_"  style="overflow:visible;"/>
					</clipPath>
				</g>
			</g>
		</g>
		<g>
			<g>
				<defs>
					<path id="SVGID_17_" d="M-915-495.9l-5-4.5c-0.4-0.4-1-0.4-1.4,0c-0.4,0.4-0.4,1,0,1.4l4.3,3.8l-4.3,3.8c-0.4,0.4-0.4,1,0,1.4
						c0.4,0.4,1,0.4,1.4,0l5-4.5c0.2-0.2,0.3-0.5,0.3-0.7C-914.7-495.4-914.7-495.7-915-495.9"/>
				</defs>
				<clipPath id="SVGID_18_">
					<use xlink:href="#SVGID_17_"  style="overflow:visible;"/>
				</clipPath>
				<g class="st12">
					<defs>
						<rect id="SVGID_19_" x="-1246.7" y="-1778.7" width="1280" height="3196"/>
					</defs>
					<clipPath id="SVGID_20_">
						<use xlink:href="#SVGID_19_"  style="overflow:visible;"/>
					</clipPath>
				</g>
			</g>
		</g>
	</g>
	<g>
		<g>
			<g>
				<defs>
					<path id="SVGID_21_" d="M-607-495.9l-5-4.5c-0.4-0.4-1-0.4-1.4,0c-0.4,0.4-0.4,1,0,1.4l4.3,3.8l-4.3,3.8c-0.4,0.4-0.4,1,0,1.4
						c0.4,0.4,1,0.4,1.4,0l5-4.5c0.2-0.2,0.3-0.5,0.3-0.7C-606.7-495.4-606.7-495.7-607-495.9"/>
				</defs>
				<clipPath id="SVGID_22_">
					<use xlink:href="#SVGID_21_"  style="overflow:visible;"/>
				</clipPath>
				<g class="st13">
					<defs>
						<rect id="SVGID_23_" x="-938.7" y="-1778.7" width="1280" height="3196"/>
					</defs>
					<clipPath id="SVGID_24_">
						<use xlink:href="#SVGID_23_"  style="overflow:visible;"/>
					</clipPath>
				</g>
			</g>
		</g>
		<g>
			<g>
				<defs>
					<path id="SVGID_25_" d="M-607-495.9l-5-4.5c-0.4-0.4-1-0.4-1.4,0c-0.4,0.4-0.4,1,0,1.4l4.3,3.8l-4.3,3.8c-0.4,0.4-0.4,1,0,1.4
						c0.4,0.4,1,0.4,1.4,0l5-4.5c0.2-0.2,0.3-0.5,0.3-0.7C-606.7-495.4-606.7-495.7-607-495.9"/>
				</defs>
				<use xlink:href="#SVGID_25_"  style="overflow:visible;fill-rule:evenodd;clip-rule:evenodd;fill:#4070DE;"/>
				<clipPath id="SVGID_26_">
					<use xlink:href="#SVGID_25_"  style="overflow:visible;"/>
				</clipPath>
				<g class="st15">
					<defs>
						<rect id="SVGID_27_" x="-938.7" y="-1778.7" width="1280" height="3196"/>
					</defs>
					<use xlink:href="#SVGID_27_"  style="overflow:visible;fill:#4070DE;"/>
					<clipPath id="SVGID_28_">
						<use xlink:href="#SVGID_27_"  style="overflow:visible;"/>
					</clipPath>
				</g>
			</g>
		</g>
		<g>
			<g>
				<defs>
					<path id="SVGID_29_" d="M-607-495.9l-5-4.5c-0.4-0.4-1-0.4-1.4,0c-0.4,0.4-0.4,1,0,1.4l4.3,3.8l-4.3,3.8c-0.4,0.4-0.4,1,0,1.4
						c0.4,0.4,1,0.4,1.4,0l5-4.5c0.2-0.2,0.3-0.5,0.3-0.7C-606.7-495.4-606.7-495.7-607-495.9"/>
				</defs>
				<clipPath id="SVGID_30_">
					<use xlink:href="#SVGID_29_"  style="overflow:visible;"/>
				</clipPath>
				<g class="st16">
					<defs>
						<rect id="SVGID_31_" x="-938.7" y="-1778.7" width="1280" height="3196"/>
					</defs>
					<clipPath id="SVGID_32_">
						<use xlink:href="#SVGID_31_"  style="overflow:visible;"/>
					</clipPath>
				</g>
			</g>
		</g>
	</g>
	<g>
		<g>
			<g>
				<defs>
					<path id="SVGID_33_" d="M-299-495.9l-5-4.5c-0.4-0.4-1-0.4-1.4,0c-0.4,0.4-0.4,1,0,1.4l4.3,3.8l-4.3,3.8c-0.4,0.4-0.4,1,0,1.4
						c0.4,0.4,1,0.4,1.4,0l5-4.5c0.2-0.2,0.3-0.5,0.3-0.7C-298.7-495.4-298.7-495.7-299-495.9"/>
				</defs>
				<clipPath id="SVGID_34_">
					<use xlink:href="#SVGID_33_"  style="overflow:visible;"/>
				</clipPath>
				<g class="st17">
					<defs>
						<rect id="SVGID_35_" x="-630.7" y="-1778.7" width="1280" height="3196"/>
					</defs>
					<clipPath id="SVGID_36_">
						<use xlink:href="#SVGID_35_"  style="overflow:visible;"/>
					</clipPath>
				</g>
			</g>
		</g>
		<g>
			<g>
				<defs>
					<path id="SVGID_37_" d="M-299-495.9l-5-4.5c-0.4-0.4-1-0.4-1.4,0c-0.4,0.4-0.4,1,0,1.4l4.3,3.8l-4.3,3.8c-0.4,0.4-0.4,1,0,1.4
						c0.4,0.4,1,0.4,1.4,0l5-4.5c0.2-0.2,0.3-0.5,0.3-0.7C-298.7-495.4-298.7-495.7-299-495.9"/>
				</defs>
				<use xlink:href="#SVGID_37_"  style="overflow:visible;fill-rule:evenodd;clip-rule:evenodd;fill:#4070DE;"/>
				<clipPath id="SVGID_38_">
					<use xlink:href="#SVGID_37_"  style="overflow:visible;"/>
				</clipPath>
				<g class="st19">
					<defs>
						<rect id="SVGID_39_" x="-630.7" y="-1778.7" width="1280" height="3196"/>
					</defs>
					<use xlink:href="#SVGID_39_"  style="overflow:visible;fill:#4070DE;"/>
					<clipPath id="SVGID_40_">
						<use xlink:href="#SVGID_39_"  style="overflow:visible;"/>
					</clipPath>
				</g>
			</g>
		</g>
		<g>
			<g>
				<defs>
					<path id="SVGID_41_" d="M-299-495.9l-5-4.5c-0.4-0.4-1-0.4-1.4,0c-0.4,0.4-0.4,1,0,1.4l4.3,3.8l-4.3,3.8c-0.4,0.4-0.4,1,0,1.4
						c0.4,0.4,1,0.4,1.4,0l5-4.5c0.2-0.2,0.3-0.5,0.3-0.7C-298.7-495.4-298.7-495.7-299-495.9"/>
				</defs>
				<clipPath id="SVGID_42_">
					<use xlink:href="#SVGID_41_"  style="overflow:visible;"/>
				</clipPath>
				<g class="st20">
					<defs>
						<rect id="SVGID_43_" x="-630.7" y="-1778.7" width="1280" height="3196"/>
					</defs>
					<clipPath id="SVGID_44_">
						<use xlink:href="#SVGID_43_"  style="overflow:visible;"/>
					</clipPath>
				</g>
			</g>
		</g>
	</g>
	<g>
		<g>
			<defs>
				<path id="SVGID_49_" d="M9-505.9l-5-4.5c-0.4-0.4-1-0.4-1.4,0c-0.4,0.4-0.4,1,0,1.4l4.3,3.8l-4.3,3.8c-0.4,0.4-0.4,1,0,1.4
					c0.4,0.4,1,0.4,1.4,0l5-4.5c0.2-0.2,0.3-0.5,0.3-0.7C9.3-505.4,9.3-505.7,9-505.9"/>
			</defs>
			<use xlink:href="#SVGID_49_"  style="overflow:visible;fill-rule:evenodd;clip-rule:evenodd;fill:#FDFEFE;"/>
			<clipPath id="SVGID_45_">
				<use xlink:href="#SVGID_49_"  style="overflow:visible;"/>
			</clipPath>
			<g class="st21">
				<defs>
					<rect id="SVGID_51_" x="-322.7" y="-1788.7" width="1280" height="3196"/>
				</defs>
				<use xlink:href="#SVGID_51_"  style="overflow:visible;fill:#FDFEFE;"/>
				<clipPath id="SVGID_46_">
					<use xlink:href="#SVGID_51_"  style="overflow:visible;"/>
				</clipPath>
			</g>
		</g>
	</g>
	<g>
		<defs>
			<path id="SVGID_5_" d="M-109.7,1892.4h-36c-3.3,0-6,2.7-6,6v24c0,3.3,2.7,6,6,6h36c3.3,0,6-2.7,6-6v-24
				C-103.7,1895-106.4,1892.4-109.7,1892.4z M-108.2,1895.4l-19.5,15l-19.5-15H-108.2z M-148.7,1922.4v-24l13.5,10.5l-13.4,14.4
				C-148.6,1922.9-148.7,1922.7-148.7,1922.4z M-146.3,1925.3l13.5-14.4l5.1,3.9l4.9-3.9l13.8,14.4
				C-109.2,1925.3-146.1,1925.3-146.3,1925.3z M-106.7,1922.4c0,0.3-0.1,0.6-0.1,0.9l-13.4-14.4l13.5-10.5V1922.4z"/>
		</defs>
		<use xlink:href="#SVGID_5_"  style="overflow:visible;fill-rule:evenodd;clip-rule:evenodd;fill:#FDFEFE;"/>
		<clipPath id="SVGID_47_">
			<use xlink:href="#SVGID_5_"  style="overflow:visible;"/>
		</clipPath>
		<g class="st23">
			<defs>
				<rect id="SVGID_7_" x="-1572.2" y="-3606.6" width="1920" height="6118.5"/>
			</defs>
			<use xlink:href="#SVGID_7_"  style="overflow:visible;fill:#FDFEFE;"/>
			<clipPath id="SVGID_48_">
				<use xlink:href="#SVGID_7_"  style="overflow:visible;"/>
			</clipPath>
		</g>
	</g>
</g>
<g id="bloque">
</g>
</svg>
