<?xml version="1.0" encoding="utf-8"?>
<!-- Generator: Adobe Illustrator 21.0.2, SVG Export Plug-In . SVG Version: 6.00 Build 0)  -->
<svg version="1.1" id="footer" xmlns="http://www.w3.org/2000/svg" xmlns:xlink="http://www.w3.org/1999/xlink" x="0px" y="0px"
	 viewBox="0 0 55 55" style="enable-background:new 0 0 55 55;" xml:space="preserve">
<style type="text/css">
	.st0{fill:#FFFFFF;}
	.st1{fill:#274370;}
	.st2{fill:#324D77;}
	.st3{fill-rule:evenodd;clip-rule:evenodd;fill:#FFFFFF;}
	.st4{clip-path:url(#SVGID_2_);}
	.st5{clip-path:url(#SVGID_4_);fill:#F9FAFF;}
	.st6{clip-path:url(#SVGID_6_);}
	.st7{clip-path:url(#SVGID_8_);fill:#F9FAFF;}
	.st8{fill-rule:evenodd;clip-rule:evenodd;fill:#F9FAFF;}
	.st9{fill:#F9FAFF;}
	.st10{fill-rule:evenodd;clip-rule:evenodd;fill:#FBFBFD;}
	.st11{fill:#767676;}
	.st12{clip-path:url(#SVGID_10_);}
	.st13{clip-path:url(#SVGID_14_);}
	.st14{clip-path:url(#SVGID_16_);fill:#4070DE;}
	.st15{clip-path:url(#SVGID_18_);}
	.st16{clip-path:url(#SVGID_22_);}
	.st17{clip-path:url(#SVGID_26_);}
	.st18{clip-path:url(#SVGID_28_);fill:#4070DE;}
	.st19{clip-path:url(#SVGID_30_);}
	.st20{clip-path:url(#SVGID_34_);}
	.st21{clip-path:url(#SVGID_38_);}
	.st22{clip-path:url(#SVGID_40_);fill:#4070DE;}
	.st23{clip-path:url(#SVGID_42_);}
	.st24{fill-rule:evenodd;clip-rule:evenodd;fill:#4070DE;}
	.st25{clip-path:url(#SVGID_46_);}
	.st26{clip-path:url(#SVGID_48_);fill:#FDFEFE;}
	.st27{clip-path:url(#SVGID_50_);}
	.st28{clip-path:url(#SVGID_52_);fill:#FDFEFE;}
	.st29{clip-path:url(#SVGID_56_);fill-rule:evenodd;clip-rule:evenodd;fill:#FFFFFF;}
	.st30{clip-path:url(#SVGID_58_);}
	.st31{clip-path:url(#SVGID_60_);fill:#FFFFFF;}
	.st32{clip-path:url(#SVGID_62_);}
	.st33{clip-path:url(#SVGID_64_);enable-background:new    ;}
	.st34{clip-path:url(#SVGID_66_);}
	.st35{clip-path:url(#SVGID_68_);fill:#767676;}
	.st36{clip-path:url(#SVGID_68_);}
	.st37{clip-path:url(#SVGID_72_);}
	.st38{clip-path:url(#SVGID_74_);fill:#4070DE;}
	.st39{clip-path:url(#SVGID_78_);fill-rule:evenodd;clip-rule:evenodd;fill:#FFFFFF;}
	.st40{clip-path:url(#SVGID_80_);}
	.st41{clip-path:url(#SVGID_82_);fill:#FFFFFF;}
	.st42{clip-path:url(#SVGID_84_);}
	.st43{clip-path:url(#SVGID_86_);enable-background:new    ;}
	.st44{clip-path:url(#SVGID_88_);}
	.st45{clip-path:url(#SVGID_90_);fill:#767676;}
	.st46{clip-path:url(#SVGID_90_);}
	.st47{clip-path:url(#SVGID_94_);}
	.st48{clip-path:url(#SVGID_96_);fill:#4070DE;}
</style>
<rect id="back_claro" x="540.5" y="-516.2" class="st0" width="1280" height="1169"/>
<rect id="back_osucro_1" x="540.5" y="117.8" class="st1" width="1280" height="533"/>
<rect id="back_oscuro_2" x="540.5" y="577.8" class="st2" width="1280" height="75"/>
<g id="Copyright">
	<text transform="matrix(1 0 0 1 572.5 622.0059)" class="st0" style="font-family:'Lato-Regular'; font-size:13px;">Copyright © 2021 Piscinas Premium S.A. Todos los Derechos Reservados.</text>
	<g>
		<path class="st3" d="M1622,614.8C1622,614.8,1622,614.7,1622,614.8c0.1-0.1,0.1-0.3,0.2-0.4c0.8-1.4,2.3-2.2,3.8-2.2
			c0.2,0,0.4,0,0.5,0c0.1,0,0.3,0,0.4,0.1c0,0,0,0,0,0c0.5,0.1,0.8,0.2,1.1,0.3c0,0,0.3,0.1,0.6,0.1c0.5-0.1,0.8-0.2,0.9-0.2
			c0,0,0,0,0,0c-0.1,0.2-0.2,0.5-0.2,0.7c-0.1,1.1,1.3,2.1,0.6,4.6c-0.1,0.2-0.2,0.5-0.3,0.7c-0.1,0.2-0.2,0.3-0.3,0.5
			c-0.6,0.9-1.6,1.5-2.6,1.7c-1,0.2-2,0.1-2.9-0.5C1621.8,619.1,1621.1,616.7,1622,614.8C1622,614.8,1622,614.8,1622,614.8
			C1622,614.7,1622,614.8,1622,614.8L1622,614.8z M1635.5,616.3c0,5.2-4.3,9.5-9.5,9.5s-9.5-4.3-9.5-9.5c0-5.2,4.3-9.5,9.5-9.5
			S1635.5,611.1,1635.5,616.3z"/>
		<path class="st3" d="M1760.6,613.7h-1.9v2.5h1.9c1,0,1.5-0.5,1.5-1.2v0C1762.1,614.1,1761.5,613.7,1760.6,613.7z M1644.2,613.6
			h-1.4v2.7h1.4c1,0,1.6-0.6,1.6-1.4v0C1645.9,614.1,1645.2,613.6,1644.2,613.6z M1771.5,613.6c-1.6,0-2.6,1.3-2.6,2.8v0
			c0,1.5,1.1,2.8,2.7,2.8c1.6,0,2.6-1.3,2.6-2.8v0C1774.2,614.9,1773.1,613.6,1771.5,613.6z M1744.2,613.6c-1.6,0-2.6,1.3-2.6,2.8v0
			c0,1.5,1.1,2.8,2.7,2.8c1.6,0,2.6-1.3,2.6-2.8v0C1746.8,614.9,1745.8,613.6,1744.2,613.6z M1655,613.6c-1.6,0-2.6,1.3-2.6,2.8v0
			c0,1.5,1.1,2.8,2.7,2.8c1.6,0,2.6-1.3,2.6-2.8v0C1657.7,614.9,1656.6,613.6,1655,613.6z M1781.1,611.2l4.3,5.5v-5.5h2.9v10.4h-2.5
			l-4.5-5.7v5.7h-2.9v-10.4H1781.1z M1732,611.2v4.2l3.6-4.2h3.4l-3.9,4.5l4.1,5.9h-3.4l-2.6-3.9l-1.1,1.2v2.7h-2.9v-10.4H1732z
			 M1694.9,611.2l2.5,4l2.5-4h3v10.4h-2.9v-6l-2.7,4.1h-0.1l-2.6-4.1v6h-2.8v-10.4H1694.9z M1760.7,611.2c1.6,0,2.7,0.4,3.4,1.1
			c0.6,0.6,0.9,1.4,0.9,2.4v0c0,1.6-0.8,2.7-2.1,3.2l2.5,3.6h-3.3l-2.1-3.1h-1.3v3.1h-2.9v-10.4H1760.7z M1754,611.2v10.4h-2.9
			v-10.4H1754z M1644.4,611.2c2.6,0,4.3,1.3,4.3,3.6v0c0,2.5-1.9,3.8-4.5,3.8h-1.4v3h-2.9v-10.4H1644.4z M1719.3,611
			c1.8,0,3.1,0.5,4.3,1.4l-1.4,2c-1-0.7-2-1-2.9-1c-0.7,0-1,0.3-1,0.7v0c0,0.5,0.4,0.7,1.8,1c2.4,0.5,3.9,1.3,3.9,3.2v0
			c0,2.1-1.7,3.4-4.2,3.4c-1.8,0-3.6-0.6-4.9-1.7l1.6-1.9c1,0.8,2.2,1.2,3.4,1.2c0.8,0,1.2-0.3,1.2-0.7v0c0-0.4-0.3-0.7-1.8-1
			c-2.2-0.5-3.9-1.1-3.9-3.3v0C1715.3,612.4,1716.8,611,1719.3,611z M1675,611c1.8,0,3.1,0.5,4.3,1.4l-1.4,2c-1-0.7-2-1-2.9-1
			c-0.7,0-1,0.3-1,0.7v0c0,0.5,0.4,0.7,1.8,1c2.4,0.5,3.9,1.3,3.9,3.2v0c0,2.1-1.7,3.4-4.2,3.4c-1.8,0-3.6-0.6-4.9-1.7l1.6-1.9
			c1,0.8,2.2,1.2,3.4,1.2c0.8,0,1.2-0.3,1.2-0.7v0c0-0.4-0.3-0.7-1.8-1c-2.2-0.5-3.9-1.1-3.9-3.3v0
			C1670.9,612.4,1672.5,611,1675,611z M1665.6,611c1.8,0,3.1,0.5,4.3,1.4l-1.4,2c-1-0.7-2-1-2.9-1c-0.7,0-1,0.3-1,0.7v0
			c0,0.5,0.4,0.7,1.8,1c2.4,0.5,3.9,1.3,3.9,3.2v0c0,2.1-1.7,3.4-4.2,3.4c-1.8,0-3.6-0.6-4.9-1.7l1.6-1.9c1,0.8,2.2,1.2,3.4,1.2
			c0.8,0,1.2-0.3,1.2-0.7v0c0-0.4-0.3-0.7-1.8-1c-2.2-0.5-3.9-1.1-3.9-3.3v0C1661.6,612.4,1663.1,611,1665.6,611z M1707.3,611.2v5.8
			c0,1.5,0.8,2.2,1.9,2.2c1.2,0,1.9-0.7,1.9-2.1v-5.9h2.9v5.8c0,3.3-1.9,4.8-4.9,4.8c-2.9,0-4.8-1.5-4.8-4.8v-5.8H1707.3z
			 M1683.5,611.2v5.8c0,1.5,0.8,2.2,1.9,2.2c1.2,0,1.9-0.7,1.9-2.1v-5.9h2.9v5.8c0,3.3-1.9,4.8-4.9,4.8c-2.9,0-4.8-1.5-4.8-4.8v-5.8
			H1683.5z M1771.6,611c3.2,0,5.6,2.4,5.6,5.4v0c0,3-2.4,5.4-5.6,5.4c-3.2,0-5.6-2.4-5.6-5.4v0C1765.9,613.4,1768.3,611,1771.6,611z
			 M1744.2,611c3.2,0,5.6,2.4,5.6,5.4v0c0,3-2.4,5.4-5.6,5.4c-3.2,0-5.6-2.4-5.6-5.4v0C1738.6,613.4,1741,611,1744.2,611z M1655,611
			c3.2,0,5.6,2.4,5.6,5.4v0c0,3-2.4,5.4-5.6,5.4c-3.2,0-5.6-2.4-5.6-5.4v0C1649.4,613.4,1651.8,611,1655,611z"/>
		<g>
			<text transform="matrix(1 0 0 1 1517.293 621.8333)" class="st0" style="font-family:'Lato-Regular'; font-size:13px;">Potenciado por</text>
		</g>
	</g>
</g>
<g id="redes">
	<g>
		<defs>
			<path id="SVGID_1_" d="M1508.4,497.1c0-10-8.1-18.1-18-18.1c-10,0-18,8.1-18,18.1c0,9.1,6.6,16.5,15.2,17.9v-12.6h-4.6v-5.3h4.6
				v-4c0-4.5,2.7-7,6.8-7c2,0,4,0.4,4,0.4v4.4h-2.3c-2.2,0-2.9,1.4-2.9,2.8v3.4h5l-0.8,5.3h-4.2V515
				C1501.8,513.6,1508.4,506.2,1508.4,497.1"/>
		</defs>
		<clipPath id="SVGID_2_">
			<use xlink:href="#SVGID_1_"  style="overflow:visible;"/>
		</clipPath>
		<g class="st4">
			<defs>
				<rect id="SVGID_3_" x="554.4" y="-3187.3" width="1212.6" height="3864.3"/>
			</defs>
			<clipPath id="SVGID_4_">
				<use xlink:href="#SVGID_3_"  style="overflow:visible;"/>
			</clipPath>
			<rect x="1467.7" y="474.3" class="st5" width="45.5" height="45.5"/>
		</g>
	</g>
	<g>
		<defs>
			<path id="SVGID_5_" d="M1568.6,485.8c1.2,0,2.3,1,2.3,2.2c0,1.2-1,2.3-2.3,2.3c-1.2,0-2.2-1-2.2-2.3
				C1566.3,486.8,1567.3,485.8,1568.6,485.8z M1559,490.6c-3.2,0-5.8,2.6-5.8,5.8c0,3.2,2.6,5.8,5.8,5.8c3.2,0,5.8-2.6,5.8-5.8
				C1564.9,493.2,1562.2,490.6,1559,490.6z M1559,486.9c5.3,0,9.6,4.3,9.6,9.6c0,5.3-4.3,9.6-9.6,9.6s-9.6-4.3-9.6-9.6
				C1549.5,491.2,1553.7,486.9,1559,486.9z M1566.9,482.6h-14.6c-3.8,0-7,3-7.1,6.8l0,0.3v14.6c0,3.8,3,7,6.8,7.1l0.3,0h14.6
				c3.8,0,7-3,7.1-6.8l0-0.3v-14.6c0-3.8-3-7-6.8-7.1L1566.9,482.6z M1566.9,479c5.8,0,10.6,4.6,10.7,10.4l0,0.3v14.6
				c0,5.8-4.6,10.6-10.4,10.7l-0.3,0h-14.6c-5.8,0-10.6-4.6-10.7-10.4l0-0.3v-14.6c0-5.8,4.6-10.6,10.4-10.7l0.3,0H1566.9z"/>
		</defs>
		<clipPath id="SVGID_6_">
			<use xlink:href="#SVGID_5_"  style="overflow:visible;"/>
		</clipPath>
		<g class="st6">
			<defs>
				<rect id="SVGID_7_" x="554.4" y="-3187.3" width="1212.6" height="3864.3"/>
			</defs>
			<clipPath id="SVGID_8_">
				<use xlink:href="#SVGID_7_"  style="overflow:visible;"/>
			</clipPath>
			<rect x="1536.8" y="474.3" class="st7" width="45.5" height="45.5"/>
		</g>
	</g>
</g>
<g id="info">
	<path class="st3" d="M1455.5,334.6l-3-3c-0.8-0.8-2.1-0.8-3,0l-4.4,5.9c-0.7,1-0.8,2.1,0,3l1.8,1.8c-1.3,1.8-3,3.8-4.8,5.6
		c-2.1,2-4.3,3.9-6.4,5.4l-1.8-1.7c-0.8-0.8-2-0.7-3,0l-5.9,4.4c-1,0.7-0.8,2.1,0,3l3,3c1.6,1.6,3.8,1.1,5.9,0c0,0,6.5-3.7,12.1-9.2
		c5.3-5.3,9.3-12.2,9.3-12.2C1456.4,338.2,1457.2,336.2,1455.5,334.6z M1454.1,339c-1.8,3.3-5.6,8.4-8.9,11.8
		c-3.7,4.1-12.6,9.6-12.6,9.6c-0.7,0.4-2.6,0.4-3.1-0.1l-1.9-1.9c-0.4-0.7-0.6-1.4,0-1.9l3.8-2.8c0.6-0.4,1.4-0.5,1.9,0l2.3,2.3
		c0.5-0.4,9.3-6.1,14.1-14l-2.4-2.4c-0.5-0.5-0.4-1.2,0-1.9l2.8-3.8c0.5-0.7,1.4-0.5,1.9,0l1.9,1.9
		C1454.7,336.6,1454.5,338.2,1454.1,339z"/>
	<g>
		<g>
			
				<text transform="matrix(1 0 0 1 1470.5 353.006)" style="opacity:0.85;fill:#FFFFFF; font-family:'Lato-Regular'; font-size:15px;">(+54) 261 463 7550</text>
		</g>
	</g>
	<g>
		<path class="st8" d="M1440.3,398.8c-6.6,0-12,5.4-12,12c0,5,10,20,12,20c2,0,12-15,12-20C1452.3,404.2,1446.9,398.8,1440.3,398.8z
			 M1440.3,427.8c-1.7,0-10-12.8-10-17c0-5.5,4.5-10,10-10s10,4.5,10,10C1450.3,415,1441.9,427.8,1440.3,427.8z"/>
		<path class="st8" d="M1440.3,405.8c-2.8,0-5,2.2-5,5c0,2.8,2.2,5,5,5s5-2.2,5-5C1445.3,408.1,1443,405.8,1440.3,405.8z
			 M1440.3,413.8c-1.7,0-3-1.3-3-3c0-1.7,1.3-3,3-3s3,1.3,3,3C1443.3,412.5,1441.9,413.8,1440.3,413.8z"/>
	</g>
	<g>
		<g>
			
				<text transform="matrix(1 0 0 1 1470.5 401.8333)" style="opacity:0.85;fill:#FFFFFF; font-family:'Lato-Regular'; font-size:15px;">Casa Central - Fábrica</text>
		</g>
		<g>
			
				<text transform="matrix(1 0 0 1 1470.5 420.8333)" style="opacity:0.85;fill:#FFFFFF; font-family:'Lato-Regular'; font-size:15px;">Álvarez Condarco 2060 - Parque Industrial</text>
		</g>
		<g>
			
				<text transform="matrix(1 0 0 1 1470.5 439.8333)" style="opacity:0.85;fill:#FFFFFF; font-family:'Lato-Regular'; font-size:15px;">Las Heras, Mendoza </text>
		</g>
	</g>
</g>
<text transform="matrix(1 0 0 1 1132.5 353.006)"><tspan x="0" y="0" class="st0" style="font-family:'Prompt-Medium'; font-size:18px;">Piscinas</tspan><tspan x="0" y="33" class="st0" style="font-family:'Prompt-Medium'; font-size:18px;">Accesorios</tspan><tspan x="0" y="66" class="st0" style="font-family:'Prompt-Medium'; font-size:18px;">Catálogo</tspan><tspan x="0" y="99" class="st0" style="font-family:'Prompt-Medium'; font-size:18px;">Galería</tspan><tspan x="0" y="132" class="st0" style="font-family:'Prompt-Medium'; font-size:18px;">Empresa</tspan><tspan x="0" y="165" class="st0" style="font-family:'Prompt-Medium'; font-size:18px;">Contacto</tspan></text>
<g id="logo">
	<rect x="732.5" y="333" class="st9" width="1" height="122"/>
	<g>
		<text transform="matrix(1 0 0 1 782.5 380.006)"><tspan x="0" y="0" class="st9" style="font-family:'Prompt-Bold'; font-size:31px;">INN</tspan><tspan x="51.1" y="0" class="st9" style="font-family:'Prompt-Bold'; font-size:31px; letter-spacing:-2;">O</tspan><tspan x="73.7" y="0" class="st9" style="font-family:'Prompt-Bold'; font-size:31px; letter-spacing:-4;">V</tspan><tspan x="93.2" y="0" class="st9" style="font-family:'Prompt-Bold'; font-size:31px; letter-spacing:-1;">A</tspan><tspan x="115.6" y="0" class="st9" style="font-family:'Prompt-Bold'; font-size:31px;">CIÓ</tspan><tspan x="169.3" y="0" class="st9" style="font-family:'Prompt-Bold'; font-size:31px;">N</tspan></text>
		<text transform="matrix(1 0 0 1 782.5 413.006)"><tspan x="0" y="0" class="st9" style="font-family:'Prompt-Bold'; font-size:31px; letter-spacing:-3;">P</tspan><tspan x="16.4" y="0" class="st9" style="font-family:'Prompt-Bold'; font-size:31px; letter-spacing:-1;">A</tspan><tspan x="39.1" y="0" class="st9" style="font-family:'Prompt-Bold'; font-size:31px;">SIÓ</tspan><tspan x="89.3" y="0" class="st9" style="font-family:'Prompt-Bold'; font-size:31px;">N</tspan></text>
		<text transform="matrix(1 0 0 1 782.5 446.006)"><tspan x="0" y="0" class="st9" style="font-family:'Prompt-Bold'; font-size:31px;">C</tspan><tspan x="20.2" y="0" class="st9" style="font-family:'Prompt-Bold'; font-size:31px;">ONFIAN</tspan><tspan x="136.7" y="0" class="st9" style="font-family:'Prompt-Bold'; font-size:31px;">Z</tspan><tspan x="154.7" y="0" class="st9" style="font-family:'Prompt-Bold'; font-size:31px;">A</tspan></text>
	</g>
	<path class="st3" d="M647,388c0.7,0,1.2,0.4,1.4,1.3c0.3,0.9,0.4,1.9,0.4,3c0,2.5-0.6,5.1-1.8,7.8c-1.2,2.6-3.2,4-6.1,4.1l-0.3,0
		h-0.9c0.5-4.4,1.5-8.2,2.9-11.4C643.9,389.6,645.4,388,647,388z M630.3,360.5c-1.8,0-4,0.2-6.4,0.7c-2.1,0.4-4.2,0.9-6.3,1.6
		l-0.9,0.3l0.6,1.8h3.8c0.4,0,0.6,0.1,0.7,0.4c0.1,0.2,0.1,0.6,0.1,1.1c0,1.2-0.4,4.5-1.2,9.8c-0.8,5.4-1.2,8.4-1.2,9.2
		c0,1.2,0.1,2.4,0.4,3.4c0.2,1,0.8,1.5,1.6,1.5c1.7,0,3.6-0.3,5.8-1c1.9-0.6,3.8-1.3,5.7-2.1l0.7-0.3h1c0.3,0,0.5,0.1,0.5,0.3
		c0,0.2,0.1,0.5,0.1,0.9c0,1-0.3,3.2-0.8,6.6c-0.5,3.4-1,7-1.5,10.8c-0.6,3.8-1,7.1-1.3,9.7c0,0.3-0.1,0.4-0.2,0.5
		c-0.1,0.1-0.4,0.1-0.8,0.1l-0.2,0h-0.9l-0.3,1.7h13.8l0.2-1.7H640c-0.6,0-1.1-0.1-1.2-0.3c-0.2-0.2-0.3-0.7-0.3-1.5
		c0-0.8,0.1-1.9,0.3-3.2c0.2-1.2,0.3-2.7,0.6-4.3l0.1-0.5h2.3c3.7,0,6.9-1.5,9.8-4.4c2.9-2.9,4.3-6.7,4.3-11.5
		c0-1.7-0.4-3.2-1.2-4.6c-0.8-1.3-2-2-3.6-2c-2.2,0-4,0.8-5.6,2.3c-1.6,1.6-2.9,3.5-4.1,5.9c0.4-1.9,0.6-3.3,0.7-4.1
		c0.1-0.7,0.1-1.4,0.1-2.2l0-0.6v-0.6c0-0.5-0.2-0.7-0.6-0.7c-1.4,0-3,0.2-4.9,0.5c-0.9,0.2-1.9,0.4-2.8,0.7l-0.7,0.2v0l-0.4,0.2
		c-0.4,0.1-0.7,0.2-1,0.3l-0.5,0.2l-0.1,0.1c-1,0.3-1.5,0.5-1.8,0.5c-0.5,0-0.7-0.2-0.7-0.7c-0.1-0.5-0.1-0.9-0.1-1.2
		c0-1.5,0.5-5.1,1.4-11c0.9-5.8,1.4-9.8,1.4-11.8C631.1,360.8,630.9,360.5,630.3,360.5z M665.8,398.4c-2.5,0.4-4.9,1.4-7,2.8
		c-2.1,1.4-3.9,3.2-5.3,5.3c-1.4,2.1-2.4,4.5-2.9,7.3c-0.7,3.7-0.6,7.1,0.5,10.2c1.1,3.2,3,6,5.8,8.5c1.2,1,2.5,1.9,4.1,2.6
		c1.5,0.7,3.2,1.3,4.9,1.6c1.4,0.3,2.9,0.4,4.3,0.4c1.3,0,2.7-0.1,4-0.3c0.3,0,0.5-0.2,0.5-0.5l0-0.1l2.7-11.5l0,0l0,0l0-0.1
		c0,0,0-0.1,0-0.1c0-0.4-0.3-0.8-0.7-0.8c-0.1,0-0.2,0-0.2,0l-0.1,0l0,0c-1.2,0.5-2.3,0.9-3.3,1.1c-1.4,0.3-2.7,0.3-4,0
		c-2.1-0.4-3.6-1.4-4.6-2.9c-1-1.5-1.3-3.3-0.8-5.5c0.4-2.2,1.4-3.8,3-4.8c1.6-1,3.4-1.4,5.5-0.9c1.4,0.3,2.6,0.8,3.7,1.6
		c0.6,0.4,1.2,1,1.7,1.6l0.3,0.3l0,0c0.1,0.2,0.4,0.4,0.7,0.4c0.3,0,0.6-0.2,0.7-0.5l0-0.1v0h0l2.3-11.4c0-0.1,0-0.1,0-0.2
		c0-0.2-0.1-0.4-0.3-0.6c-1.1-0.8-2.3-1.4-3.5-2c-1.4-0.6-2.8-1.1-4.2-1.3C671,398,668.3,397.9,665.8,398.4z M700.7,333
		c0.4,0,0.8,0.4,0.8,0.8c0,0,0,0.1,0,0.1l0,0.1l-23.8,113.2h-52.2l-17.9-89.8l0,0c0-0.1,0-0.1,0-0.2c0-0.3,0.2-0.6,0.5-0.7l0.1,0
		l15.1-3.8c0,1.2,0.4,2.1,1.1,2.9c0.7,0.8,1.7,1.1,2.9,1.1c1.4,0,2.8-0.6,4.1-1.8c1.3-1.2,1.9-2.5,1.9-3.9c0-0.2,0-0.4,0-0.6l0-0.3
		l67.4-17C700.6,333,700.6,333,700.7,333z M623.8,457.9h-2.3v6h2.3c0.6,0,1.1-0.1,1.5-0.2c0.4-0.2,0.8-0.4,1.1-0.6
		c0.3-0.3,0.5-0.6,0.7-1c0.1-0.4,0.2-0.8,0.2-1.2c0-0.9-0.3-1.7-0.9-2.2C625.8,458.2,625,457.9,623.8,457.9z M654.6,457.9
		c-0.8,0-1.5,0.1-2.1,0.4c-0.6,0.3-1.2,0.6-1.6,1.1c-0.5,0.5-0.8,1.1-1,1.8c-0.2,0.7-0.4,1.5-0.4,2.4c0,0.9,0.1,1.7,0.4,2.4
		c0.2,0.7,0.6,1.3,1,1.8c0.4,0.5,1,0.9,1.6,1.1c0.6,0.3,1.3,0.4,2.1,0.4c0.8,0,1.5-0.1,2.1-0.4c0.6-0.3,1.2-0.6,1.6-1.1
		c0.4-0.5,0.8-1.1,1-1.8c0.2-0.7,0.4-1.5,0.4-2.4c0-0.9-0.1-1.7-0.4-2.4c-0.2-0.7-0.6-1.3-1-1.8c-0.5-0.5-1-0.9-1.6-1.1
		C656.1,458,655.4,457.9,654.6,457.9z M638.4,457.9c-0.8,0-1.5,0.1-2.1,0.4c-0.6,0.3-1.2,0.6-1.6,1.1c-0.4,0.5-0.8,1.1-1,1.8
		c-0.2,0.7-0.4,1.5-0.4,2.4c0,0.9,0.1,1.7,0.4,2.4c0.2,0.7,0.6,1.3,1,1.8c0.5,0.5,1,0.9,1.6,1.1c0.6,0.3,1.3,0.4,2.1,0.4
		c0.8,0,1.5-0.1,2.1-0.4c0.6-0.3,1.2-0.6,1.6-1.1c0.4-0.5,0.8-1.1,1-1.8c0.2-0.7,0.4-1.5,0.4-2.4c0-0.9-0.1-1.7-0.4-2.4
		c-0.2-0.7-0.6-1.3-1-1.8c-0.4-0.5-1-0.9-1.6-1.1C639.8,458,639.1,457.9,638.4,457.9z M680.1,455.6c0.8,0,1.6,0.1,2.3,0.4
		c0.7,0.3,1.3,0.6,1.8,1.2l-0.5,1c-0.1,0.1-0.1,0.2-0.2,0.2c-0.1,0.1-0.2,0.1-0.3,0.1c-0.1,0-0.3-0.1-0.4-0.2
		c-0.2-0.1-0.4-0.2-0.6-0.4c-0.2-0.1-0.5-0.3-0.9-0.4c-0.3-0.1-0.7-0.2-1.2-0.2c-0.5,0-0.9,0.1-1.2,0.2c-0.3,0.1-0.6,0.3-0.9,0.5
		c-0.2,0.2-0.4,0.5-0.5,0.7c-0.1,0.3-0.2,0.6-0.2,0.9c0,0.4,0.1,0.8,0.3,1c0.2,0.3,0.5,0.5,0.8,0.7c0.3,0.2,0.7,0.4,1.2,0.5
		c0.4,0.1,0.9,0.3,1.3,0.4c0.4,0.2,0.9,0.3,1.3,0.5c0.4,0.2,0.8,0.4,1.1,0.7c0.3,0.3,0.6,0.7,0.8,1.1c0.2,0.4,0.3,0.9,0.3,1.6
		c0,0.7-0.1,1.3-0.3,1.8c-0.2,0.6-0.5,1.1-1,1.5c-0.4,0.4-1,0.8-1.6,1c-0.6,0.2-1.3,0.4-2.1,0.4c-1,0-1.9-0.2-2.6-0.5
		c-0.8-0.4-1.5-0.8-2-1.4l0.6-1c0.1-0.1,0.1-0.1,0.2-0.2c0.1-0.1,0.2-0.1,0.3-0.1c0.1,0,0.2,0,0.3,0.1c0.1,0.1,0.2,0.2,0.4,0.3
		c0.1,0.1,0.3,0.2,0.5,0.4c0.2,0.1,0.4,0.3,0.6,0.4c0.2,0.1,0.5,0.2,0.8,0.3c0.3,0.1,0.7,0.1,1,0.1c0.5,0,0.9-0.1,1.3-0.2
		c0.4-0.1,0.7-0.3,1-0.6c0.3-0.2,0.5-0.5,0.6-0.9c0.1-0.3,0.2-0.7,0.2-1.1c0-0.5-0.1-0.8-0.3-1.1c-0.2-0.3-0.5-0.5-0.8-0.7
		c-0.3-0.2-0.7-0.4-1.1-0.5c-0.4-0.1-0.9-0.3-1.3-0.4c-0.4-0.1-0.9-0.3-1.3-0.5c-0.4-0.2-0.8-0.4-1.1-0.7c-0.3-0.3-0.6-0.7-0.8-1.1
		c-0.2-0.4-0.3-1-0.3-1.7c0-0.5,0.1-1,0.3-1.5c0.2-0.5,0.5-0.9,0.9-1.3c0.4-0.4,0.9-0.7,1.5-0.9
		C678.7,455.7,679.3,455.6,680.1,455.6z M666.5,456v13.3h6.5v1.7h-8.5v-15H666.5z M623.8,456.4c0.9,0,1.7,0.1,2.4,0.3
		c0.7,0.2,1.2,0.5,1.7,0.9c0.4,0.4,0.8,0.9,1,1.4c0.2,0.6,0.3,1.2,0.3,1.9c0,0.7-0.1,1.3-0.4,1.9c-0.2,0.6-0.6,1.1-1,1.5
		c-0.5,0.4-1,0.7-1.7,1c-0.7,0.2-1.5,0.3-2.3,0.3h-2.3v5.5h-2v-14.6H623.8z M654.6,456.2c1.1,0,2.1,0.2,2.9,0.5
		c0.9,0.4,1.6,0.9,2.3,1.5c0.6,0.7,1.1,1.5,1.5,2.4c0.3,0.9,0.5,1.9,0.5,3c0,1.1-0.2,2.1-0.5,3c-0.3,0.9-0.8,1.7-1.5,2.4
		c-0.6,0.7-1.4,1.2-2.3,1.5c-0.9,0.4-1.9,0.5-2.9,0.5c-1.1,0-2-0.2-2.9-0.5c-0.9-0.4-1.6-0.9-2.3-1.5c-0.6-0.7-1.1-1.5-1.5-2.4
		c-0.3-0.9-0.5-1.9-0.5-3c0-1.1,0.2-2.1,0.5-3c0.3-0.9,0.8-1.7,1.5-2.4c0.6-0.7,1.4-1.2,2.3-1.5
		C652.5,456.4,653.5,456.2,654.6,456.2z M638.4,456.2c1.1,0,2,0.2,2.9,0.5c0.9,0.4,1.6,0.9,2.3,1.5c0.6,0.7,1.1,1.5,1.5,2.4
		c0.3,0.9,0.5,1.9,0.5,3c0,1.1-0.2,2.1-0.5,3c-0.3,0.9-0.8,1.7-1.5,2.4c-0.6,0.7-1.4,1.2-2.3,1.5c-0.9,0.4-1.9,0.5-2.9,0.5
		c-1.1,0-2-0.2-2.9-0.5c-0.9-0.4-1.6-0.9-2.3-1.5c-0.6-0.7-1.1-1.5-1.5-2.4c-0.3-0.9-0.5-1.9-0.5-3c0-1.1,0.2-2.1,0.5-3
		c0.4-0.9,0.8-1.7,1.5-2.4c0.6-0.7,1.4-1.2,2.3-1.5C636.3,456.4,637.3,456.2,638.4,456.2z"/>
</g>
<g id="prefooter">
	<g>
		
			<image style="overflow:visible;opacity:0.2;" width="373" height="346" xlink:href="DF793EF3.png"  transform="matrix(1 0 0 1 533.5 -55.1667)">
		</image>
		<g>
			<path class="st10" d="M589.2-7.2h261.5c4.3,0,7.7,4.5,7.7,10.1v229.8c0,5.6-3.5,10.1-7.7,10.1H589.2c-4.3,0-7.7-4.5-7.7-10.1V2.9
				C581.5-2.6,585-7.2,589.2-7.2z"/>
		</g>
	</g>
	<g>
		<text transform="matrix(1 0 0 1 613.0391 134.8011)"><tspan x="0" y="0" class="st1" style="font-family:'Prompt-Medium'; font-size:24px;">Trabajá con</tspan><tspan x="0" y="27" class="st1" style="font-family:'Prompt-Medium'; font-size:24px;">nosotros</tspan></text>
	</g>
	<path class="st11" d="M657.1,58.4l-0.1-0.1v-3.9c0-4.5-1.4-8.9-4.2-12.5c-2.3-3.1-5.5-5.5-9.1-6.9l-0.1-0.1l0-0.1
		c-0.3-2.2-2.2-3.8-4.4-3.8h-5.3c-2.2,0-4.1,1.6-4.4,3.8l0,0.1l-0.1,0.1c-3.5,1.4-6.8,3.8-9.1,6.9c-2.7,3.6-4.2,7.9-4.2,12.5v3.9
		l-0.1,0.1c-1.5,0.8-2.5,2.4-2.5,4.1c0,2.5,2,4.5,4.5,4.5h37.3c2.5,0,4.5-2,4.5-4.5C659.6,60.7,658.7,59.1,657.1,58.4z M619.7,54.4
		c0-3.9,1.4-7.8,3.9-10.9l0.4-0.5v3.3c0,1,0.8,1.9,1.8,1.9s1.8-0.8,1.8-1.9v-6.4l0.1-0.1c0.4-0.2,0.8-0.5,1.2-0.6l0.4-0.2v10
		c0,1,0.8,1.9,1.8,1.9S633,50,633,49V35.5c0-0.5,0.4-0.8,0.8-0.8h5.3c0.5,0,0.8,0.4,0.8,0.8V49c0,1,0.8,1.9,1.8,1.9s1.8-0.8,1.8-1.9
		V39l0.4,0.2c0.4,0.2,0.8,0.4,1.2,0.6l0.1,0.1v6.4c0,1,0.8,1.9,1.8,1.9s1.8-0.8,1.8-1.9V43l0.4,0.5c2.5,3.1,3.9,6.9,3.9,10.9v3.5
		h-33.7V54.4z M655.2,63.3h-37.3c-0.5,0-0.8-0.4-0.8-0.8s0.4-0.8,0.8-0.8h37.3c0.5,0,0.8,0.4,0.8,0.8S655.6,63.3,655.2,63.3z"/>
	<g>
		
			<image style="overflow:visible;opacity:0.2;" width="373" height="346" xlink:href="DF793EF1.png"  transform="matrix(1 0 0 1 840.5 -55.1667)">
		</image>
		<g>
			<path class="st10" d="M896.2-7.2h261.5c4.3,0,7.7,4.5,7.7,10.1v229.8c0,5.6-3.5,10.1-7.7,10.1H896.2c-4.3,0-7.7-4.5-7.7-10.1V2.9
				C888.5-2.6,892-7.2,896.2-7.2z"/>
		</g>
	</g>
	<g>
		<text transform="matrix(1 0 0 1 920.0391 134.8011)"><tspan x="0" y="0" class="st1" style="font-family:'Prompt-Medium'; font-size:24px;">Formá parte </tspan><tspan x="0" y="27" class="st1" style="font-family:'Prompt-Medium'; font-size:24px;">de nuestra red</tspan></text>
	</g>
	<g>
		
			<image style="overflow:visible;opacity:0.2;" width="373" height="346" xlink:href="DF793EF7.png"  transform="matrix(1 0 0 1 1147.5 -55.1667)">
		</image>
		<g>
			<path class="st10" d="M1203.2-7.2h261.5c4.3,0,7.7,4.5,7.7,10.1v229.8c0,5.6-3.5,10.1-7.7,10.1h-261.5c-4.3,0-7.7-4.5-7.7-10.1
				V2.9C1195.5-2.6,1199-7.2,1203.2-7.2z"/>
		</g>
	</g>
	<g>
		<text transform="matrix(1 0 0 1 1227.0391 134.8011)"><tspan x="0" y="0" class="st1" style="font-family:'Prompt-Medium'; font-size:24px;">¿Querés ser </tspan><tspan x="0" y="27" class="st1" style="font-family:'Prompt-Medium'; font-size:24px;">proveedor?</tspan></text>
	</g>
	<path class="st11" d="M970,62.1h-1.3c-2.1,0-3.7-0.7-4.5-1.4c-0.7-0.7-1.6-1.1-2.6-1.1h-1.3c-1,0-1.8,0.5-2.6,1.1
		c-0.8,0.8-2.4,1.4-4.5,1.4c-2.1,0-3.7-0.7-4.5-1.4c-0.7-0.7-1.6-1.1-2.6-1.1h-1.3c-1,0-1.8,0.5-2.6,1.1c-0.8,0.8-2.4,1.4-4.5,1.4
		c-2.1,0-3.7-0.7-4.5-1.4c-0.7-0.7-1.6-1.1-2.6-1.1h-1.3c-1,0-1.8,0.5-2.6,1.1c-0.8,0.8-2.4,1.4-4.5,1.4h-1.3
		c-0.7,0-1.3,0.6-1.3,1.3v1.3c0,0.7,0.6,1.3,1.3,1.3h1.3c3.1,0,5.8-1,7.7-2.6c1.9,1.6,4.6,2.6,7.7,2.6s5.8-1,7.7-2.6
		c1.9,1.6,4.6,2.6,7.7,2.6s5.8-1,7.7-2.6c1.9,1.6,4.6,2.6,7.7,2.6h1.3c0.7,0,1.3-0.6,1.3-1.3v-1.3C971.3,62.7,970.7,62.1,970,62.1z
		 M937.2,59.5v-8.9h16.7v8.9c1.1-0.1,1.9-0.5,2.1-0.7c0.5-0.5,1.1-0.9,1.7-1.2V37.1c0-1.8,1.4-3.2,3.2-3.2c1.8,0,3.2,1.4,3.2,3.2V39
		c0,0.7,0.6,1.3,1.3,1.3h1.3c0.7,0,1.3-0.6,1.3-1.3v-1.9c0-3.9-3.2-7.1-7.1-7.1c-3.9,0-7.1,3.2-7.1,7.1v9.6h-16.7v-9.6
		c0-1.8,1.4-3.2,3.2-3.2s3.2,1.4,3.2,3.2V39c0,0.7,0.6,1.3,1.3,1.3h1.3c0.7,0,1.3-0.6,1.3-1.3v-1.9c0-3.9-3.2-7.1-7.1-7.1
		s-7.1,3.2-7.1,7.1v20.6c0.6,0.3,1.2,0.7,1.7,1.2C935.3,59,936.1,59.4,937.2,59.5z"/>
	<path class="st11" d="M113.6-129.2h-1.3c-2.1,0-3.7-0.7-4.5-1.4c-0.7-0.7-1.6-1.1-2.6-1.1h-1.3c-1,0-1.8,0.5-2.6,1.1
		c-0.8,0.8-2.4,1.4-4.5,1.4c-2.1,0-3.7-0.7-4.5-1.4c-0.7-0.7-1.6-1.1-2.6-1.1h-1.3c-1,0-1.8,0.5-2.6,1.1c-0.8,0.8-2.4,1.4-4.5,1.4
		s-3.7-0.7-4.5-1.4c-0.7-0.7-1.6-1.1-2.6-1.1h-1.3c-1,0-1.8,0.5-2.6,1.1c-0.8,0.8-2.4,1.4-4.5,1.4h-1.3c-0.7,0-1.3,0.6-1.3,1.3v1.3
		c0,0.7,0.6,1.3,1.3,1.3H66c3.1,0,5.8-1,7.7-2.6c1.9,1.6,4.6,2.6,7.7,2.6s5.8-1,7.7-2.6c1.9,1.6,4.6,2.6,7.7,2.6
		c3.1,0,5.8-1,7.7-2.6c1.9,1.6,4.6,2.6,7.7,2.6h1.3c0.7,0,1.3-0.6,1.3-1.3v-1.3C114.9-128.7,114.3-129.2,113.6-129.2z M80.8-131.9
		v-8.9h16.7v8.9c1.1-0.1,1.9-0.5,2.1-0.7c0.5-0.5,1.1-0.9,1.7-1.2v-20.6c0-1.8,1.4-3.2,3.2-3.2c1.8,0,3.2,1.4,3.2,3.2v1.9
		c0,0.7,0.6,1.3,1.3,1.3h1.3c0.7,0,1.3-0.6,1.3-1.3v-1.9c0-3.9-3.2-7.1-7.1-7.1s-7.1,3.2-7.1,7.1v9.6H80.8v-9.6
		c0-1.8,1.4-3.2,3.2-3.2c1.8,0,3.2,1.4,3.2,3.2v1.9c0,0.7,0.6,1.3,1.3,1.3h1.3c0.7,0,1.3-0.6,1.3-1.3v-1.9c0-3.9-3.2-7.1-7.1-7.1
		s-7.1,3.2-7.1,7.1v20.6c0.6,0.3,1.2,0.7,1.7,1.2C78.9-132.3,79.6-132,80.8-131.9z"/>
	<path class="st11" d="M1244.1,67c9.9,0,18-8.1,18-18s-8.1-18-18-18s-18,8.1-18,18S1234.1,67,1244.1,67z M1236.6,61.4l3.9-3.9
		c2.3,1,4.9,1,7.3,0l3.9,3.9C1247,64.2,1241.2,64.2,1236.6,61.4L1236.6,61.4z M1249.9,49c0,3.2-2.6,5.8-5.8,5.8
		c-3.2,0-5.8-2.6-5.8-5.8c0-3.2,2.6-5.8,5.8-5.8C1247.3,43.2,1249.9,45.8,1249.9,49z M1256.5,56.5l-3.9-3.9c1-2.3,1-4.9,0-7.3
		l3.9-3.9C1259.3,46.1,1259.3,51.9,1256.5,56.5z M1251.6,36.6l-3.9,3.9c-2.3-1-4.9-1-7.3,0l-3.9-3.9
		C1241.2,33.8,1247,33.8,1251.6,36.6z M1231.6,41.5l3.9,3.9c-1,2.3-1,4.9,0,7.3l-3.9,3.9C1228.9,51.9,1228.9,46.1,1231.6,41.5z"/>
	<g>
		<g>
			<g>
				<defs>
					<path id="SVGID_9_" d="M690.2,197.6l-5-4.5c-0.4-0.4-1-0.4-1.4,0c-0.4,0.4-0.4,1,0,1.4l4.3,3.8l-4.3,3.8c-0.4,0.4-0.4,1,0,1.4
						c0.4,0.4,1,0.4,1.4,0l5-4.5c0.2-0.2,0.3-0.5,0.3-0.7C690.5,198.1,690.4,197.8,690.2,197.6"/>
				</defs>
				<clipPath id="SVGID_10_">
					<use xlink:href="#SVGID_9_"  style="overflow:visible;"/>
				</clipPath>
				<g class="st12">
					<defs>
						<rect id="SVGID_11_" x="358.5" y="-1085.2" width="1280" height="3196"/>
					</defs>
					<clipPath id="SVGID_12_">
						<use xlink:href="#SVGID_11_"  style="overflow:visible;"/>
					</clipPath>
				</g>
			</g>
		</g>
		<g>
			<g>
				<defs>
					<path id="SVGID_13_" d="M690.2,197.6l-5-4.5c-0.4-0.4-1-0.4-1.4,0c-0.4,0.4-0.4,1,0,1.4l4.3,3.8l-4.3,3.8c-0.4,0.4-0.4,1,0,1.4
						c0.4,0.4,1,0.4,1.4,0l5-4.5c0.2-0.2,0.3-0.5,0.3-0.7C690.5,198.1,690.4,197.8,690.2,197.6"/>
				</defs>
				<use xlink:href="#SVGID_13_"  style="overflow:visible;fill-rule:evenodd;clip-rule:evenodd;fill:#4070DE;"/>
				<clipPath id="SVGID_14_">
					<use xlink:href="#SVGID_13_"  style="overflow:visible;"/>
				</clipPath>
				<g class="st13">
					<defs>
						<rect id="SVGID_15_" x="358.5" y="-1085.2" width="1280" height="3196"/>
					</defs>
					<use xlink:href="#SVGID_15_"  style="overflow:visible;fill:#4070DE;"/>
					<clipPath id="SVGID_16_">
						<use xlink:href="#SVGID_15_"  style="overflow:visible;"/>
					</clipPath>
					<rect x="678.5" y="187.8" class="st14" width="17" height="21"/>
				</g>
			</g>
			<text transform="matrix(1 0 0 1 611.9375 202.8333)" style="fill:#4070DE; font-family:'Lato-Bold'; font-size:15px;">Más info</text>
		</g>
		<g>
			<g>
				<defs>
					<path id="SVGID_17_" d="M690.2,197.6l-5-4.5c-0.4-0.4-1-0.4-1.4,0c-0.4,0.4-0.4,1,0,1.4l4.3,3.8l-4.3,3.8c-0.4,0.4-0.4,1,0,1.4
						c0.4,0.4,1,0.4,1.4,0l5-4.5c0.2-0.2,0.3-0.5,0.3-0.7C690.5,198.1,690.4,197.8,690.2,197.6"/>
				</defs>
				<clipPath id="SVGID_18_">
					<use xlink:href="#SVGID_17_"  style="overflow:visible;"/>
				</clipPath>
				<g class="st15">
					<defs>
						<rect id="SVGID_19_" x="358.5" y="-1085.2" width="1280" height="3196"/>
					</defs>
					<clipPath id="SVGID_20_">
						<use xlink:href="#SVGID_19_"  style="overflow:visible;"/>
					</clipPath>
				</g>
			</g>
		</g>
	</g>
	<g>
		<g>
			<g>
				<defs>
					<path id="SVGID_21_" d="M998.2,197.6l-5-4.5c-0.4-0.4-1-0.4-1.4,0c-0.4,0.4-0.4,1,0,1.4l4.3,3.8l-4.3,3.8c-0.4,0.4-0.4,1,0,1.4
						c0.4,0.4,1,0.4,1.4,0l5-4.5c0.2-0.2,0.3-0.5,0.3-0.7C998.5,198.1,998.4,197.8,998.2,197.6"/>
				</defs>
				<clipPath id="SVGID_22_">
					<use xlink:href="#SVGID_21_"  style="overflow:visible;"/>
				</clipPath>
				<g class="st16">
					<defs>
						<rect id="SVGID_23_" x="666.5" y="-1085.2" width="1280" height="3196"/>
					</defs>
					<clipPath id="SVGID_24_">
						<use xlink:href="#SVGID_23_"  style="overflow:visible;"/>
					</clipPath>
				</g>
			</g>
		</g>
		<g>
			<g>
				<defs>
					<path id="SVGID_25_" d="M998.2,197.6l-5-4.5c-0.4-0.4-1-0.4-1.4,0c-0.4,0.4-0.4,1,0,1.4l4.3,3.8l-4.3,3.8c-0.4,0.4-0.4,1,0,1.4
						c0.4,0.4,1,0.4,1.4,0l5-4.5c0.2-0.2,0.3-0.5,0.3-0.7C998.5,198.1,998.4,197.8,998.2,197.6"/>
				</defs>
				<use xlink:href="#SVGID_25_"  style="overflow:visible;fill-rule:evenodd;clip-rule:evenodd;fill:#4070DE;"/>
				<clipPath id="SVGID_26_">
					<use xlink:href="#SVGID_25_"  style="overflow:visible;"/>
				</clipPath>
				<g class="st17">
					<defs>
						<rect id="SVGID_27_" x="666.5" y="-1085.2" width="1280" height="3196"/>
					</defs>
					<use xlink:href="#SVGID_27_"  style="overflow:visible;fill:#4070DE;"/>
					<clipPath id="SVGID_28_">
						<use xlink:href="#SVGID_27_"  style="overflow:visible;"/>
					</clipPath>
					<rect x="986.5" y="187.8" class="st18" width="17" height="21"/>
				</g>
			</g>
			<text transform="matrix(1 0 0 1 919.9375 202.8333)" style="fill:#4070DE; font-family:'Lato-Bold'; font-size:15px;">Más info</text>
		</g>
		<g>
			<g>
				<defs>
					<path id="SVGID_29_" d="M998.2,197.6l-5-4.5c-0.4-0.4-1-0.4-1.4,0c-0.4,0.4-0.4,1,0,1.4l4.3,3.8l-4.3,3.8c-0.4,0.4-0.4,1,0,1.4
						c0.4,0.4,1,0.4,1.4,0l5-4.5c0.2-0.2,0.3-0.5,0.3-0.7C998.5,198.1,998.4,197.8,998.2,197.6"/>
				</defs>
				<clipPath id="SVGID_30_">
					<use xlink:href="#SVGID_29_"  style="overflow:visible;"/>
				</clipPath>
				<g class="st19">
					<defs>
						<rect id="SVGID_31_" x="666.5" y="-1085.2" width="1280" height="3196"/>
					</defs>
					<clipPath id="SVGID_32_">
						<use xlink:href="#SVGID_31_"  style="overflow:visible;"/>
					</clipPath>
				</g>
			</g>
		</g>
	</g>
	<g>
		<g>
			<g>
				<defs>
					<path id="SVGID_33_" d="M1306.2,197.6l-5-4.5c-0.4-0.4-1-0.4-1.4,0c-0.4,0.4-0.4,1,0,1.4l4.3,3.8l-4.3,3.8
						c-0.4,0.4-0.4,1,0,1.4c0.4,0.4,1,0.4,1.4,0l5-4.5c0.2-0.2,0.3-0.5,0.3-0.7C1306.5,198.1,1306.4,197.8,1306.2,197.6"/>
				</defs>
				<clipPath id="SVGID_34_">
					<use xlink:href="#SVGID_33_"  style="overflow:visible;"/>
				</clipPath>
				<g class="st20">
					<defs>
						<rect id="SVGID_35_" x="974.5" y="-1085.2" width="1280" height="3196"/>
					</defs>
					<clipPath id="SVGID_36_">
						<use xlink:href="#SVGID_35_"  style="overflow:visible;"/>
					</clipPath>
				</g>
			</g>
		</g>
		<g>
			<g>
				<defs>
					<path id="SVGID_37_" d="M1306.2,197.6l-5-4.5c-0.4-0.4-1-0.4-1.4,0c-0.4,0.4-0.4,1,0,1.4l4.3,3.8l-4.3,3.8
						c-0.4,0.4-0.4,1,0,1.4c0.4,0.4,1,0.4,1.4,0l5-4.5c0.2-0.2,0.3-0.5,0.3-0.7C1306.5,198.1,1306.4,197.8,1306.2,197.6"/>
				</defs>
				<use xlink:href="#SVGID_37_"  style="overflow:visible;fill-rule:evenodd;clip-rule:evenodd;fill:#4070DE;"/>
				<clipPath id="SVGID_38_">
					<use xlink:href="#SVGID_37_"  style="overflow:visible;"/>
				</clipPath>
				<g class="st21">
					<defs>
						<rect id="SVGID_39_" x="974.5" y="-1085.2" width="1280" height="3196"/>
					</defs>
					<use xlink:href="#SVGID_39_"  style="overflow:visible;fill:#4070DE;"/>
					<clipPath id="SVGID_40_">
						<use xlink:href="#SVGID_39_"  style="overflow:visible;"/>
					</clipPath>
					<rect x="1294.5" y="187.8" class="st22" width="17" height="21"/>
				</g>
			</g>
			<text transform="matrix(1 0 0 1 1227.9375 202.8333)" style="fill:#4070DE; font-family:'Lato-Bold'; font-size:15px;">Más info</text>
		</g>
		<g>
			<g>
				<defs>
					<path id="SVGID_41_" d="M1306.2,197.6l-5-4.5c-0.4-0.4-1-0.4-1.4,0c-0.4,0.4-0.4,1,0,1.4l4.3,3.8l-4.3,3.8
						c-0.4,0.4-0.4,1,0,1.4c0.4,0.4,1,0.4,1.4,0l5-4.5c0.2-0.2,0.3-0.5,0.3-0.7C1306.5,198.1,1306.4,197.8,1306.2,197.6"/>
				</defs>
				<clipPath id="SVGID_42_">
					<use xlink:href="#SVGID_41_"  style="overflow:visible;"/>
				</clipPath>
				<g class="st23">
					<defs>
						<rect id="SVGID_43_" x="974.5" y="-1085.2" width="1280" height="3196"/>
					</defs>
					<clipPath id="SVGID_44_">
						<use xlink:href="#SVGID_43_"  style="overflow:visible;"/>
					</clipPath>
				</g>
			</g>
		</g>
	</g>
	<g>
		
			<image style="overflow:visible;opacity:0.5;" width="373" height="346" xlink:href="DF793EF0.png"  transform="matrix(1 0 0 1 1455.5 -65.1667)">
		</image>
		<g>
			<path class="st24" d="M1511.2-17.2h261.5c4.3,0,7.7,4.5,7.7,10.1v229.8c0,5.6-3.5,10.1-7.7,10.1h-261.5c-4.3,0-7.7-4.5-7.7-10.1
				V-7.1C1503.5-12.6,1507-17.2,1511.2-17.2z"/>
		</g>
	</g>
	<text transform="matrix(1 0 0 1 1535.0391 151.8011)" style="fill:#FDFEFE; font-family:'Prompt-Medium'; font-size:24px;">Contactanos</text>
	<g>
		<g>
			<defs>
				<path id="SVGID_45_" d="M1614.2,187.6l-5-4.5c-0.4-0.4-1-0.4-1.4,0c-0.4,0.4-0.4,1,0,1.4l4.3,3.8l-4.3,3.8c-0.4,0.4-0.4,1,0,1.4
					c0.4,0.4,1,0.4,1.4,0l5-4.5c0.2-0.2,0.3-0.5,0.3-0.7C1614.5,188.1,1614.4,187.8,1614.2,187.6"/>
			</defs>
			<use xlink:href="#SVGID_45_"  style="overflow:visible;fill-rule:evenodd;clip-rule:evenodd;fill:#FDFEFE;"/>
			<clipPath id="SVGID_46_">
				<use xlink:href="#SVGID_45_"  style="overflow:visible;"/>
			</clipPath>
			<g class="st25">
				<defs>
					<rect id="SVGID_47_" x="1282.5" y="-1095.2" width="1280" height="3196"/>
				</defs>
				<use xlink:href="#SVGID_47_"  style="overflow:visible;fill:#FDFEFE;"/>
				<clipPath id="SVGID_48_">
					<use xlink:href="#SVGID_47_"  style="overflow:visible;"/>
				</clipPath>
				<rect x="1602.5" y="177.8" class="st26" width="17" height="21"/>
			</g>
		</g>
		<text transform="matrix(1 0 0 1 1535.9375 192.8333)" style="fill:#FDFEFE; font-family:'Lato-Bold'; font-size:15px;">Más info</text>
	</g>
	<g>
		<defs>
			<path id="SVGID_49_" d="M1577,19.2h-36c-3.3,0-6,2.7-6,6v24c0,3.3,2.7,6,6,6h36c3.3,0,6-2.7,6-6v-24
				C1583,21.9,1580.3,19.2,1577,19.2z M1578.5,22.2l-19.5,15l-19.5-15H1578.5z M1538,49.2v-24l13.5,10.5l-13.4,14.4
				C1538.1,49.8,1538,49.5,1538,49.2z M1540.3,52.1l13.5-14.4l5.1,3.9l4.9-3.9l13.8,14.4C1577.5,52.2,1540.5,52.2,1540.3,52.1z
				 M1580,49.2c0,0.3-0.1,0.6-0.1,0.9l-13.4-14.4l13.5-10.5V49.2z"/>
		</defs>
		<use xlink:href="#SVGID_49_"  style="overflow:visible;fill-rule:evenodd;clip-rule:evenodd;fill:#FDFEFE;"/>
		<clipPath id="SVGID_50_">
			<use xlink:href="#SVGID_49_"  style="overflow:visible;"/>
		</clipPath>
		<g class="st27">
			<defs>
				<rect id="SVGID_51_" x="114.5" y="-5479.8" width="1920" height="6118.5"/>
			</defs>
			<use xlink:href="#SVGID_51_"  style="overflow:visible;fill:#FDFEFE;"/>
			<clipPath id="SVGID_52_">
				<use xlink:href="#SVGID_51_"  style="overflow:visible;"/>
			</clipPath>
			<rect x="1527.5" y="11.7" class="st28" width="63" height="51"/>
		</g>
	</g>
	<path class="st11" d="M27.5,45.5c9.9,0,18-8.1,18-18s-8.1-18-18-18s-18,8.1-18,18S17.6,45.5,27.5,45.5z M20,39.9l3.9-3.9
		c2.3,1,4.9,1,7.3,0l3.9,3.9C30.4,42.7,24.6,42.7,20,39.9L20,39.9z M33.3,27.5c0,3.2-2.6,5.8-5.8,5.8s-5.8-2.6-5.8-5.8
		s2.6-5.8,5.8-5.8S33.3,24.3,33.3,27.5z M39.9,35l-3.9-3.9c1-2.3,1-4.9,0-7.3l3.9-3.9C42.7,24.6,42.7,30.4,39.9,35z M35,15.1
		l-3.9,3.9c-2.3-1-4.9-1-7.3,0L20,15.1C24.6,12.3,30.4,12.3,35,15.1z M15.1,20l3.9,3.9c-1,2.3-1,4.9,0,7.3L15.1,35
		C12.3,30.4,12.3,24.6,15.1,20z"/>
</g>
<g id="bloque">
	<g>
		<defs>
			<rect id="SVGID_53_" x="560.5" y="-403" width="633.2" height="277.6"/>
		</defs>
		<clipPath id="SVGID_54_">
			<use xlink:href="#SVGID_53_"  style="overflow:visible;"/>
		</clipPath>
		<g style="clip-path:url(#SVGID_54_);">
			
				<image style="overflow:visible;" width="625" height="274" xlink:href="DF793EFE.png"  transform="matrix(1.0131 0 0 1.0131 560.5 -402.9575)">
			</image>
		</g>
	</g>
	<g>
		<defs>
			<rect id="SVGID_55_" x="560.5" y="-403" width="633.2" height="277.6"/>
		</defs>
		<clipPath id="SVGID_56_">
			<use xlink:href="#SVGID_55_"  style="overflow:visible;"/>
		</clipPath>
		<path class="st29" d="M-668.4-380.7h558.2c8.4,0,15.2,6.8,15.2,15.2v202.6c0,8.4-6.8,15.2-15.2,15.2h-558.2
			c-8.4,0-15.2-6.8-15.2-15.2v-202.6C-683.6-373.9-676.7-380.7-668.4-380.7z"/>
	</g>
	<g>
		<defs>
			<path id="SVGID_57_" d="M598-380.7h558.2c8.4,0,15.2,6.8,15.2,15.2v202.6c0,8.4-6.8,15.2-15.2,15.2H598
				c-8.4,0-15.2-6.8-15.2-15.2v-202.6C582.8-373.9,589.6-380.7,598-380.7z"/>
		</defs>
		<clipPath id="SVGID_58_">
			<use xlink:href="#SVGID_57_"  style="overflow:visible;"/>
		</clipPath>
		<g class="st30">
			<defs>
				<rect id="SVGID_59_" x="532.1" y="-2770.5" width="1296.7" height="3237.8"/>
			</defs>
			<clipPath id="SVGID_60_">
				<use xlink:href="#SVGID_59_"  style="overflow:visible;"/>
			</clipPath>
			<rect x="577.7" y="-385.7" class="st31" width="598.7" height="243.1"/>
		</g>
	</g>
	<g>
		<defs>
			<path id="SVGID_61_" d="M908-380.7h248.2c8.4,0,15.2,6.8,15.2,15.2v202.6c0,8.4-6.8,15.2-15.2,15.2H908V-380.7z"/>
		</defs>
		<clipPath id="SVGID_62_">
			<use xlink:href="#SVGID_61_"  style="overflow:visible;"/>
		</clipPath>
		<g class="st32">
			<defs>
				<rect id="SVGID_63_" x="532.1" y="-2770.5" width="1296.7" height="3237.8"/>
			</defs>
			<clipPath id="SVGID_64_">
				<use xlink:href="#SVGID_63_"  style="overflow:visible;"/>
			</clipPath>
			<g class="st33">
				<g>
					<defs>
						<rect id="SVGID_65_" x="897.9" y="-392.8" width="278.6" height="273.5"/>
					</defs>
					<clipPath id="SVGID_66_">
						<use xlink:href="#SVGID_65_"  style="overflow:visible;"/>
					</clipPath>
					<g class="st34">
						<defs>
							<rect id="SVGID_67_" x="908" y="-380.7" width="263.4" height="233"/>
						</defs>
						<clipPath id="SVGID_68_">
							<use xlink:href="#SVGID_67_"  style="overflow:visible;"/>
						</clipPath>
						<rect x="902.9" y="-385.7" class="st35" width="273.5" height="243.1"/>
						<g class="st36">
							<defs>
								<rect id="SVGID_69_" x="897.9" y="-392.8" width="273.5" height="273.5"/>
							</defs>
							<clipPath id="SVGID_70_">
								<use xlink:href="#SVGID_69_"  style="overflow:visible;"/>
							</clipPath>
							<g style="clip-path:url(#SVGID_70_);">
								
									<image style="overflow:visible;" width="330" height="330" xlink:href="DF793EF1.jpg"  transform="matrix(0.8289 0 0 0.8289 897.853 -392.8268)">
								</image>
							</g>
						</g>
					</g>
				</g>
			</g>
		</g>
	</g>
	<g>
		<g>
			<text transform="matrix(1 0 0 1 628.376 -277.3366)" style="opacity:0.85; font-family:'Lato-Regular'; font-size:15.1961px;">Podés ver y descargar nuestro </text>
		</g>
		<g>
			<text transform="matrix(1 0 0 1 628.376 -253.0231)" style="opacity:0.85; font-family:'Lato-Regular'; font-size:15.1961px;">catálogo 2020 con todos los modelos </text>
		</g>
		<g>
			<text transform="matrix(1 0 0 1 628.376 -228.7087)" style="opacity:0.85; font-family:'Lato-Regular'; font-size:15.1961px;">de piscinas</text>
		</g>
	</g>
	<g>
		<defs>
			<path id="SVGID_71_" d="M636.5-218.6h91.2c4.5,0,8.1,3.6,8.1,8.1v18.2c0,4.5-3.6,8.1-8.1,8.1h-91.2c-4.5,0-8.1-3.6-8.1-8.1v-18.2
				C628.4-214.9,632-218.6,636.5-218.6z"/>
		</defs>
		<clipPath id="SVGID_72_">
			<use xlink:href="#SVGID_71_"  style="overflow:visible;"/>
		</clipPath>
		<g class="st37">
			<defs>
				<rect id="SVGID_73_" x="532.1" y="-2770.5" width="1296.7" height="3237.8"/>
			</defs>
			<clipPath id="SVGID_74_">
				<use xlink:href="#SVGID_73_"  style="overflow:visible;"/>
			</clipPath>
			<rect x="623.3" y="-223.6" class="st38" width="117.5" height="44.6"/>
		</g>
	</g>
	<g>
		<text transform="matrix(1 0 0 1 644.6494 -196.2912)" class="st0" style="font-family:'Lato-Bold'; font-size:13.1699px;">Ver catálogo</text>
		<text transform="matrix(1 0 0 1 628.376 -312.7946)"><tspan x="0" y="0" class="st1" style="font-family:'Prompt-Bold'; font-size:24.3137px;">C</tspan><tspan x="16.2" y="0" class="st1" style="font-family:'Prompt-Bold'; font-size:24.3137px;">a</tspan><tspan x="30.1" y="0" class="st1" style="font-family:'Prompt-Bold'; font-size:24.3137px;">t</tspan><tspan x="39.1" y="0" class="st1" style="font-family:'Prompt-Bold'; font-size:24.3137px;">álo</tspan><tspan x="75.6" y="0" class="st1" style="font-family:'Prompt-Bold'; font-size:24.3137px;">g</tspan><tspan x="91.2" y="0" class="st1" style="font-family:'Prompt-Bold'; font-size:24.3137px;">o</tspan></text>
	</g>
	<g>
		<defs>
			<rect id="SVGID_75_" x="1167.3" y="-403" width="633.2" height="277.6"/>
		</defs>
		<clipPath id="SVGID_76_">
			<use xlink:href="#SVGID_75_"  style="overflow:visible;"/>
		</clipPath>
		<g style="clip-path:url(#SVGID_76_);">
			
				<image style="overflow:visible;" width="625" height="274" xlink:href="DF793EFF.png"  transform="matrix(1.0131 0 0 1.0131 1167.3301 -402.9575)">
			</image>
		</g>
	</g>
	<g>
		<defs>
			<rect id="SVGID_77_" x="1167.3" y="-403" width="633.2" height="277.6"/>
		</defs>
		<clipPath id="SVGID_78_">
			<use xlink:href="#SVGID_77_"  style="overflow:visible;"/>
		</clipPath>
		<path class="st39" d="M-61.5-380.7h558.2c8.4,0,15.2,6.8,15.2,15.2v202.6c0,8.4-6.8,15.2-15.2,15.2H-61.5
			c-8.4,0-15.2-6.8-15.2-15.2v-202.6C-76.7-373.9-69.9-380.7-61.5-380.7z"/>
	</g>
	<g>
		<defs>
			<path id="SVGID_79_" d="M1204.8-380.7H1763c8.4,0,15.2,6.8,15.2,15.2v202.6c0,8.4-6.8,15.2-15.2,15.2h-558.2
				c-8.4,0-15.2-6.8-15.2-15.2v-202.6C1189.6-373.9,1196.4-380.7,1204.8-380.7z"/>
		</defs>
		<clipPath id="SVGID_80_">
			<use xlink:href="#SVGID_79_"  style="overflow:visible;"/>
		</clipPath>
		<g class="st40">
			<defs>
				<rect id="SVGID_81_" x="532.1" y="-2770.5" width="1296.7" height="3237.8"/>
			</defs>
			<clipPath id="SVGID_82_">
				<use xlink:href="#SVGID_81_"  style="overflow:visible;"/>
			</clipPath>
			<rect x="1184.6" y="-385.7" class="st41" width="598.7" height="243.1"/>
		</g>
	</g>
	<g>
		<defs>
			<path id="SVGID_83_" d="M1514.8-380.7H1763c8.4,0,15.2,6.8,15.2,15.2v202.6c0,8.4-6.8,15.2-15.2,15.2h-248.2V-380.7z"/>
		</defs>
		<clipPath id="SVGID_84_">
			<use xlink:href="#SVGID_83_"  style="overflow:visible;"/>
		</clipPath>
		<g class="st42">
			<defs>
				<rect id="SVGID_85_" x="532.1" y="-2770.5" width="1296.7" height="3237.8"/>
			</defs>
			<clipPath id="SVGID_86_">
				<use xlink:href="#SVGID_85_"  style="overflow:visible;"/>
			</clipPath>
			<g class="st43">
				<g>
					<defs>
						<rect id="SVGID_87_" x="1509.7" y="-411.1" width="273.5" height="268.5"/>
					</defs>
					<clipPath id="SVGID_88_">
						<use xlink:href="#SVGID_87_"  style="overflow:visible;"/>
					</clipPath>
					<g class="st44">
						<defs>
							<rect id="SVGID_89_" x="1514.8" y="-380.7" width="263.4" height="233"/>
						</defs>
						<clipPath id="SVGID_90_">
							<use xlink:href="#SVGID_89_"  style="overflow:visible;"/>
						</clipPath>
						<rect x="1509.7" y="-385.7" class="st45" width="273.5" height="243.1"/>
						<g class="st46">
							<defs>
								<rect id="SVGID_91_" x="1514.8" y="-411.1" width="263.4" height="263.4"/>
							</defs>
							<clipPath id="SVGID_92_">
								<use xlink:href="#SVGID_91_"  style="overflow:visible;"/>
							</clipPath>
							<g transform="matrix(1 0 0 1 0 3.051758e-05)" style="clip-path:url(#SVGID_92_);">
								
									<image style="overflow:visible;" width="330" height="330" xlink:href="DF793EF0.jpg"  transform="matrix(0.7982 0 0 0.7982 1514.8137 -411.0621)">
								</image>
							</g>
						</g>
					</g>
				</g>
			</g>
		</g>
	</g>
	<g>
		<g>
			<text transform="matrix(1 0 0 1 1235.2061 -277.3366)" style="opacity:0.85; font-family:'Lato-Regular'; font-size:15.1961px;">Todos los detalles de nuestras piscinas </text>
		</g>
		<g>
			<text transform="matrix(1 0 0 1 1235.2061 -253.0231)" style="opacity:0.85; font-family:'Lato-Regular'; font-size:15.1961px;">están pensados para que puedas </text>
		</g>
		<g>
			<text transform="matrix(1 0 0 1 1235.2061 -228.7087)" style="opacity:0.85; font-family:'Lato-Regular'; font-size:15.1961px;">disfrutar al máximo cada momento. </text>
		</g>
	</g>
	<g>
		<defs>
			<path id="SVGID_93_" d="M1243.3-218.6h81c4.5,0,8.1,3.6,8.1,8.1v18.2c0,4.5-3.6,8.1-8.1,8.1h-81c-4.5,0-8.1-3.6-8.1-8.1v-18.2
				C1235.2-214.9,1238.8-218.6,1243.3-218.6z"/>
		</defs>
		<clipPath id="SVGID_94_">
			<use xlink:href="#SVGID_93_"  style="overflow:visible;"/>
		</clipPath>
		<g class="st47">
			<defs>
				<rect id="SVGID_95_" x="532.1" y="-2770.5" width="1296.7" height="3237.8"/>
			</defs>
			<clipPath id="SVGID_96_">
				<use xlink:href="#SVGID_95_"  style="overflow:visible;"/>
			</clipPath>
			<rect x="1230.1" y="-223.6" class="st48" width="107.4" height="44.6"/>
		</g>
	</g>
	<g>
		<text transform="matrix(1 0 0 1 1251.5967 -196.2912)" class="st0" style="font-family:'Lato-Bold'; font-size:13.1699px;">Ver galería</text>
		<text transform="matrix(1 0 0 1 1235.2061 -312.7946)"><tspan x="0" y="0" class="st1" style="font-family:'Prompt-Bold'; font-size:24.3137px;">Momen</tspan><tspan x="86.8" y="0" class="st1" style="font-family:'Prompt-Bold'; font-size:24.3137px;">t</tspan><tspan x="96.1" y="0" class="st1" style="font-family:'Prompt-Bold'; font-size:24.3137px;">o</tspan><tspan x="111.1" y="0" class="st1" style="font-family:'Prompt-Bold'; font-size:24.3137px;">s I</tspan><tspan x="138.2" y="0" class="st1" style="font-family:'Prompt-Bold'; font-size:24.3137px;">P</tspan><tspan x="153.1" y="0" class="st1" style="font-family:'Prompt-Bold'; font-size:24.3137px;">C</tspan></text>
	</g>
</g>
</svg>
