<?xml version="1.0" encoding="utf-8"?>
<!-- Generator: Adobe Illustrator 21.0.2, SVG Export Plug-In . SVG Version: 6.00 Build 0)  -->
<svg version="1.1" id="footer" xmlns="http://www.w3.org/2000/svg" xmlns:xlink="http://www.w3.org/1999/xlink" x="0px" y="0px"
	 viewBox="0 0 55 55" style="enable-background:new 0 0 55 55;" xml:space="preserve">
<style type="text/css">
	.st0{fill:#FFFFFF;}
	.st1{fill:#274370;}
	.st2{fill:#324D77;}
	.st3{fill-rule:evenodd;clip-rule:evenodd;fill:#FFFFFF;}
	.st4{clip-path:url(#SVGID_2_);}
	.st5{clip-path:url(#SVGID_4_);fill:#F9FAFF;}
	.st6{clip-path:url(#SVGID_6_);}
	.st7{clip-path:url(#SVGID_8_);fill:#F9FAFF;}
	.st8{fill-rule:evenodd;clip-rule:evenodd;fill:#F9FAFF;}
	.st9{fill:#F9FAFF;}
	.st10{fill-rule:evenodd;clip-rule:evenodd;fill:#FBFBFD;}
	.st11{fill:#767676;}
	.st12{clip-path:url(#SVGID_10_);}
	.st13{clip-path:url(#SVGID_14_);}
	.st14{clip-path:url(#SVGID_16_);fill:#4070DE;}
	.st15{clip-path:url(#SVGID_18_);}
	.st16{clip-path:url(#SVGID_22_);}
	.st17{clip-path:url(#SVGID_26_);}
	.st18{clip-path:url(#SVGID_28_);fill:#4070DE;}
	.st19{clip-path:url(#SVGID_30_);}
	.st20{clip-path:url(#SVGID_34_);}
	.st21{clip-path:url(#SVGID_38_);}
	.st22{clip-path:url(#SVGID_40_);fill:#4070DE;}
	.st23{clip-path:url(#SVGID_42_);}
	.st24{fill-rule:evenodd;clip-rule:evenodd;fill:#4070DE;}
	.st25{clip-path:url(#SVGID_46_);}
	.st26{clip-path:url(#SVGID_48_);fill:#FDFEFE;}
	.st27{clip-path:url(#SVGID_50_);}
	.st28{clip-path:url(#SVGID_52_);fill:#FDFEFE;}
	.st29{clip-path:url(#SVGID_56_);fill-rule:evenodd;clip-rule:evenodd;fill:#FFFFFF;}
	.st30{clip-path:url(#SVGID_58_);}
	.st31{clip-path:url(#SVGID_60_);fill:#FFFFFF;}
	.st32{clip-path:url(#SVGID_62_);}
	.st33{clip-path:url(#SVGID_64_);enable-background:new    ;}
	.st34{clip-path:url(#SVGID_66_);}
	.st35{clip-path:url(#SVGID_68_);fill:#767676;}
	.st36{clip-path:url(#SVGID_68_);}
	.st37{clip-path:url(#SVGID_72_);}
	.st38{clip-path:url(#SVGID_74_);fill:#4070DE;}
	.st39{clip-path:url(#SVGID_78_);fill-rule:evenodd;clip-rule:evenodd;fill:#FFFFFF;}
	.st40{clip-path:url(#SVGID_80_);}
	.st41{clip-path:url(#SVGID_82_);fill:#FFFFFF;}
	.st42{clip-path:url(#SVGID_84_);}
	.st43{clip-path:url(#SVGID_86_);enable-background:new    ;}
	.st44{clip-path:url(#SVGID_88_);}
	.st45{clip-path:url(#SVGID_90_);fill:#767676;}
	.st46{clip-path:url(#SVGID_90_);}
	.st47{clip-path:url(#SVGID_94_);}
	.st48{clip-path:url(#SVGID_96_);fill:#4070DE;}
</style>
<g id="prefooter">
	<path class="st11" d="M48.1,36.9L48,36.8v-3.9c0-4.5-1.4-8.9-4.2-12.5c-2.3-3.1-5.5-5.5-9.1-6.9l-0.1-0.1l0-0.1
		c-0.3-2.2-2.2-3.8-4.4-3.8h-5.3c-2.2,0-4.1,1.6-4.4,3.8l0,0.1l-0.1,0.1c-3.5,1.4-6.8,3.8-9.1,6.9C8.5,24,7,28.3,7,32.9v3.9
		l-0.1,0.1c-1.5,0.8-2.5,2.4-2.5,4.1c0,2.5,2,4.5,4.5,4.5h37.3c2.5,0,4.5-2,4.5-4.5C50.6,39.2,49.7,37.6,48.1,36.9z M10.7,32.9
		c0-3.9,1.4-7.8,3.9-10.9l0.4-0.5v3.3c0,1,0.8,1.9,1.8,1.9s1.8-0.8,1.8-1.9v-6.4l0.1-0.1c0.4-0.2,0.8-0.5,1.2-0.6l0.4-0.2v10
		c0,1,0.8,1.9,1.8,1.9s1.8-0.8,1.8-1.9V14c0-0.5,0.4-0.8,0.8-0.8h5.3c0.5,0,0.8,0.4,0.8,0.8v13.5c0,1,0.8,1.9,1.8,1.9
		s1.8-0.8,1.8-1.9v-10l0.4,0.2c0.4,0.2,0.8,0.4,1.2,0.6l0.1,0.1v6.4c0,1,0.8,1.9,1.8,1.9s1.8-0.8,1.8-1.9v-3.3l0.4,0.5
		c2.5,3.1,3.9,6.9,3.9,10.9v3.5H10.7V32.9z M46.2,41.8H8.8C8.4,41.8,8,41.4,8,41s0.4-0.8,0.8-0.8h37.3c0.5,0,0.8,0.4,0.8,0.8
		S46.6,41.8,46.2,41.8z"/>
</g>
<g id="bloque">
</g>
</svg>
